M48
; DRILL file {KiCad 9.0.4-9.0.4-0~ubuntu24.04.1} date 2025-09-25T14:53:37+0200
; FORMAT={-:-/ absolute / metric / decimal}
; #@! TF.CreationDate,2025-09-25T14:53:37+02:00
; #@! TF.GenerationSoftware,Kicad,Pcbnew,9.0.4-9.0.4-0~ubuntu24.04.1
; #@! TF.FileFunction,Plated,1,2,PTH
FMAT,2
METRIC
; #@! TA.AperFunction,Plated,PTH,ComponentDrill
T1C0.200
; #@! TA.AperFunction,Plated,PTH,ViaDrill
T2C0.300
; #@! TA.AperFunction,Plated,PTH,ViaDrill
T3C0.400
; #@! TA.AperFunction,Plated,PTH,ComponentDrill
T4C0.600
; #@! TA.AperFunction,Plated,PTH,ComponentDrill
T5C0.800
; #@! TA.AperFunction,Plated,PTH,ComponentDrill
T6C1.000
%
G90
G05
T1
X79.04Y-51.258
X79.04Y-52.758
X79.79Y-50.508
X79.79Y-52.008
X79.79Y-53.508
X80.54Y-51.258
X80.54Y-52.758
X81.29Y-50.508
X81.29Y-52.008
X81.29Y-53.508
X82.04Y-51.258
X82.04Y-52.758
T2
X61.0Y-77.0
X61.0Y-81.0
X61.0Y-86.0
X64.625Y-56.375
X66.666Y-47.487
X66.784Y-68.084
X67.5Y-76.5
X67.525Y-50.35
X68.0Y-90.0
X68.85Y-53.35
X69.1Y-48.225
X69.4Y-55.35
X69.5Y-68.5
X69.5Y-76.5
X69.7Y-51.225
X69.925Y-53.15
X70.0Y-52.3
X70.65Y-61.325
X70.893Y-58.323
X71.225Y-55.475
X71.651Y-58.069
X71.804Y-57.283
X72.0Y-50.724
X72.0Y-90.0
X72.824Y-72.918
X74.5Y-72.65
X74.788Y-54.354
X74.997Y-48.909
X75.0Y-51.0
X75.0Y-56.8
X75.2Y-66.0
X75.225Y-73.55
X75.266Y-54.995
X75.298Y-53.738
X76.0Y-62.5
X76.5Y-82.5
X76.775Y-77.175
X76.93Y-72.828
X77.013Y-74.725
X77.5Y-82.5
X77.575Y-75.9
X77.601Y-63.33
X77.8Y-72.675
X78.4Y-63.3
X79.0Y-77.0
X79.0Y-80.0
X79.325Y-84.825
X79.5Y-62.0
X79.735Y-63.147
X81.0Y-77.0
X81.0Y-80.0
X81.005Y-63.147
X81.325Y-74.075
X81.5Y-68.5
X81.5Y-71.0
X82.0Y-85.0
X83.2Y-85.0
X83.25Y-73.05
X83.3Y-81.75
X83.7Y-87.2
X84.0Y-62.5
X84.1Y-85.0
X84.5Y-50.0
X85.5Y-56.0
X85.5Y-79.5
X85.7Y-86.2
X86.5Y-63.3
X86.5Y-70.675
X87.95Y-67.05
X88.0Y-90.0
X88.425Y-73.7
X88.55Y-68.8
X88.915Y-57.479
X89.0Y-50.0
X89.0Y-59.0
X89.04Y-51.398
X89.164Y-54.3
X89.17Y-53.0
X89.17Y-55.548
X89.5Y-67.0
X89.5Y-75.0
X89.5Y-82.7
X89.6Y-78.0
X89.6Y-86.0
X89.6Y-88.1
X90.5Y-64.525
X91.0Y-70.5
X91.9Y-46.785
X92.116Y-56.275
X92.25Y-59.5
X92.32Y-61.939
X93.305Y-46.77
X93.4Y-49.8
X94.0Y-75.0
X94.0Y-86.0
T3
X65.396Y-53.026
X67.123Y-53.075
X69.866Y-46.166
X70.85Y-64.125
X73.986Y-84.349
X74.75Y-84.2
X75.2Y-46.928
X82.312Y-46.928
X88.154Y-46.928
X93.336Y-51.398
T5
X94.0Y-52.8
X94.0Y-54.8
X94.0Y-56.8
X94.0Y-58.8
X94.0Y-60.8
X94.0Y-62.8
T6
X74.325Y-88.827
X76.865Y-88.827
X92.2Y-76.495
X92.2Y-79.035
X92.2Y-81.575
X92.2Y-84.115
T4
G00X63.025Y-56.38
M15
G01X62.225Y-56.38
M16
G05
G00X63.025Y-65.02
M15
G01X62.225Y-65.02
M16
G05
G00X67.355Y-56.38
M15
G01X66.255Y-56.38
M16
G05
G00X67.355Y-65.02
M15
G01X66.255Y-65.02
M16
G05
T5
G00X65.7Y-79.75
M15
G01X65.7Y-81.95
M16
G05
G00X67.4Y-85.65
M15
G01X69.6Y-85.65
M16
G05
G00X71.5Y-79.55
M15
G01X71.5Y-82.15
M16
G05
M30
