%TF.GenerationSoftware,KiCad,Pcbnew,9.0.4-9.0.4-0~ubuntu24.04.1*%
%TF.CreationDate,2025-09-25T14:53:34+02:00*%
%TF.ProjectId,MCM-LIN,4d434d2d-4c49-44e2-9e6b-696361645f70,rev?*%
%TF.SameCoordinates,Original*%
%TF.FileFunction,Legend,Bot*%
%TF.FilePolarity,Positive*%
%FSLAX46Y46*%
G04 Gerber Fmt 4.6, Leading zero omitted, Abs format (unit mm)*
G04 Created by KiCad (PCBNEW 9.0.4-9.0.4-0~ubuntu24.04.1) date 2025-09-25 14:53:34*
%MOMM*%
%LPD*%
G01*
G04 APERTURE LIST*
%ADD10C,0.250000*%
%ADD11C,0.000000*%
%ADD12C,0.010000*%
%ADD13C,0.120000*%
G04 APERTURE END LIST*
D10*
X89721241Y-75837142D02*
X89321241Y-77037142D01*
X89321241Y-77037142D02*
X88921241Y-75837142D01*
X88578384Y-76980000D02*
X88406956Y-77037142D01*
X88406956Y-77037142D02*
X88121241Y-77037142D01*
X88121241Y-77037142D02*
X88006956Y-76980000D01*
X88006956Y-76980000D02*
X87949813Y-76922857D01*
X87949813Y-76922857D02*
X87892670Y-76808571D01*
X87892670Y-76808571D02*
X87892670Y-76694285D01*
X87892670Y-76694285D02*
X87949813Y-76580000D01*
X87949813Y-76580000D02*
X88006956Y-76522857D01*
X88006956Y-76522857D02*
X88121241Y-76465714D01*
X88121241Y-76465714D02*
X88349813Y-76408571D01*
X88349813Y-76408571D02*
X88464098Y-76351428D01*
X88464098Y-76351428D02*
X88521241Y-76294285D01*
X88521241Y-76294285D02*
X88578384Y-76180000D01*
X88578384Y-76180000D02*
X88578384Y-76065714D01*
X88578384Y-76065714D02*
X88521241Y-75951428D01*
X88521241Y-75951428D02*
X88464098Y-75894285D01*
X88464098Y-75894285D02*
X88349813Y-75837142D01*
X88349813Y-75837142D02*
X88064098Y-75837142D01*
X88064098Y-75837142D02*
X87892670Y-75894285D01*
X87378384Y-75837142D02*
X87378384Y-76808571D01*
X87378384Y-76808571D02*
X87321241Y-76922857D01*
X87321241Y-76922857D02*
X87264099Y-76980000D01*
X87264099Y-76980000D02*
X87149813Y-77037142D01*
X87149813Y-77037142D02*
X86921241Y-77037142D01*
X86921241Y-77037142D02*
X86806956Y-76980000D01*
X86806956Y-76980000D02*
X86749813Y-76922857D01*
X86749813Y-76922857D02*
X86692670Y-76808571D01*
X86692670Y-76808571D02*
X86692670Y-75837142D01*
X86121241Y-77037142D02*
X86121241Y-75837142D01*
X86121241Y-75837142D02*
X85664098Y-75837142D01*
X85664098Y-75837142D02*
X85549813Y-75894285D01*
X85549813Y-75894285D02*
X85492670Y-75951428D01*
X85492670Y-75951428D02*
X85435527Y-76065714D01*
X85435527Y-76065714D02*
X85435527Y-76237142D01*
X85435527Y-76237142D02*
X85492670Y-76351428D01*
X85492670Y-76351428D02*
X85549813Y-76408571D01*
X85549813Y-76408571D02*
X85664098Y-76465714D01*
X85664098Y-76465714D02*
X86121241Y-76465714D01*
X88978384Y-82117142D02*
X89549812Y-82117142D01*
X89549812Y-82117142D02*
X89549812Y-80917142D01*
X88578383Y-82117142D02*
X88578383Y-80917142D01*
X88006954Y-82117142D02*
X88006954Y-80917142D01*
X88006954Y-80917142D02*
X87321240Y-82117142D01*
X87321240Y-82117142D02*
X87321240Y-80917142D01*
X81328571Y-62342142D02*
X81328571Y-61142142D01*
X81328571Y-61142142D02*
X80928571Y-61999285D01*
X80928571Y-61999285D02*
X80528571Y-61142142D01*
X80528571Y-61142142D02*
X80528571Y-62342142D01*
X79271428Y-62227857D02*
X79328571Y-62285000D01*
X79328571Y-62285000D02*
X79499999Y-62342142D01*
X79499999Y-62342142D02*
X79614285Y-62342142D01*
X79614285Y-62342142D02*
X79785714Y-62285000D01*
X79785714Y-62285000D02*
X79899999Y-62170714D01*
X79899999Y-62170714D02*
X79957142Y-62056428D01*
X79957142Y-62056428D02*
X80014285Y-61827857D01*
X80014285Y-61827857D02*
X80014285Y-61656428D01*
X80014285Y-61656428D02*
X79957142Y-61427857D01*
X79957142Y-61427857D02*
X79899999Y-61313571D01*
X79899999Y-61313571D02*
X79785714Y-61199285D01*
X79785714Y-61199285D02*
X79614285Y-61142142D01*
X79614285Y-61142142D02*
X79499999Y-61142142D01*
X79499999Y-61142142D02*
X79328571Y-61199285D01*
X79328571Y-61199285D02*
X79271428Y-61256428D01*
X78757142Y-62342142D02*
X78757142Y-61142142D01*
X78757142Y-61142142D02*
X78357142Y-61999285D01*
X78357142Y-61999285D02*
X77957142Y-61142142D01*
X77957142Y-61142142D02*
X77957142Y-62342142D01*
X77385713Y-61885000D02*
X76471428Y-61885000D01*
X75328571Y-62342142D02*
X75899999Y-62342142D01*
X75899999Y-62342142D02*
X75899999Y-61142142D01*
X74928570Y-62342142D02*
X74928570Y-61142142D01*
X74357141Y-62342142D02*
X74357141Y-61142142D01*
X74357141Y-61142142D02*
X73671427Y-62342142D01*
X73671427Y-62342142D02*
X73671427Y-61142142D01*
X88921241Y-83514285D02*
X89035527Y-83457142D01*
X89035527Y-83457142D02*
X89206955Y-83457142D01*
X89206955Y-83457142D02*
X89378384Y-83514285D01*
X89378384Y-83514285D02*
X89492669Y-83628571D01*
X89492669Y-83628571D02*
X89549812Y-83742857D01*
X89549812Y-83742857D02*
X89606955Y-83971428D01*
X89606955Y-83971428D02*
X89606955Y-84142857D01*
X89606955Y-84142857D02*
X89549812Y-84371428D01*
X89549812Y-84371428D02*
X89492669Y-84485714D01*
X89492669Y-84485714D02*
X89378384Y-84600000D01*
X89378384Y-84600000D02*
X89206955Y-84657142D01*
X89206955Y-84657142D02*
X89092669Y-84657142D01*
X89092669Y-84657142D02*
X88921241Y-84600000D01*
X88921241Y-84600000D02*
X88864098Y-84542857D01*
X88864098Y-84542857D02*
X88864098Y-84142857D01*
X88864098Y-84142857D02*
X89092669Y-84142857D01*
X88349812Y-84657142D02*
X88349812Y-83457142D01*
X88349812Y-83457142D02*
X87664098Y-84657142D01*
X87664098Y-84657142D02*
X87664098Y-83457142D01*
X87092669Y-84657142D02*
X87092669Y-83457142D01*
X87092669Y-83457142D02*
X86806955Y-83457142D01*
X86806955Y-83457142D02*
X86635526Y-83514285D01*
X86635526Y-83514285D02*
X86521241Y-83628571D01*
X86521241Y-83628571D02*
X86464098Y-83742857D01*
X86464098Y-83742857D02*
X86406955Y-83971428D01*
X86406955Y-83971428D02*
X86406955Y-84142857D01*
X86406955Y-84142857D02*
X86464098Y-84371428D01*
X86464098Y-84371428D02*
X86521241Y-84485714D01*
X86521241Y-84485714D02*
X86635526Y-84600000D01*
X86635526Y-84600000D02*
X86806955Y-84657142D01*
X86806955Y-84657142D02*
X87092669Y-84657142D01*
D11*
%TO.C,REF\u002A\u002A*%
G36*
X71766223Y-76992414D02*
G01*
X68270661Y-76992414D01*
X68270661Y-76141218D01*
X71766223Y-76141218D01*
X71766223Y-76992414D01*
G37*
G36*
X69302185Y-74410495D02*
G01*
X69308145Y-74410949D01*
X69314019Y-74411695D01*
X69319799Y-74412727D01*
X69325477Y-74414038D01*
X69331047Y-74415620D01*
X69336500Y-74417465D01*
X69341830Y-74419567D01*
X69347030Y-74421917D01*
X69352090Y-74424510D01*
X69357006Y-74427336D01*
X69361768Y-74430389D01*
X69366370Y-74433661D01*
X69370804Y-74437146D01*
X69375063Y-74440835D01*
X69379139Y-74444722D01*
X69383025Y-74448798D01*
X69386715Y-74453057D01*
X69390199Y-74457491D01*
X69393472Y-74462093D01*
X69396525Y-74466855D01*
X69399351Y-74471770D01*
X69401943Y-74476831D01*
X69404294Y-74482030D01*
X69406395Y-74487360D01*
X69408241Y-74492814D01*
X69409822Y-74498383D01*
X69411133Y-74504062D01*
X69412165Y-74509841D01*
X69412912Y-74515715D01*
X69413365Y-74521676D01*
X69413518Y-74527715D01*
X69413365Y-74533755D01*
X69412912Y-74539715D01*
X69412165Y-74545589D01*
X69411133Y-74551368D01*
X69409822Y-74557046D01*
X69408241Y-74562616D01*
X69406395Y-74568069D01*
X69404294Y-74573399D01*
X69401943Y-74578597D01*
X69399351Y-74583658D01*
X69396525Y-74588572D01*
X69393472Y-74593334D01*
X69390199Y-74597936D01*
X69386715Y-74602369D01*
X69383025Y-74606628D01*
X69379139Y-74610703D01*
X69375063Y-74614589D01*
X69370804Y-74618278D01*
X69366370Y-74621762D01*
X69361768Y-74625034D01*
X69357006Y-74628087D01*
X69352090Y-74630913D01*
X69347030Y-74633504D01*
X69341830Y-74635855D01*
X69336500Y-74637956D01*
X69331047Y-74639801D01*
X69325477Y-74641383D01*
X69319799Y-74642693D01*
X69314019Y-74643725D01*
X69308145Y-74644471D01*
X69302185Y-74644925D01*
X69296145Y-74645077D01*
X69290106Y-74644925D01*
X69284145Y-74644471D01*
X69278271Y-74643725D01*
X69272492Y-74642693D01*
X69266813Y-74641383D01*
X69261244Y-74639801D01*
X69255790Y-74637956D01*
X69250460Y-74635855D01*
X69245261Y-74633504D01*
X69240200Y-74630913D01*
X69235285Y-74628087D01*
X69230523Y-74625034D01*
X69225921Y-74621762D01*
X69221487Y-74618278D01*
X69217228Y-74614589D01*
X69213152Y-74610703D01*
X69209265Y-74606628D01*
X69205576Y-74602369D01*
X69202092Y-74597936D01*
X69198819Y-74593334D01*
X69195766Y-74588573D01*
X69192940Y-74583658D01*
X69190348Y-74578597D01*
X69187997Y-74573399D01*
X69185895Y-74568069D01*
X69184050Y-74562616D01*
X69182468Y-74557046D01*
X69181158Y-74551368D01*
X69180125Y-74545589D01*
X69179379Y-74539715D01*
X69178926Y-74533755D01*
X69178773Y-74527715D01*
X69178926Y-74521675D01*
X69179379Y-74515715D01*
X69180125Y-74509841D01*
X69181158Y-74504061D01*
X69182468Y-74498383D01*
X69184050Y-74492813D01*
X69185895Y-74487360D01*
X69187997Y-74482030D01*
X69190348Y-74476831D01*
X69192940Y-74471770D01*
X69195766Y-74466855D01*
X69198819Y-74462093D01*
X69202092Y-74457491D01*
X69205576Y-74453057D01*
X69209265Y-74448798D01*
X69213152Y-74444721D01*
X69217228Y-74440835D01*
X69221487Y-74437146D01*
X69225921Y-74433661D01*
X69230523Y-74430389D01*
X69235285Y-74427336D01*
X69240200Y-74424509D01*
X69245261Y-74421917D01*
X69250460Y-74419567D01*
X69255790Y-74417465D01*
X69261244Y-74415620D01*
X69266813Y-74414038D01*
X69272492Y-74412727D01*
X69278271Y-74411695D01*
X69284145Y-74410949D01*
X69290106Y-74410495D01*
X69296145Y-74410343D01*
X69302185Y-74410495D01*
G37*
G36*
X70848726Y-71582436D02*
G01*
X70865245Y-71595137D01*
X70881009Y-71608392D01*
X70895984Y-71622214D01*
X70910136Y-71636612D01*
X70923431Y-71651599D01*
X70935835Y-71667187D01*
X70947313Y-71683386D01*
X70957832Y-71700207D01*
X70967357Y-71717663D01*
X70975855Y-71735763D01*
X70977249Y-71739038D01*
X70978559Y-71742222D01*
X70979789Y-71745315D01*
X70980940Y-71748314D01*
X70982014Y-71751215D01*
X70983015Y-71754017D01*
X70983944Y-71756716D01*
X70984800Y-71759300D01*
X70984803Y-71759310D01*
X71112682Y-71759310D01*
X71112682Y-71879960D01*
X70967339Y-71879960D01*
X70966909Y-71884957D01*
X70936503Y-72238432D01*
X72106838Y-71005871D01*
X72106838Y-71143362D01*
X70923302Y-72391838D01*
X70911217Y-72532325D01*
X70789189Y-73950928D01*
X70804652Y-73966662D01*
X72033272Y-75216928D01*
X71962470Y-75286503D01*
X70778079Y-74080073D01*
X70730342Y-74634933D01*
X70730066Y-74637377D01*
X70729659Y-74639809D01*
X70729126Y-74642228D01*
X70728472Y-74644628D01*
X70727699Y-74647007D01*
X70726812Y-74649360D01*
X70725816Y-74651684D01*
X70724713Y-74653975D01*
X70723508Y-74656230D01*
X70722205Y-74658445D01*
X70719320Y-74662739D01*
X70716091Y-74666830D01*
X70712550Y-74670687D01*
X70708728Y-74674280D01*
X70704658Y-74677582D01*
X70700371Y-74680563D01*
X70695899Y-74683192D01*
X70693604Y-74684366D01*
X70691274Y-74685442D01*
X70688915Y-74686415D01*
X70686529Y-74687282D01*
X70684121Y-74688039D01*
X70681695Y-74688684D01*
X70679254Y-74689211D01*
X70676804Y-74689617D01*
X70676804Y-74871608D01*
X70453229Y-74871608D01*
X70453229Y-74690080D01*
X69603451Y-74690080D01*
X69591857Y-74710305D01*
X69578976Y-74729649D01*
X69564864Y-74748054D01*
X69549581Y-74765460D01*
X69533186Y-74781810D01*
X69515736Y-74797045D01*
X69497291Y-74811106D01*
X69477909Y-74823936D01*
X69457648Y-74835475D01*
X69436567Y-74845666D01*
X69414724Y-74854449D01*
X69392179Y-74861766D01*
X69368988Y-74867559D01*
X69345212Y-74871769D01*
X69320908Y-74874338D01*
X69296136Y-74875207D01*
X69278254Y-74874755D01*
X69260607Y-74873413D01*
X69243216Y-74871204D01*
X69226104Y-74868148D01*
X69209292Y-74864268D01*
X69192802Y-74859586D01*
X69176656Y-74854123D01*
X69160876Y-74847901D01*
X69145484Y-74840942D01*
X69130500Y-74833269D01*
X69115948Y-74824902D01*
X69101850Y-74815864D01*
X69088226Y-74806176D01*
X69075098Y-74795860D01*
X69062490Y-74784938D01*
X69050422Y-74773433D01*
X69038916Y-74761365D01*
X69027994Y-74748756D01*
X69017678Y-74735629D01*
X69007990Y-74722005D01*
X68998951Y-74707907D01*
X68990584Y-74693355D01*
X68982910Y-74678371D01*
X68975951Y-74662979D01*
X68969729Y-74647198D01*
X68964266Y-74631052D01*
X68959583Y-74614562D01*
X68955703Y-74597750D01*
X68952647Y-74580637D01*
X68950437Y-74563246D01*
X68949095Y-74545598D01*
X68948643Y-74527715D01*
X69115422Y-74527715D01*
X69115657Y-74537015D01*
X69116355Y-74546193D01*
X69117504Y-74555237D01*
X69119094Y-74564136D01*
X69121112Y-74572880D01*
X69123547Y-74581456D01*
X69126389Y-74589853D01*
X69129625Y-74598060D01*
X69133244Y-74606065D01*
X69137235Y-74613857D01*
X69141587Y-74621425D01*
X69146288Y-74628758D01*
X69151326Y-74635844D01*
X69156691Y-74642671D01*
X69162372Y-74649228D01*
X69168356Y-74655505D01*
X69174632Y-74661489D01*
X69181190Y-74667169D01*
X69188017Y-74672534D01*
X69195103Y-74677573D01*
X69202435Y-74682274D01*
X69210003Y-74686626D01*
X69217796Y-74690617D01*
X69225801Y-74694236D01*
X69234008Y-74697472D01*
X69242405Y-74700313D01*
X69250981Y-74702749D01*
X69259724Y-74704767D01*
X69268624Y-74706356D01*
X69277668Y-74707506D01*
X69286846Y-74708204D01*
X69296146Y-74708439D01*
X69305446Y-74708204D01*
X69314625Y-74707506D01*
X69323670Y-74706356D01*
X69332570Y-74704767D01*
X69341314Y-74702749D01*
X69349890Y-74700313D01*
X69358287Y-74697472D01*
X69366494Y-74694236D01*
X69374500Y-74690617D01*
X69382292Y-74686626D01*
X69389860Y-74682274D01*
X69397193Y-74677573D01*
X69404278Y-74672534D01*
X69411105Y-74667169D01*
X69417663Y-74661489D01*
X69423939Y-74655505D01*
X69429923Y-74649228D01*
X69435603Y-74642671D01*
X69440968Y-74635844D01*
X69446006Y-74628758D01*
X69450707Y-74621425D01*
X69455058Y-74613857D01*
X69459049Y-74606065D01*
X69462668Y-74598060D01*
X69465904Y-74589853D01*
X69468745Y-74581456D01*
X69471180Y-74572880D01*
X69473198Y-74564136D01*
X69474787Y-74555237D01*
X69475936Y-74546193D01*
X69476634Y-74537015D01*
X69476869Y-74527715D01*
X69476634Y-74518415D01*
X69475936Y-74509236D01*
X69474787Y-74500191D01*
X69473198Y-74491291D01*
X69471180Y-74482547D01*
X69468745Y-74473971D01*
X69465904Y-74465574D01*
X69462668Y-74457366D01*
X69459049Y-74449361D01*
X69455058Y-74441568D01*
X69450707Y-74434000D01*
X69446006Y-74426668D01*
X69440968Y-74419582D01*
X69435603Y-74412755D01*
X69429923Y-74406198D01*
X69423939Y-74399922D01*
X69417663Y-74393938D01*
X69411105Y-74388258D01*
X69404278Y-74382893D01*
X69397193Y-74377854D01*
X69389860Y-74373154D01*
X69382292Y-74368802D01*
X69374500Y-74364812D01*
X69366494Y-74361193D01*
X69358287Y-74357957D01*
X69349890Y-74355116D01*
X69341313Y-74352681D01*
X69332570Y-74350663D01*
X69323669Y-74349074D01*
X69314625Y-74347924D01*
X69305446Y-74347226D01*
X69296146Y-74346991D01*
X69286846Y-74347226D01*
X69277668Y-74347924D01*
X69268624Y-74349074D01*
X69259724Y-74350663D01*
X69250981Y-74352681D01*
X69242405Y-74355116D01*
X69234008Y-74357957D01*
X69225801Y-74361193D01*
X69217796Y-74364812D01*
X69210003Y-74368802D01*
X69202435Y-74373154D01*
X69195103Y-74377854D01*
X69188017Y-74382893D01*
X69181190Y-74388258D01*
X69174632Y-74393938D01*
X69168356Y-74399922D01*
X69162372Y-74406198D01*
X69156691Y-74412755D01*
X69151326Y-74419582D01*
X69146288Y-74426668D01*
X69141587Y-74434000D01*
X69137235Y-74441568D01*
X69133244Y-74449361D01*
X69129625Y-74457366D01*
X69126389Y-74465574D01*
X69123547Y-74473971D01*
X69121112Y-74482547D01*
X69119094Y-74491291D01*
X69117504Y-74500191D01*
X69116355Y-74509236D01*
X69115657Y-74518415D01*
X69115422Y-74527715D01*
X68948643Y-74527715D01*
X68948720Y-74520329D01*
X68948950Y-74512981D01*
X68949331Y-74505672D01*
X68949862Y-74498405D01*
X68950541Y-74491180D01*
X68951366Y-74483998D01*
X68952336Y-74476862D01*
X68953449Y-74469773D01*
X68191132Y-75273925D01*
X68119125Y-75205587D01*
X69191882Y-74075790D01*
X69326941Y-74075790D01*
X69336895Y-74182576D01*
X69352971Y-74184835D01*
X69368804Y-74187818D01*
X69384374Y-74191509D01*
X69399666Y-74195890D01*
X69414661Y-74200943D01*
X69429342Y-74206651D01*
X69443691Y-74212996D01*
X69457692Y-74219961D01*
X69471326Y-74227529D01*
X69484576Y-74235682D01*
X69497426Y-74244402D01*
X69509856Y-74253673D01*
X69521850Y-74263476D01*
X69533391Y-74273794D01*
X69544461Y-74284610D01*
X69555042Y-74295906D01*
X69565117Y-74307665D01*
X69574668Y-74319870D01*
X69583679Y-74332502D01*
X69592131Y-74345545D01*
X69600007Y-74358980D01*
X69607290Y-74372792D01*
X69613962Y-74386961D01*
X69620006Y-74401471D01*
X69625405Y-74416304D01*
X69630140Y-74431442D01*
X69634194Y-74446869D01*
X69637551Y-74462567D01*
X69640192Y-74478517D01*
X69642100Y-74494704D01*
X69643258Y-74511109D01*
X69643648Y-74527715D01*
X69643608Y-74533000D01*
X69643490Y-74538265D01*
X69643294Y-74543512D01*
X69643022Y-74548740D01*
X69642673Y-74553946D01*
X69642248Y-74559133D01*
X69641748Y-74564297D01*
X69641174Y-74569440D01*
X70614900Y-74569440D01*
X70666750Y-73966662D01*
X70037761Y-73325971D01*
X69326941Y-74075790D01*
X69191882Y-74075790D01*
X69204522Y-74062478D01*
X69057791Y-72488117D01*
X69178984Y-72488117D01*
X69314876Y-73946273D01*
X69969694Y-73256637D01*
X69967947Y-73254857D01*
X70105174Y-73254857D01*
X70106923Y-73256637D01*
X70677839Y-73837617D01*
X70790124Y-72532325D01*
X70105174Y-73254857D01*
X69967947Y-73254857D01*
X69192387Y-72464852D01*
X69192387Y-72488117D01*
X69178984Y-72488117D01*
X69057791Y-72488117D01*
X68783001Y-72488117D01*
X68783001Y-72175935D01*
X68888589Y-72175935D01*
X68888589Y-72379632D01*
X69047697Y-72379632D01*
X69041293Y-72310962D01*
X68908728Y-72175935D01*
X68888589Y-72175935D01*
X68783001Y-72175935D01*
X68783001Y-72067430D01*
X68802215Y-72067430D01*
X67879192Y-71127235D01*
X67879192Y-70989674D01*
X68938298Y-72067440D01*
X69018590Y-72067440D01*
X69001575Y-71884957D01*
X69122782Y-71884957D01*
X69139783Y-72067451D01*
X69192387Y-72067451D01*
X69192387Y-72325993D01*
X69245098Y-72379632D01*
X69483897Y-72622632D01*
X69483897Y-72483130D01*
X70222888Y-72483130D01*
X70222888Y-72724430D01*
X69583926Y-72724430D01*
X70037138Y-73185615D01*
X70803346Y-72378667D01*
X70845814Y-71884957D01*
X69122782Y-71884957D01*
X69001575Y-71884957D01*
X69001247Y-71881438D01*
X68997628Y-71882911D01*
X68993966Y-71884298D01*
X68990261Y-71885598D01*
X68986516Y-71886809D01*
X68982732Y-71887930D01*
X68978909Y-71888961D01*
X68975050Y-71889899D01*
X68971155Y-71890743D01*
X68967225Y-71891493D01*
X68963262Y-71892147D01*
X68959268Y-71892704D01*
X68955242Y-71893162D01*
X68951188Y-71893521D01*
X68947105Y-71893778D01*
X68942996Y-71893934D01*
X68938861Y-71893986D01*
X68930582Y-71893777D01*
X68922412Y-71893155D01*
X68914361Y-71892132D01*
X68906439Y-71890717D01*
X68898656Y-71888921D01*
X68891022Y-71886753D01*
X68883548Y-71884224D01*
X68876242Y-71881343D01*
X68869116Y-71878122D01*
X68862180Y-71874569D01*
X68855443Y-71870695D01*
X68848917Y-71866511D01*
X68842610Y-71862026D01*
X68836533Y-71857250D01*
X68830696Y-71852194D01*
X68825109Y-71846867D01*
X68819783Y-71841280D01*
X68814727Y-71835443D01*
X68809951Y-71829366D01*
X68805466Y-71823059D01*
X68801282Y-71816532D01*
X68797409Y-71809795D01*
X68793856Y-71802859D01*
X68790635Y-71795733D01*
X68787755Y-71788428D01*
X68785226Y-71780954D01*
X68783058Y-71773320D01*
X68781262Y-71765538D01*
X68780150Y-71759310D01*
X69127517Y-71759310D01*
X70529510Y-71759310D01*
X70529510Y-71649519D01*
X70735681Y-71649519D01*
X70735681Y-71759300D01*
X70855808Y-71759300D01*
X70851207Y-71751129D01*
X70846171Y-71743141D01*
X70840711Y-71735336D01*
X70834837Y-71727711D01*
X70828559Y-71720265D01*
X70821886Y-71712994D01*
X70814829Y-71705897D01*
X70807399Y-71698973D01*
X70799604Y-71692218D01*
X70791454Y-71685631D01*
X70782961Y-71679210D01*
X70774133Y-71672953D01*
X70764981Y-71666857D01*
X70755515Y-71660921D01*
X70745745Y-71655142D01*
X70735681Y-71649519D01*
X70529510Y-71649519D01*
X70529510Y-71575802D01*
X70489436Y-71566870D01*
X70448644Y-71558900D01*
X70407385Y-71551842D01*
X70365905Y-71545644D01*
X70324455Y-71540258D01*
X70283281Y-71535631D01*
X70242633Y-71531714D01*
X70202760Y-71528457D01*
X70202760Y-71533102D01*
X70202760Y-71653752D01*
X69609574Y-71653752D01*
X69609574Y-71541146D01*
X69569652Y-71546710D01*
X69529936Y-71553107D01*
X69490668Y-71560387D01*
X69452084Y-71568604D01*
X69414417Y-71577809D01*
X69377902Y-71588055D01*
X69342771Y-71599394D01*
X69309259Y-71611880D01*
X69277600Y-71625564D01*
X69248027Y-71640498D01*
X69234097Y-71648451D01*
X69220776Y-71656736D01*
X69208094Y-71665360D01*
X69196079Y-71674330D01*
X69184762Y-71683652D01*
X69174171Y-71693332D01*
X69164335Y-71703377D01*
X69155285Y-71713794D01*
X69147049Y-71724589D01*
X69139656Y-71735769D01*
X69133136Y-71747341D01*
X69127517Y-71759310D01*
X68780150Y-71759310D01*
X68779847Y-71757616D01*
X68778824Y-71749566D01*
X68778203Y-71741397D01*
X68777994Y-71733119D01*
X68778203Y-71724841D01*
X68778824Y-71716671D01*
X68779847Y-71708620D01*
X68781262Y-71700698D01*
X68783058Y-71692915D01*
X68785226Y-71685281D01*
X68787755Y-71677806D01*
X68790635Y-71670501D01*
X68793856Y-71663375D01*
X68797409Y-71656439D01*
X68801282Y-71649702D01*
X68805466Y-71643175D01*
X68809951Y-71636868D01*
X68814727Y-71630791D01*
X68819783Y-71624954D01*
X68825109Y-71619368D01*
X68830696Y-71614041D01*
X68836533Y-71608985D01*
X68842610Y-71604210D01*
X68848917Y-71599725D01*
X68855443Y-71595541D01*
X68862180Y-71591667D01*
X68869116Y-71588115D01*
X68876242Y-71584894D01*
X68883548Y-71582013D01*
X68891022Y-71579484D01*
X68898656Y-71577317D01*
X68906439Y-71575521D01*
X68914361Y-71574106D01*
X68922412Y-71573083D01*
X68930582Y-71572462D01*
X68938861Y-71572253D01*
X68948425Y-71572532D01*
X68957843Y-71573361D01*
X68967097Y-71574723D01*
X68976172Y-71576602D01*
X68985054Y-71578984D01*
X68993725Y-71581852D01*
X69002170Y-71585190D01*
X69010375Y-71588984D01*
X69018322Y-71593217D01*
X69025997Y-71597874D01*
X69033383Y-71602938D01*
X69040465Y-71608395D01*
X69047228Y-71614229D01*
X69053656Y-71620424D01*
X69059733Y-71626964D01*
X69065443Y-71633834D01*
X69087393Y-71610411D01*
X69111740Y-71588561D01*
X69138315Y-71568232D01*
X69166949Y-71549371D01*
X69197473Y-71531926D01*
X69229717Y-71515842D01*
X69263512Y-71501068D01*
X69298690Y-71487550D01*
X69327552Y-71477784D01*
X69730244Y-71477784D01*
X69730244Y-71533102D01*
X70082130Y-71533102D01*
X70082130Y-71477784D01*
X69730244Y-71477784D01*
X69327552Y-71477784D01*
X69335082Y-71475236D01*
X69372517Y-71464072D01*
X69410827Y-71454006D01*
X69449843Y-71444986D01*
X69489396Y-71436957D01*
X69529317Y-71429867D01*
X69609574Y-71418295D01*
X69609574Y-71357144D01*
X70202760Y-71357144D01*
X70202760Y-71404921D01*
X70242765Y-71407796D01*
X70283336Y-71411345D01*
X70324310Y-71415622D01*
X70365524Y-71420682D01*
X70406815Y-71426580D01*
X70448018Y-71433370D01*
X70488971Y-71441106D01*
X70529510Y-71449843D01*
X70529510Y-71437507D01*
X70735671Y-71437507D01*
X70735671Y-71517246D01*
X70756003Y-71526857D01*
X70775784Y-71536954D01*
X70794981Y-71547549D01*
X70813560Y-71558654D01*
X70831486Y-71570279D01*
X70839317Y-71575802D01*
X70848726Y-71582436D01*
G37*
D12*
X62082836Y-74242363D02*
X62097023Y-74256032D01*
X62138392Y-74297719D01*
X62193107Y-74354472D01*
X62258510Y-74423397D01*
X62331943Y-74501599D01*
X62410746Y-74586182D01*
X62492260Y-74674253D01*
X62573827Y-74762916D01*
X62652788Y-74849276D01*
X62726483Y-74930439D01*
X62792254Y-75003510D01*
X62847441Y-75065594D01*
X62889386Y-75113795D01*
X62915431Y-75145220D01*
X62922915Y-75156974D01*
X62920346Y-75158272D01*
X62895785Y-75171978D01*
X62847204Y-75199613D01*
X62776652Y-75239998D01*
X62686173Y-75291955D01*
X62577815Y-75354305D01*
X62453624Y-75425871D01*
X62315645Y-75505475D01*
X62165926Y-75591938D01*
X62006513Y-75684083D01*
X61839451Y-75780732D01*
X61777008Y-75816867D01*
X61612883Y-75911806D01*
X61457358Y-76001714D01*
X61312454Y-76085424D01*
X61180195Y-76161771D01*
X61062604Y-76229589D01*
X60961702Y-76287711D01*
X60879513Y-76334971D01*
X60818059Y-76370203D01*
X60779364Y-76392242D01*
X60765449Y-76399920D01*
X60766075Y-76395831D01*
X60777493Y-76372330D01*
X60798493Y-76334786D01*
X60811376Y-76312564D01*
X60838772Y-76265173D01*
X60879087Y-76195377D01*
X60931009Y-76105444D01*
X60993231Y-75997642D01*
X61064443Y-75874240D01*
X61143335Y-75737506D01*
X61228598Y-75589709D01*
X61318924Y-75433117D01*
X61413002Y-75270000D01*
X61505121Y-75110323D01*
X61594680Y-74955187D01*
X61678893Y-74809412D01*
X61756497Y-74675183D01*
X61826225Y-74554685D01*
X61886814Y-74450102D01*
X61936998Y-74363619D01*
X61975512Y-74297421D01*
X62001092Y-74253693D01*
X62012472Y-74234619D01*
X62035820Y-74198201D01*
X62082836Y-74242363D01*
G36*
X62082836Y-74242363D02*
G01*
X62097023Y-74256032D01*
X62138392Y-74297719D01*
X62193107Y-74354472D01*
X62258510Y-74423397D01*
X62331943Y-74501599D01*
X62410746Y-74586182D01*
X62492260Y-74674253D01*
X62573827Y-74762916D01*
X62652788Y-74849276D01*
X62726483Y-74930439D01*
X62792254Y-75003510D01*
X62847441Y-75065594D01*
X62889386Y-75113795D01*
X62915431Y-75145220D01*
X62922915Y-75156974D01*
X62920346Y-75158272D01*
X62895785Y-75171978D01*
X62847204Y-75199613D01*
X62776652Y-75239998D01*
X62686173Y-75291955D01*
X62577815Y-75354305D01*
X62453624Y-75425871D01*
X62315645Y-75505475D01*
X62165926Y-75591938D01*
X62006513Y-75684083D01*
X61839451Y-75780732D01*
X61777008Y-75816867D01*
X61612883Y-75911806D01*
X61457358Y-76001714D01*
X61312454Y-76085424D01*
X61180195Y-76161771D01*
X61062604Y-76229589D01*
X60961702Y-76287711D01*
X60879513Y-76334971D01*
X60818059Y-76370203D01*
X60779364Y-76392242D01*
X60765449Y-76399920D01*
X60766075Y-76395831D01*
X60777493Y-76372330D01*
X60798493Y-76334786D01*
X60811376Y-76312564D01*
X60838772Y-76265173D01*
X60879087Y-76195377D01*
X60931009Y-76105444D01*
X60993231Y-75997642D01*
X61064443Y-75874240D01*
X61143335Y-75737506D01*
X61228598Y-75589709D01*
X61318924Y-75433117D01*
X61413002Y-75270000D01*
X61505121Y-75110323D01*
X61594680Y-74955187D01*
X61678893Y-74809412D01*
X61756497Y-74675183D01*
X61826225Y-74554685D01*
X61886814Y-74450102D01*
X61936998Y-74363619D01*
X61975512Y-74297421D01*
X62001092Y-74253693D01*
X62012472Y-74234619D01*
X62035820Y-74198201D01*
X62082836Y-74242363D01*
G37*
X63845560Y-71073175D02*
X63857093Y-71090511D01*
X63882500Y-71132162D01*
X63920507Y-71195911D01*
X63969837Y-71279545D01*
X64029213Y-71380849D01*
X64097359Y-71497609D01*
X64173000Y-71627608D01*
X64254859Y-71768633D01*
X64341660Y-71918468D01*
X64432126Y-72074900D01*
X64524982Y-72235713D01*
X64618951Y-72398693D01*
X64712757Y-72561624D01*
X64805124Y-72722292D01*
X64894776Y-72878482D01*
X64980436Y-73027980D01*
X65060828Y-73168571D01*
X65134677Y-73298040D01*
X65200705Y-73414172D01*
X65257637Y-73514752D01*
X65304197Y-73597567D01*
X65339108Y-73660400D01*
X65361094Y-73701037D01*
X65368879Y-73717264D01*
X65368887Y-73717388D01*
X65356333Y-73734416D01*
X65320258Y-73763279D01*
X65264417Y-73801247D01*
X65192561Y-73845587D01*
X65144373Y-73873952D01*
X65075032Y-73913396D01*
X65026734Y-73938254D01*
X64996242Y-73949924D01*
X64980320Y-73949806D01*
X64975732Y-73939297D01*
X64975382Y-73937583D01*
X64962268Y-73916682D01*
X64934000Y-73881139D01*
X64895786Y-73837583D01*
X64878155Y-73818875D01*
X64823482Y-73768512D01*
X64763022Y-73725465D01*
X64693182Y-73688473D01*
X64610370Y-73656273D01*
X64510992Y-73627602D01*
X64391455Y-73601198D01*
X64248166Y-73575800D01*
X64077531Y-73550145D01*
X63881134Y-73521227D01*
X63691274Y-73490173D01*
X63525260Y-73459044D01*
X63379382Y-73426942D01*
X63249927Y-73392969D01*
X63133183Y-73356226D01*
X63025440Y-73315817D01*
X62922985Y-73270843D01*
X62847688Y-73233754D01*
X62775765Y-73194725D01*
X62718886Y-73159882D01*
X62681499Y-73131965D01*
X62668049Y-73113714D01*
X62668446Y-73112370D01*
X62679280Y-73090862D01*
X62703845Y-73045822D01*
X62740685Y-72979772D01*
X62788347Y-72895233D01*
X62845376Y-72794727D01*
X62910318Y-72680776D01*
X62981719Y-72555901D01*
X63058124Y-72422624D01*
X63138079Y-72283467D01*
X63220130Y-72140951D01*
X63302822Y-71997598D01*
X63384701Y-71855930D01*
X63464313Y-71718468D01*
X63540204Y-71587734D01*
X63610919Y-71466250D01*
X63675004Y-71356538D01*
X63731004Y-71261118D01*
X63777466Y-71182514D01*
X63812935Y-71123245D01*
X63835957Y-71085835D01*
X63845077Y-71072805D01*
X63845560Y-71073175D01*
G36*
X63845560Y-71073175D02*
G01*
X63857093Y-71090511D01*
X63882500Y-71132162D01*
X63920507Y-71195911D01*
X63969837Y-71279545D01*
X64029213Y-71380849D01*
X64097359Y-71497609D01*
X64173000Y-71627608D01*
X64254859Y-71768633D01*
X64341660Y-71918468D01*
X64432126Y-72074900D01*
X64524982Y-72235713D01*
X64618951Y-72398693D01*
X64712757Y-72561624D01*
X64805124Y-72722292D01*
X64894776Y-72878482D01*
X64980436Y-73027980D01*
X65060828Y-73168571D01*
X65134677Y-73298040D01*
X65200705Y-73414172D01*
X65257637Y-73514752D01*
X65304197Y-73597567D01*
X65339108Y-73660400D01*
X65361094Y-73701037D01*
X65368879Y-73717264D01*
X65368887Y-73717388D01*
X65356333Y-73734416D01*
X65320258Y-73763279D01*
X65264417Y-73801247D01*
X65192561Y-73845587D01*
X65144373Y-73873952D01*
X65075032Y-73913396D01*
X65026734Y-73938254D01*
X64996242Y-73949924D01*
X64980320Y-73949806D01*
X64975732Y-73939297D01*
X64975382Y-73937583D01*
X64962268Y-73916682D01*
X64934000Y-73881139D01*
X64895786Y-73837583D01*
X64878155Y-73818875D01*
X64823482Y-73768512D01*
X64763022Y-73725465D01*
X64693182Y-73688473D01*
X64610370Y-73656273D01*
X64510992Y-73627602D01*
X64391455Y-73601198D01*
X64248166Y-73575800D01*
X64077531Y-73550145D01*
X63881134Y-73521227D01*
X63691274Y-73490173D01*
X63525260Y-73459044D01*
X63379382Y-73426942D01*
X63249927Y-73392969D01*
X63133183Y-73356226D01*
X63025440Y-73315817D01*
X62922985Y-73270843D01*
X62847688Y-73233754D01*
X62775765Y-73194725D01*
X62718886Y-73159882D01*
X62681499Y-73131965D01*
X62668049Y-73113714D01*
X62668446Y-73112370D01*
X62679280Y-73090862D01*
X62703845Y-73045822D01*
X62740685Y-72979772D01*
X62788347Y-72895233D01*
X62845376Y-72794727D01*
X62910318Y-72680776D01*
X62981719Y-72555901D01*
X63058124Y-72422624D01*
X63138079Y-72283467D01*
X63220130Y-72140951D01*
X63302822Y-71997598D01*
X63384701Y-71855930D01*
X63464313Y-71718468D01*
X63540204Y-71587734D01*
X63610919Y-71466250D01*
X63675004Y-71356538D01*
X63731004Y-71261118D01*
X63777466Y-71182514D01*
X63812935Y-71123245D01*
X63835957Y-71085835D01*
X63845077Y-71072805D01*
X63845560Y-71073175D01*
G37*
X65710047Y-74296040D02*
X65715802Y-74304625D01*
X65736365Y-74338346D01*
X65770179Y-74395200D01*
X65815950Y-74472968D01*
X65872383Y-74569432D01*
X65938184Y-74682371D01*
X66012058Y-74809568D01*
X66092711Y-74948803D01*
X66178848Y-75097857D01*
X66269175Y-75254512D01*
X66293947Y-75297521D01*
X66391900Y-75467575D01*
X66490509Y-75638754D01*
X66587760Y-75807562D01*
X66681638Y-75970503D01*
X66770131Y-76124082D01*
X66851222Y-76264801D01*
X66922898Y-76389166D01*
X66983144Y-76493680D01*
X67029947Y-76574847D01*
X67251030Y-76958171D01*
X64151076Y-76958171D01*
X64022921Y-76958159D01*
X63717500Y-76958042D01*
X63421432Y-76957802D01*
X63136159Y-76957444D01*
X62863123Y-76956976D01*
X62603765Y-76956403D01*
X62359527Y-76955732D01*
X62131849Y-76954968D01*
X61922174Y-76954119D01*
X61731943Y-76953189D01*
X61562597Y-76952186D01*
X61415578Y-76951115D01*
X61292327Y-76949983D01*
X61194286Y-76948796D01*
X61122896Y-76947559D01*
X61079598Y-76946280D01*
X61065835Y-76944963D01*
X61076054Y-76938304D01*
X61111311Y-76917083D01*
X61169221Y-76882920D01*
X61247430Y-76837171D01*
X61343583Y-76781190D01*
X61455323Y-76716333D01*
X61580296Y-76643954D01*
X61716146Y-76565409D01*
X61860518Y-76482054D01*
X62011056Y-76395243D01*
X62165405Y-76306332D01*
X62321210Y-76216676D01*
X62476116Y-76127629D01*
X62627766Y-76040548D01*
X62773806Y-75956788D01*
X62911881Y-75877703D01*
X63039634Y-75804649D01*
X63154711Y-75738981D01*
X63254756Y-75682054D01*
X63337414Y-75635224D01*
X63400329Y-75599846D01*
X63441147Y-75577274D01*
X63457511Y-75568864D01*
X63468189Y-75570949D01*
X63500358Y-75589908D01*
X63546221Y-75625032D01*
X63600740Y-75672669D01*
X63649845Y-75720356D01*
X63712389Y-75785316D01*
X63782368Y-75861155D01*
X63856196Y-75943698D01*
X63930285Y-76028768D01*
X64001048Y-76112190D01*
X64064898Y-76189789D01*
X64118247Y-76257389D01*
X64157509Y-76310814D01*
X64179095Y-76345889D01*
X64193506Y-76371505D01*
X64232643Y-76424516D01*
X64282958Y-76480912D01*
X64337276Y-76533462D01*
X64388424Y-76574930D01*
X64429227Y-76598086D01*
X64474292Y-76603438D01*
X64534426Y-76588645D01*
X64591579Y-76554726D01*
X64635933Y-76506053D01*
X64643613Y-76493425D01*
X64653392Y-76472743D01*
X64659765Y-76447854D01*
X64663142Y-76413409D01*
X64663931Y-76364062D01*
X64662541Y-76294464D01*
X64659381Y-76199268D01*
X64657116Y-76144202D01*
X64652304Y-76057117D01*
X64646625Y-75980899D01*
X64640608Y-75922249D01*
X64634783Y-75887866D01*
X64620679Y-75848588D01*
X64578866Y-75771240D01*
X64513895Y-75679591D01*
X64424970Y-75572567D01*
X64311300Y-75449090D01*
X64261972Y-75397066D01*
X64204938Y-75335696D01*
X64157864Y-75283665D01*
X64124624Y-75245266D01*
X64109089Y-75224796D01*
X64107492Y-75221546D01*
X64105577Y-75207553D01*
X64115145Y-75192039D01*
X64140115Y-75171659D01*
X64184406Y-75143071D01*
X64251938Y-75102932D01*
X64309347Y-75069422D01*
X64414992Y-75008123D01*
X64498171Y-74960509D01*
X64561678Y-74925033D01*
X64608306Y-74900149D01*
X64640850Y-74884313D01*
X64662104Y-74875977D01*
X64684097Y-74866728D01*
X64696951Y-74854307D01*
X64698154Y-74851378D01*
X64716961Y-74835084D01*
X64751335Y-74814098D01*
X64805719Y-74784810D01*
X64845874Y-74822192D01*
X64860057Y-74837336D01*
X64893055Y-74878493D01*
X64933346Y-74933445D01*
X64975182Y-74994531D01*
X65064336Y-75129489D01*
X65060837Y-75479362D01*
X65057339Y-75829235D01*
X65006393Y-75878733D01*
X64989274Y-75896379D01*
X64934376Y-75975660D01*
X64902330Y-76069935D01*
X64891412Y-76183780D01*
X64894123Y-76244779D01*
X64913261Y-76352378D01*
X64948141Y-76450583D01*
X64995742Y-76529382D01*
X65028795Y-76558114D01*
X65087549Y-76579937D01*
X65154061Y-76582454D01*
X65219816Y-76566828D01*
X65276301Y-76534220D01*
X65315003Y-76485793D01*
X65316270Y-76483168D01*
X65339663Y-76435225D01*
X65364439Y-76385122D01*
X65385472Y-76338087D01*
X65415644Y-76258810D01*
X65448932Y-76161072D01*
X65484179Y-76049228D01*
X65520229Y-75927634D01*
X65555925Y-75800645D01*
X65590110Y-75672616D01*
X65621627Y-75547902D01*
X65649320Y-75430859D01*
X65672032Y-75325843D01*
X65688606Y-75237209D01*
X65697885Y-75169312D01*
X65698714Y-75126507D01*
X65696847Y-75116782D01*
X65678658Y-75067556D01*
X65644907Y-75001699D01*
X65598555Y-74925165D01*
X65580764Y-74897585D01*
X65509282Y-74785122D01*
X65448520Y-74686772D01*
X65399817Y-74604832D01*
X65364514Y-74541605D01*
X65343952Y-74499390D01*
X65339469Y-74480487D01*
X65339988Y-74479820D01*
X65358545Y-74466205D01*
X65398202Y-74441319D01*
X65453526Y-74408476D01*
X65519084Y-74370988D01*
X65524626Y-74367876D01*
X65595807Y-74328712D01*
X65645381Y-74303736D01*
X65677906Y-74291158D01*
X65697942Y-74289189D01*
X65710047Y-74296040D01*
G36*
X65710047Y-74296040D02*
G01*
X65715802Y-74304625D01*
X65736365Y-74338346D01*
X65770179Y-74395200D01*
X65815950Y-74472968D01*
X65872383Y-74569432D01*
X65938184Y-74682371D01*
X66012058Y-74809568D01*
X66092711Y-74948803D01*
X66178848Y-75097857D01*
X66269175Y-75254512D01*
X66293947Y-75297521D01*
X66391900Y-75467575D01*
X66490509Y-75638754D01*
X66587760Y-75807562D01*
X66681638Y-75970503D01*
X66770131Y-76124082D01*
X66851222Y-76264801D01*
X66922898Y-76389166D01*
X66983144Y-76493680D01*
X67029947Y-76574847D01*
X67251030Y-76958171D01*
X64151076Y-76958171D01*
X64022921Y-76958159D01*
X63717500Y-76958042D01*
X63421432Y-76957802D01*
X63136159Y-76957444D01*
X62863123Y-76956976D01*
X62603765Y-76956403D01*
X62359527Y-76955732D01*
X62131849Y-76954968D01*
X61922174Y-76954119D01*
X61731943Y-76953189D01*
X61562597Y-76952186D01*
X61415578Y-76951115D01*
X61292327Y-76949983D01*
X61194286Y-76948796D01*
X61122896Y-76947559D01*
X61079598Y-76946280D01*
X61065835Y-76944963D01*
X61076054Y-76938304D01*
X61111311Y-76917083D01*
X61169221Y-76882920D01*
X61247430Y-76837171D01*
X61343583Y-76781190D01*
X61455323Y-76716333D01*
X61580296Y-76643954D01*
X61716146Y-76565409D01*
X61860518Y-76482054D01*
X62011056Y-76395243D01*
X62165405Y-76306332D01*
X62321210Y-76216676D01*
X62476116Y-76127629D01*
X62627766Y-76040548D01*
X62773806Y-75956788D01*
X62911881Y-75877703D01*
X63039634Y-75804649D01*
X63154711Y-75738981D01*
X63254756Y-75682054D01*
X63337414Y-75635224D01*
X63400329Y-75599846D01*
X63441147Y-75577274D01*
X63457511Y-75568864D01*
X63468189Y-75570949D01*
X63500358Y-75589908D01*
X63546221Y-75625032D01*
X63600740Y-75672669D01*
X63649845Y-75720356D01*
X63712389Y-75785316D01*
X63782368Y-75861155D01*
X63856196Y-75943698D01*
X63930285Y-76028768D01*
X64001048Y-76112190D01*
X64064898Y-76189789D01*
X64118247Y-76257389D01*
X64157509Y-76310814D01*
X64179095Y-76345889D01*
X64193506Y-76371505D01*
X64232643Y-76424516D01*
X64282958Y-76480912D01*
X64337276Y-76533462D01*
X64388424Y-76574930D01*
X64429227Y-76598086D01*
X64474292Y-76603438D01*
X64534426Y-76588645D01*
X64591579Y-76554726D01*
X64635933Y-76506053D01*
X64643613Y-76493425D01*
X64653392Y-76472743D01*
X64659765Y-76447854D01*
X64663142Y-76413409D01*
X64663931Y-76364062D01*
X64662541Y-76294464D01*
X64659381Y-76199268D01*
X64657116Y-76144202D01*
X64652304Y-76057117D01*
X64646625Y-75980899D01*
X64640608Y-75922249D01*
X64634783Y-75887866D01*
X64620679Y-75848588D01*
X64578866Y-75771240D01*
X64513895Y-75679591D01*
X64424970Y-75572567D01*
X64311300Y-75449090D01*
X64261972Y-75397066D01*
X64204938Y-75335696D01*
X64157864Y-75283665D01*
X64124624Y-75245266D01*
X64109089Y-75224796D01*
X64107492Y-75221546D01*
X64105577Y-75207553D01*
X64115145Y-75192039D01*
X64140115Y-75171659D01*
X64184406Y-75143071D01*
X64251938Y-75102932D01*
X64309347Y-75069422D01*
X64414992Y-75008123D01*
X64498171Y-74960509D01*
X64561678Y-74925033D01*
X64608306Y-74900149D01*
X64640850Y-74884313D01*
X64662104Y-74875977D01*
X64684097Y-74866728D01*
X64696951Y-74854307D01*
X64698154Y-74851378D01*
X64716961Y-74835084D01*
X64751335Y-74814098D01*
X64805719Y-74784810D01*
X64845874Y-74822192D01*
X64860057Y-74837336D01*
X64893055Y-74878493D01*
X64933346Y-74933445D01*
X64975182Y-74994531D01*
X65064336Y-75129489D01*
X65060837Y-75479362D01*
X65057339Y-75829235D01*
X65006393Y-75878733D01*
X64989274Y-75896379D01*
X64934376Y-75975660D01*
X64902330Y-76069935D01*
X64891412Y-76183780D01*
X64894123Y-76244779D01*
X64913261Y-76352378D01*
X64948141Y-76450583D01*
X64995742Y-76529382D01*
X65028795Y-76558114D01*
X65087549Y-76579937D01*
X65154061Y-76582454D01*
X65219816Y-76566828D01*
X65276301Y-76534220D01*
X65315003Y-76485793D01*
X65316270Y-76483168D01*
X65339663Y-76435225D01*
X65364439Y-76385122D01*
X65385472Y-76338087D01*
X65415644Y-76258810D01*
X65448932Y-76161072D01*
X65484179Y-76049228D01*
X65520229Y-75927634D01*
X65555925Y-75800645D01*
X65590110Y-75672616D01*
X65621627Y-75547902D01*
X65649320Y-75430859D01*
X65672032Y-75325843D01*
X65688606Y-75237209D01*
X65697885Y-75169312D01*
X65698714Y-75126507D01*
X65696847Y-75116782D01*
X65678658Y-75067556D01*
X65644907Y-75001699D01*
X65598555Y-74925165D01*
X65580764Y-74897585D01*
X65509282Y-74785122D01*
X65448520Y-74686772D01*
X65399817Y-74604832D01*
X65364514Y-74541605D01*
X65343952Y-74499390D01*
X65339469Y-74480487D01*
X65339988Y-74479820D01*
X65358545Y-74466205D01*
X65398202Y-74441319D01*
X65453526Y-74408476D01*
X65519084Y-74370988D01*
X65524626Y-74367876D01*
X65595807Y-74328712D01*
X65645381Y-74303736D01*
X65677906Y-74291158D01*
X65697942Y-74289189D01*
X65710047Y-74296040D01*
G37*
D13*
%TO.C,TP11*%
X72700000Y-49800000D02*
G75*
G02*
X71300000Y-49800000I-700000J0D01*
G01*
X71300000Y-49800000D02*
G75*
G02*
X72700000Y-49800000I700000J0D01*
G01*
%TO.C,TP9*%
X75700000Y-49800000D02*
G75*
G02*
X74300000Y-49800000I-700000J0D01*
G01*
X74300000Y-49800000D02*
G75*
G02*
X75700000Y-49800000I700000J0D01*
G01*
%TO.C,TP6*%
X87700000Y-58800000D02*
G75*
G02*
X86300000Y-58800000I-700000J0D01*
G01*
X86300000Y-58800000D02*
G75*
G02*
X87700000Y-58800000I700000J0D01*
G01*
%TO.C,TP8*%
X66950000Y-68800000D02*
G75*
G02*
X65050000Y-68800000I-950000J0D01*
G01*
X65050000Y-68800000D02*
G75*
G02*
X66950000Y-68800000I950000J0D01*
G01*
%TO.C,TP2*%
X69950000Y-49800000D02*
G75*
G02*
X68050000Y-49800000I-950000J0D01*
G01*
X68050000Y-49800000D02*
G75*
G02*
X69950000Y-49800000I950000J0D01*
G01*
%TO.C,TP10*%
X74950000Y-83000000D02*
G75*
G02*
X73050000Y-83000000I-950000J0D01*
G01*
X73050000Y-83000000D02*
G75*
G02*
X74950000Y-83000000I950000J0D01*
G01*
%TO.C,TP7*%
X69950000Y-56800000D02*
G75*
G02*
X68050000Y-56800000I-950000J0D01*
G01*
X68050000Y-56800000D02*
G75*
G02*
X69950000Y-56800000I950000J0D01*
G01*
%TO.C,TP4*%
X87700000Y-52800000D02*
G75*
G02*
X86300000Y-52800000I-700000J0D01*
G01*
X86300000Y-52800000D02*
G75*
G02*
X87700000Y-52800000I700000J0D01*
G01*
%TO.C,TP1*%
X66950000Y-49800000D02*
G75*
G02*
X65050000Y-49800000I-950000J0D01*
G01*
X65050000Y-49800000D02*
G75*
G02*
X66950000Y-49800000I950000J0D01*
G01*
D11*
%TO.C,LOG1*%
G36*
X71603857Y-58595945D02*
G01*
X71507676Y-58595945D01*
X71507676Y-58507779D01*
X71603857Y-58507779D01*
X71603857Y-58595945D01*
G37*
G36*
X72389342Y-58515794D02*
G01*
X72229039Y-58515794D01*
X72229039Y-58355491D01*
X72389342Y-58355491D01*
X72389342Y-58515794D01*
G37*
G36*
X72846205Y-58107021D02*
G01*
X72645826Y-58107021D01*
X72645826Y-57898628D01*
X72846205Y-57898628D01*
X72846205Y-58107021D01*
G37*
G36*
X72846205Y-58732203D02*
G01*
X72669872Y-58732203D01*
X72669872Y-58555870D01*
X72846205Y-58555870D01*
X72846205Y-58732203D01*
G37*
G36*
X72902311Y-59237157D02*
G01*
X72830175Y-59237157D01*
X72830175Y-59173036D01*
X72902311Y-59173036D01*
X72902311Y-59237157D01*
G37*
G36*
X73375205Y-58331446D02*
G01*
X73142765Y-58331446D01*
X73142765Y-58099006D01*
X73375205Y-58099006D01*
X73375205Y-58331446D01*
G37*
G36*
X73295053Y-58916551D02*
G01*
X73158796Y-58916551D01*
X73158796Y-58772279D01*
X73295053Y-58772279D01*
X73295053Y-58916551D01*
G37*
G36*
X73695811Y-57842522D02*
G01*
X73415280Y-57842522D01*
X73415280Y-57561992D01*
X73695811Y-57561992D01*
X73695811Y-57842522D01*
G37*
G36*
X73904204Y-58539839D02*
G01*
X73623674Y-58539839D01*
X73623674Y-58259309D01*
X73904204Y-58259309D01*
X73904204Y-58539839D01*
G37*
G36*
X74681674Y-58860445D02*
G01*
X74409159Y-58860445D01*
X74409159Y-58587930D01*
X74681674Y-58587930D01*
X74681674Y-58860445D01*
G37*
G36*
X74681674Y-60303172D02*
G01*
X74409159Y-60303172D01*
X74409159Y-59157006D01*
X74681674Y-59157006D01*
X74681674Y-60303172D01*
G37*
G36*
X74954189Y-58307400D02*
G01*
X74777855Y-58307400D01*
X74777855Y-58131067D01*
X74954189Y-58131067D01*
X74954189Y-58307400D01*
G37*
G36*
X77903763Y-60303172D02*
G01*
X77631248Y-60303172D01*
X77631248Y-58587930D01*
X77903763Y-58587930D01*
X77903763Y-60303172D01*
G37*
G36*
X72517584Y-59165021D02*
G01*
X72356701Y-59165021D01*
X72361289Y-59008725D01*
X72439436Y-59006431D01*
X72517584Y-59004137D01*
X72517584Y-59165021D01*
G37*
G36*
X74433204Y-58083355D02*
G01*
X74294943Y-58081162D01*
X74156682Y-58078968D01*
X74154488Y-57940707D01*
X74152295Y-57802446D01*
X74433204Y-57802446D01*
X74433204Y-58083355D01*
G37*
G36*
X72032668Y-58792317D02*
G01*
X72035084Y-58843571D01*
X72035726Y-58868564D01*
X72035154Y-58892368D01*
X72033332Y-58905688D01*
X72025986Y-58911649D01*
X72006375Y-58915383D01*
X71972806Y-58916551D01*
X71916448Y-58916551D01*
X71916448Y-58787607D01*
X72032668Y-58792317D01*
G37*
G36*
X75401446Y-58563041D02*
G01*
X75402072Y-58588032D01*
X75401452Y-58611991D01*
X75399558Y-58625511D01*
X75398310Y-58627742D01*
X75389038Y-58632772D01*
X75369557Y-58634848D01*
X75337028Y-58634371D01*
X75278802Y-58632014D01*
X75278802Y-58511786D01*
X75399029Y-58511786D01*
X75401446Y-58563041D01*
G37*
G36*
X73875495Y-59143679D02*
G01*
X73946844Y-59167738D01*
X74011791Y-59204756D01*
X74068172Y-59254206D01*
X74100241Y-59295500D01*
X74130875Y-59355874D01*
X74148404Y-59421043D01*
X74152070Y-59487901D01*
X74141117Y-59553341D01*
X74138319Y-59562555D01*
X74121224Y-59605747D01*
X74098040Y-59644260D01*
X74067173Y-59679450D01*
X74027030Y-59712675D01*
X73976016Y-59745293D01*
X73912538Y-59778662D01*
X73835003Y-59814139D01*
X73821484Y-59820067D01*
X73780328Y-59838729D01*
X73742996Y-59856512D01*
X73713140Y-59871642D01*
X73694415Y-59882349D01*
X73679162Y-59893937D01*
X73655111Y-59919000D01*
X73638158Y-59945573D01*
X73631719Y-59968937D01*
X73631759Y-59971014D01*
X73640228Y-59999674D01*
X73661751Y-60027908D01*
X73693851Y-60052387D01*
X73706432Y-60059424D01*
X73729324Y-60069009D01*
X73754181Y-60073488D01*
X73787985Y-60074502D01*
X73828832Y-60071496D01*
X73868379Y-60060740D01*
X73907577Y-60040366D01*
X73951035Y-60008507D01*
X73985843Y-59980274D01*
X74091300Y-60031113D01*
X74107720Y-60039036D01*
X74143215Y-60056225D01*
X74172155Y-60070322D01*
X74191909Y-60080045D01*
X74199847Y-60084107D01*
X74200318Y-60087935D01*
X74192724Y-60102067D01*
X74176057Y-60124312D01*
X74151799Y-60152754D01*
X74121432Y-60185477D01*
X74072722Y-60230885D01*
X74008306Y-60275382D01*
X73937816Y-60306977D01*
X73858010Y-60327415D01*
X73834659Y-60330119D01*
X73799341Y-60331486D01*
X73763939Y-60330576D01*
X73692022Y-60320549D01*
X73620772Y-60297209D01*
X73555806Y-60259990D01*
X73494872Y-60207868D01*
X73471120Y-60182132D01*
X73428133Y-60120806D01*
X73400503Y-60055892D01*
X73388409Y-59987902D01*
X73392033Y-59917344D01*
X73399469Y-59881521D01*
X73417553Y-59829982D01*
X73444508Y-59783187D01*
X73481510Y-59740047D01*
X73529736Y-59699471D01*
X73590363Y-59660367D01*
X73664565Y-59621646D01*
X73753521Y-59582217D01*
X73777987Y-59571501D01*
X73828865Y-59544693D01*
X73867726Y-59517127D01*
X73892615Y-59490098D01*
X73898499Y-59479750D01*
X73901458Y-59463585D01*
X73896244Y-59441709D01*
X73894523Y-59436893D01*
X73880915Y-59414507D01*
X73859081Y-59399861D01*
X73826632Y-59391868D01*
X73781182Y-59389445D01*
X73756302Y-59389887D01*
X73727875Y-59392972D01*
X73703088Y-59400473D01*
X73674583Y-59414094D01*
X73651865Y-59426647D01*
X73622862Y-59444178D01*
X73600998Y-59459070D01*
X73574315Y-59479395D01*
X73552907Y-59459989D01*
X73540819Y-59449092D01*
X73518595Y-59429146D01*
X73490676Y-59404146D01*
X73460415Y-59377096D01*
X73389331Y-59313610D01*
X73424193Y-59282672D01*
X73439819Y-59269518D01*
X73488430Y-59234421D01*
X73543562Y-59201032D01*
X73599402Y-59172694D01*
X73650137Y-59152748D01*
X73722257Y-59136539D01*
X73799911Y-59133104D01*
X73875495Y-59143679D01*
G37*
G36*
X79333311Y-59604651D02*
G01*
X79344954Y-59696708D01*
X79343727Y-59790088D01*
X79329450Y-59881890D01*
X79301943Y-59969215D01*
X79278583Y-60019195D01*
X79228853Y-60096754D01*
X79167281Y-60165644D01*
X79095626Y-60224509D01*
X79015646Y-60271992D01*
X78929102Y-60306734D01*
X78837752Y-60327379D01*
X78831878Y-60328119D01*
X78797892Y-60330540D01*
X78757179Y-60331330D01*
X78717300Y-60330306D01*
X78702558Y-60329395D01*
X78601025Y-60315926D01*
X78508789Y-60289990D01*
X78424428Y-60250948D01*
X78346518Y-60198161D01*
X78273638Y-60130990D01*
X78256227Y-60112293D01*
X78235639Y-60089026D01*
X78221566Y-60071646D01*
X78216353Y-60062940D01*
X78217028Y-60061721D01*
X78226632Y-60052414D01*
X78245516Y-60036322D01*
X78270988Y-60015547D01*
X78300356Y-59992196D01*
X78330928Y-59968371D01*
X78360013Y-59946178D01*
X78384919Y-59927721D01*
X78402956Y-59915103D01*
X78411430Y-59910429D01*
X78413556Y-59911766D01*
X78424991Y-59921668D01*
X78443706Y-59939113D01*
X78466971Y-59961587D01*
X78482746Y-59976420D01*
X78543913Y-60022410D01*
X78609758Y-60053895D01*
X78682450Y-60071986D01*
X78700314Y-60074294D01*
X78773768Y-60074855D01*
X78843934Y-60061618D01*
X78908956Y-60035721D01*
X78966975Y-59998299D01*
X79016134Y-59950493D01*
X79054573Y-59893439D01*
X79080436Y-59828274D01*
X79088712Y-59798217D01*
X78157977Y-59798217D01*
X78162550Y-59712055D01*
X78172772Y-59619038D01*
X78186148Y-59565778D01*
X78463917Y-59565778D01*
X78758647Y-59565778D01*
X78825277Y-59565642D01*
X78886526Y-59565266D01*
X78940618Y-59564680D01*
X78985779Y-59563915D01*
X79020235Y-59563000D01*
X79042209Y-59561965D01*
X79049929Y-59560841D01*
X79048081Y-59555249D01*
X79037831Y-59538887D01*
X79021334Y-59517164D01*
X79001723Y-59493902D01*
X78982130Y-59472925D01*
X78965689Y-59458055D01*
X78950591Y-59447673D01*
X78921690Y-59430552D01*
X78891513Y-59415035D01*
X78870664Y-59405923D01*
X78850233Y-59399388D01*
X78827616Y-59395631D01*
X78798200Y-59393912D01*
X78757376Y-59393490D01*
X78748455Y-59393495D01*
X78710919Y-59393985D01*
X78683752Y-59395866D01*
X78662217Y-59399971D01*
X78641582Y-59407135D01*
X78617111Y-59418192D01*
X78591986Y-59431860D01*
X78547315Y-59464026D01*
X78507687Y-59502004D01*
X78478396Y-59541105D01*
X78463917Y-59565778D01*
X78186148Y-59565778D01*
X78194878Y-59531014D01*
X78229546Y-59450739D01*
X78277701Y-59376096D01*
X78340267Y-59304965D01*
X78408046Y-59245027D01*
X78484333Y-59195213D01*
X78565128Y-59160280D01*
X78651661Y-59139703D01*
X78745163Y-59132960D01*
X78766135Y-59133187D01*
X78852921Y-59140004D01*
X78930875Y-59157069D01*
X79003626Y-59185404D01*
X79074799Y-59226035D01*
X79097656Y-59242329D01*
X79145721Y-59283242D01*
X79193286Y-59331355D01*
X79235758Y-59381838D01*
X79268546Y-59429860D01*
X79272134Y-59436101D01*
X79308978Y-59516815D01*
X79321174Y-59560841D01*
X79333311Y-59604651D01*
G37*
G36*
X76063530Y-59187063D02*
G01*
X76056590Y-59196133D01*
X76039740Y-59217949D01*
X76015354Y-59249404D01*
X75984755Y-59288794D01*
X75949266Y-59334416D01*
X75910213Y-59384564D01*
X75868919Y-59437536D01*
X75835229Y-59480734D01*
X75797153Y-59529565D01*
X75763024Y-59573343D01*
X75734025Y-59610551D01*
X75711338Y-59639670D01*
X75696146Y-59659185D01*
X75689632Y-59667578D01*
X75689525Y-59669708D01*
X75695324Y-59681889D01*
X75709728Y-59704517D01*
X75732982Y-59737930D01*
X75765328Y-59782466D01*
X75807010Y-59838463D01*
X75858273Y-59906259D01*
X75919359Y-59986192D01*
X75923799Y-59991979D01*
X75970655Y-60053135D01*
X76014312Y-60110270D01*
X76053831Y-60162144D01*
X76088272Y-60207516D01*
X76116695Y-60245145D01*
X76138161Y-60273792D01*
X76151729Y-60292216D01*
X76156461Y-60299176D01*
X76156047Y-60299461D01*
X76145100Y-60300640D01*
X76121053Y-60301659D01*
X76086290Y-60302459D01*
X76043195Y-60302982D01*
X75994154Y-60303168D01*
X75831847Y-60303165D01*
X75675798Y-60102707D01*
X75654962Y-60076021D01*
X75618193Y-60029338D01*
X75585140Y-59987894D01*
X75557019Y-59953180D01*
X75535042Y-59926688D01*
X75520423Y-59909909D01*
X75514376Y-59904336D01*
X75513737Y-59904851D01*
X75505459Y-59914377D01*
X75489019Y-59934630D01*
X75465687Y-59964003D01*
X75436732Y-60000889D01*
X75403426Y-60043680D01*
X75367038Y-60090770D01*
X75359455Y-60100612D01*
X75322961Y-60147839D01*
X75289372Y-60191087D01*
X75260059Y-60228607D01*
X75236391Y-60258651D01*
X75219737Y-60279470D01*
X75211468Y-60289316D01*
X75205733Y-60294010D01*
X75197097Y-60297584D01*
X75183511Y-60300016D01*
X75162760Y-60301456D01*
X75132628Y-60302055D01*
X75090901Y-60301966D01*
X75035364Y-60301339D01*
X74872865Y-60299164D01*
X75109839Y-59990581D01*
X75114080Y-59985058D01*
X75160945Y-59923937D01*
X75204612Y-59866831D01*
X75244142Y-59814981D01*
X75278592Y-59769627D01*
X75307024Y-59732010D01*
X75328495Y-59703371D01*
X75342067Y-59684951D01*
X75346797Y-59677990D01*
X75346212Y-59676925D01*
X75338309Y-59665840D01*
X75321987Y-59643926D01*
X75298286Y-59612550D01*
X75268246Y-59573079D01*
X75232906Y-59526880D01*
X75193306Y-59475321D01*
X75150485Y-59419770D01*
X75135363Y-59400174D01*
X75093535Y-59345826D01*
X75055290Y-59295928D01*
X75021666Y-59251848D01*
X74993705Y-59214957D01*
X74972444Y-59186625D01*
X74958926Y-59168222D01*
X74954189Y-59161119D01*
X74954846Y-59160732D01*
X74966652Y-59159599D01*
X74991449Y-59158811D01*
X75026878Y-59158402D01*
X75070584Y-59158403D01*
X75120208Y-59158847D01*
X75286228Y-59161013D01*
X75396983Y-59305286D01*
X75413895Y-59327249D01*
X75444492Y-59366619D01*
X75471206Y-59400524D01*
X75492582Y-59427143D01*
X75507164Y-59444650D01*
X75513497Y-59451223D01*
X75516291Y-59449219D01*
X75527866Y-59436729D01*
X75546881Y-59414317D01*
X75571900Y-59383723D01*
X75601488Y-59346686D01*
X75634209Y-59304946D01*
X75749161Y-59157006D01*
X76086227Y-59157006D01*
X76063530Y-59187063D01*
G37*
G36*
X77373495Y-59574831D02*
G01*
X77379562Y-59597519D01*
X77383362Y-59620439D01*
X77385412Y-59647542D01*
X77386223Y-59682775D01*
X77386309Y-59730089D01*
X77386280Y-59742078D01*
X77385877Y-59786612D01*
X77384622Y-59820206D01*
X77381963Y-59847015D01*
X77377352Y-59871191D01*
X77370239Y-59896886D01*
X77360074Y-59928255D01*
X77324545Y-60012438D01*
X77274749Y-60092517D01*
X77213487Y-60163159D01*
X77142198Y-60223161D01*
X77062322Y-60271321D01*
X76975297Y-60306435D01*
X76882564Y-60327300D01*
X76862864Y-60329476D01*
X76806413Y-60331380D01*
X76743501Y-60328701D01*
X76680329Y-60321823D01*
X76623100Y-60311135D01*
X76556835Y-60292049D01*
X76484966Y-60261685D01*
X76418685Y-60221414D01*
X76354938Y-60169327D01*
X76290673Y-60103520D01*
X76252561Y-60060893D01*
X76352593Y-59985661D01*
X76373037Y-59970336D01*
X76405015Y-59946592D01*
X76430982Y-59927597D01*
X76448683Y-59914995D01*
X76455863Y-59910429D01*
X76457963Y-59911768D01*
X76469348Y-59921672D01*
X76488027Y-59939116D01*
X76511275Y-59961587D01*
X76527585Y-59976796D01*
X76591200Y-60023390D01*
X76659893Y-60055686D01*
X76732003Y-60073403D01*
X76805870Y-60076260D01*
X76879835Y-60063976D01*
X76952239Y-60036270D01*
X76980400Y-60020212D01*
X77030780Y-59980537D01*
X77073130Y-59932468D01*
X77104805Y-59879284D01*
X77123161Y-59824267D01*
X77128297Y-59798217D01*
X76202281Y-59798217D01*
X76206838Y-59712055D01*
X76209033Y-59678628D01*
X76216193Y-59619101D01*
X76228318Y-59565970D01*
X76230247Y-59560507D01*
X76509127Y-59560507D01*
X76509131Y-59560535D01*
X76517185Y-59561734D01*
X76539454Y-59562836D01*
X76574162Y-59563810D01*
X76619535Y-59564623D01*
X76673797Y-59565244D01*
X76735173Y-59565639D01*
X76801886Y-59565778D01*
X77094644Y-59565778D01*
X77081764Y-59540870D01*
X77062022Y-59511540D01*
X77028320Y-59476485D01*
X76987361Y-59444308D01*
X76943554Y-59418896D01*
X76937063Y-59415840D01*
X76913382Y-59405497D01*
X76892780Y-59398943D01*
X76870479Y-59395322D01*
X76841705Y-59393777D01*
X76801680Y-59393453D01*
X76754233Y-59394554D01*
X76711679Y-59399204D01*
X76676189Y-59408715D01*
X76643110Y-59424384D01*
X76607790Y-59447508D01*
X76591430Y-59461088D01*
X76569889Y-59482175D01*
X76547855Y-59506134D01*
X76528362Y-59529491D01*
X76514441Y-59548774D01*
X76509127Y-59560507D01*
X76230247Y-59560507D01*
X76247054Y-59512903D01*
X76274048Y-59453566D01*
X76287366Y-59427320D01*
X76305374Y-59396206D01*
X76325228Y-59368531D01*
X76350362Y-59339661D01*
X76384209Y-59304965D01*
X76384291Y-59304883D01*
X76457180Y-59241175D01*
X76532945Y-59192792D01*
X76613131Y-59159084D01*
X76699283Y-59139403D01*
X76792943Y-59133099D01*
X76864448Y-59136078D01*
X76931794Y-59146363D01*
X76995735Y-59165296D01*
X77062172Y-59194218D01*
X77088272Y-59207535D01*
X77119416Y-59225641D01*
X77147068Y-59245560D01*
X77175868Y-59270747D01*
X77210452Y-59304656D01*
X77242164Y-59337835D01*
X77281694Y-59384735D01*
X77312734Y-59430843D01*
X77338333Y-59480898D01*
X77361537Y-59539639D01*
X77364650Y-59548427D01*
X77370462Y-59565778D01*
X77373495Y-59574831D01*
G37*
G36*
X80204611Y-59061524D02*
G01*
X80225793Y-59112284D01*
X80264348Y-59204647D01*
X80301011Y-59292442D01*
X80335305Y-59374534D01*
X80366756Y-59449785D01*
X80394888Y-59517060D01*
X80419226Y-59575222D01*
X80439295Y-59623134D01*
X80454620Y-59659660D01*
X80464725Y-59683664D01*
X80469134Y-59694009D01*
X80478097Y-59714035D01*
X80488382Y-59694009D01*
X80489912Y-59690705D01*
X80497408Y-59673513D01*
X80510379Y-59643236D01*
X80528341Y-59601014D01*
X80550814Y-59547989D01*
X80577315Y-59485300D01*
X80607362Y-59414089D01*
X80640473Y-59335496D01*
X80676166Y-59250662D01*
X80713960Y-59160729D01*
X80753371Y-59066835D01*
X80774245Y-59017116D01*
X80812602Y-58925959D01*
X80848983Y-58839760D01*
X80882922Y-58759610D01*
X80913951Y-58686604D01*
X80941602Y-58621833D01*
X80965410Y-58566391D01*
X80984907Y-58521369D01*
X80999626Y-58487861D01*
X81009100Y-58466960D01*
X81012862Y-58459757D01*
X81014120Y-58463022D01*
X81019232Y-58480237D01*
X81027972Y-58511386D01*
X81040085Y-58555516D01*
X81055317Y-58611673D01*
X81073412Y-58678904D01*
X81094114Y-58756256D01*
X81117170Y-58842774D01*
X81142325Y-58937506D01*
X81169322Y-59039497D01*
X81197908Y-59147795D01*
X81227827Y-59261445D01*
X81258824Y-59379495D01*
X81500000Y-60299164D01*
X81367625Y-60301368D01*
X81355519Y-60301548D01*
X81304061Y-60301698D01*
X81265282Y-60300688D01*
X81240290Y-60298568D01*
X81230190Y-60295385D01*
X81229661Y-60294019D01*
X81225536Y-60280087D01*
X81217861Y-60252401D01*
X81206986Y-60212279D01*
X81193263Y-60161039D01*
X81177041Y-60100000D01*
X81158672Y-60030481D01*
X81138506Y-59953798D01*
X81116895Y-59871272D01*
X81094188Y-59784220D01*
X81086291Y-59753910D01*
X81063939Y-59668384D01*
X81042806Y-59587907D01*
X81023242Y-59513789D01*
X81005597Y-59447338D01*
X80990220Y-59389862D01*
X80977461Y-59342671D01*
X80967669Y-59307072D01*
X80961194Y-59284376D01*
X80958386Y-59275889D01*
X80958189Y-59275932D01*
X80953488Y-59284471D01*
X80943184Y-59306516D01*
X80927763Y-59340945D01*
X80907708Y-59386639D01*
X80883502Y-59442476D01*
X80855629Y-59507338D01*
X80824574Y-59580102D01*
X80790819Y-59659650D01*
X80754849Y-59744860D01*
X80717147Y-59834613D01*
X80711178Y-59848853D01*
X80673719Y-59937960D01*
X80638072Y-60022343D01*
X80604718Y-60100883D01*
X80574143Y-60172460D01*
X80546829Y-60235954D01*
X80523258Y-60290247D01*
X80503915Y-60334218D01*
X80489283Y-60366749D01*
X80479845Y-60386719D01*
X80476085Y-60393009D01*
X80476068Y-60392987D01*
X80472154Y-60384565D01*
X80462538Y-60362549D01*
X80447714Y-60328099D01*
X80428175Y-60282379D01*
X80404414Y-60226548D01*
X80376926Y-60161770D01*
X80346204Y-60089205D01*
X80312742Y-60010016D01*
X80277032Y-59925364D01*
X80239570Y-59836411D01*
X80238427Y-59833693D01*
X80201044Y-59745012D01*
X80165426Y-59660794D01*
X80132063Y-59582187D01*
X80101448Y-59510338D01*
X80074073Y-59446393D01*
X80050431Y-59391498D01*
X80031014Y-59346802D01*
X80016314Y-59313451D01*
X80006823Y-59292591D01*
X80003034Y-59285369D01*
X80002495Y-59286320D01*
X79998394Y-59299020D01*
X79990766Y-59325497D01*
X79979956Y-59364460D01*
X79966313Y-59414621D01*
X79950183Y-59474687D01*
X79931913Y-59543368D01*
X79911852Y-59619374D01*
X79890345Y-59701414D01*
X79867741Y-59788199D01*
X79859931Y-59818249D01*
X79837611Y-59903832D01*
X79816487Y-59984390D01*
X79796909Y-60058609D01*
X79779229Y-60125180D01*
X79763798Y-60182788D01*
X79750967Y-60230122D01*
X79741086Y-60265871D01*
X79734506Y-60288721D01*
X79731579Y-60297360D01*
X79726472Y-60298771D01*
X79707443Y-60300366D01*
X79677126Y-60301385D01*
X79638315Y-60301746D01*
X79593800Y-60301368D01*
X79461594Y-60299164D01*
X79696127Y-59405475D01*
X79709315Y-59355228D01*
X79739638Y-59239740D01*
X79768830Y-59128620D01*
X79796625Y-59022880D01*
X79822754Y-58923534D01*
X79846953Y-58831593D01*
X79868953Y-58748071D01*
X79888489Y-58673980D01*
X79905292Y-58610332D01*
X79919098Y-58558140D01*
X79929638Y-58518417D01*
X79936646Y-58492175D01*
X79939855Y-58480426D01*
X79949049Y-58449066D01*
X80204611Y-59061524D01*
G37*
D13*
%TO.C,TP3*%
X87700000Y-54800000D02*
G75*
G02*
X86300000Y-54800000I-700000J0D01*
G01*
X86300000Y-54800000D02*
G75*
G02*
X87700000Y-54800000I700000J0D01*
G01*
%TO.C,TP12*%
X75700000Y-56800000D02*
G75*
G02*
X74300000Y-56800000I-700000J0D01*
G01*
X74300000Y-56800000D02*
G75*
G02*
X75700000Y-56800000I700000J0D01*
G01*
%TO.C,TP5*%
X87700000Y-56800000D02*
G75*
G02*
X86300000Y-56800000I-700000J0D01*
G01*
X86300000Y-56800000D02*
G75*
G02*
X87700000Y-56800000I700000J0D01*
G01*
%TD*%
M02*
