%TF.GenerationSoftware,KiCad,Pcbnew,9.0.5-9.0.5~ubuntu24.04.1*%
%TF.CreationDate,2025-10-22T20:59:43+02:00*%
%TF.ProjectId,MCM-LIN,4d434d2d-4c49-44e2-9e6b-696361645f70,rev?*%
%TF.SameCoordinates,Original*%
%TF.FileFunction,Component,L1,Top*%
%TF.FilePolarity,Positive*%
%FSLAX46Y46*%
G04 Gerber Fmt 4.6, Leading zero omitted, Abs format (unit mm)*
G04 Created by KiCad (PCBNEW 9.0.5-9.0.5~ubuntu24.04.1) date 2025-10-22 20:59:43*
%MOMM*%
%LPD*%
G01*
G04 APERTURE LIST*
%TA.AperFunction,ComponentMain*%
%ADD10C,0.300000*%
%TD*%
%TA.AperFunction,ComponentOutline,Courtyard*%
%ADD11C,0.100000*%
%TD*%
%TA.AperFunction,ComponentPin*%
%ADD12P,0.360000X4X0.000000*%
%TD*%
%TA.AperFunction,ComponentPin*%
%ADD13C,0.100000*%
%TD*%
%TA.AperFunction,ComponentOutline,Footprint*%
%ADD14C,0.100000*%
%TD*%
G04 APERTURE END LIST*
D10*
%TO.C,D4*%
%TO.CFtp,D_SOD-323*%
%TO.CVal,MM3Z3V0ST1G*%
%TO.CLbN,Diode_SMD*%
%TO.CMnt,SMD*%
%TO.CRot,90*%
X74500000Y-72325000D03*
D11*
X75445000Y-70730000D02*
X75445000Y-73920000D01*
X73555000Y-73920000D01*
X73555000Y-70730000D01*
X75445000Y-70730000D01*
D12*
%TO.P,D4,1,K*%
X74500000Y-73375000D03*
D13*
%TO.P,D4,2,A*%
X74500000Y-71275000D03*
%TD*%
D10*
%TO.C,C25*%
%TO.CFtp,C_0603_1608Metric*%
%TO.CVal,100nF*%
%TO.CLbN,Capacitor_SMD*%
%TO.CMnt,SMD*%
%TO.CRot,180*%
X81875000Y-78750000D03*
D11*
X83350000Y-78025000D02*
X83350000Y-79475000D01*
X80400000Y-79475000D01*
X80400000Y-78025000D01*
X83350000Y-78025000D01*
D12*
%TO.P,C25,1*%
X82650000Y-78750000D03*
D13*
%TO.P,C25,2*%
X81100000Y-78750000D03*
%TD*%
D10*
%TO.C,R4*%
%TO.CFtp,R_0402_1005Metric*%
%TO.CVal,54k9*%
%TO.CLbN,Resistor_SMD*%
%TO.CMnt,SMD*%
%TO.CRot,90*%
X60921200Y-71973200D03*
D11*
X61386200Y-71048200D02*
X61386200Y-72898200D01*
X60456200Y-72898200D01*
X60456200Y-71048200D01*
X61386200Y-71048200D01*
D12*
%TO.P,R4,1*%
X60921200Y-72483200D03*
D13*
%TO.P,R4,2*%
X60921200Y-71463200D03*
%TD*%
D10*
%TO.C,J1*%
%TO.CFtp,USB_C_Receptacle_GCT_USB4105-xx-A_16P_TopMnt_Horizontal*%
%TO.CVal,USB4105-GF-A*%
%TO.CLbN,Connector_USB*%
%TO.CMnt,SMD*%
%TO.CRot,-90*%
X63700000Y-60700000D03*
D11*
X68455000Y-55385000D02*
X68455000Y-66015000D01*
X59525000Y-66015000D01*
X59525000Y-55385000D01*
X68455000Y-55385000D01*
D12*
%TO.P,J1,A1,GND*%
X67380000Y-57500000D03*
D13*
%TO.P,J1,*%
X66305000Y-57810000D03*
X66305000Y-63590000D03*
%TO.P,J1,A4,VBUS*%
X67380000Y-58300000D03*
%TO.P,J1,A5,CC1*%
X67380000Y-59450000D03*
%TO.P,J1,A6,D+*%
X67380000Y-60450000D03*
%TO.P,J1,A7,D-*%
X67380000Y-60950000D03*
%TO.P,J1,A8,SBU1*%
X67380000Y-61950000D03*
%TO.P,J1,A9,VBUS*%
X67380000Y-63100000D03*
%TO.P,J1,A12,GND*%
X67380000Y-63900000D03*
%TO.P,J1,B1,GND*%
X67380000Y-63900000D03*
%TO.P,J1,B4,VBUS*%
X67380000Y-63100000D03*
%TO.P,J1,B5,CC2*%
X67380000Y-62450000D03*
%TO.P,J1,B6,D+*%
X67380000Y-61450000D03*
%TO.P,J1,B7,D-*%
X67380000Y-59950000D03*
%TO.P,J1,B8,SBU2*%
X67380000Y-58950000D03*
%TO.P,J1,B9,VBUS*%
X67380000Y-58300000D03*
%TO.P,J1,B12,GND*%
X67380000Y-57500000D03*
%TO.P,J1,S1,SHIELD*%
X66805000Y-56380000D03*
X62625000Y-56380000D03*
X66805000Y-65020000D03*
X62625000Y-65020000D03*
%TD*%
D10*
%TO.C,R35*%
%TO.CFtp,R_0402_1005Metric*%
%TO.CVal,1k*%
%TO.CLbN,Resistor_SMD*%
%TO.CMnt,SMD*%
%TO.CRot,180*%
X86825000Y-67050000D03*
D11*
X87750000Y-66585000D02*
X87750000Y-67515000D01*
X85900000Y-67515000D01*
X85900000Y-66585000D01*
X87750000Y-66585000D01*
D12*
%TO.P,R35,1*%
X87335000Y-67050000D03*
D13*
%TO.P,R35,2*%
X86315000Y-67050000D03*
%TD*%
D10*
%TO.C,R41*%
%TO.CFtp,R_0402_1005Metric*%
%TO.CVal,5k1*%
%TO.CLbN,Resistor_SMD*%
%TO.CMnt,SMD*%
%TO.CRot,0*%
X69475000Y-59625000D03*
D11*
X70400000Y-59160000D02*
X70400000Y-60090000D01*
X68550000Y-60090000D01*
X68550000Y-59160000D01*
X70400000Y-59160000D01*
D12*
%TO.P,R41,1*%
X68965000Y-59625000D03*
D13*
%TO.P,R41,2*%
X69985000Y-59625000D03*
%TD*%
D10*
%TO.C,D10*%
%TO.CFtp,LED_0603_1608Metric*%
%TO.CVal,150060RS55040*%
%TO.CLbN,LED_SMD*%
%TO.CMnt,SMD*%
%TO.CRot,-90*%
X92573600Y-46800000D03*
D11*
X93298600Y-45325000D02*
X93298600Y-48275000D01*
X91848600Y-48275000D01*
X91848600Y-45325000D01*
X93298600Y-45325000D01*
D12*
%TO.P,D10,1,K*%
X92573600Y-46012500D03*
D13*
%TO.P,D10,2,A*%
X92573600Y-47587500D03*
%TD*%
D10*
%TO.C,D1*%
%TO.CFtp,LED_0603_1608Metric*%
%TO.CVal,150060RS55040*%
%TO.CLbN,LED_SMD*%
%TO.CMnt,SMD*%
%TO.CRot,180*%
X65573400Y-46293000D03*
D11*
X67048400Y-45568000D02*
X67048400Y-47018000D01*
X64098400Y-47018000D01*
X64098400Y-45568000D01*
X67048400Y-45568000D01*
D12*
%TO.P,D1,1,K*%
X66360900Y-46293000D03*
D13*
%TO.P,D1,2,A*%
X64785900Y-46293000D03*
%TD*%
D10*
%TO.C,D8*%
%TO.CFtp,D_SOD-323F*%
%TO.CVal,PMEG6010CEJF*%
%TO.CLbN,Diode_SMD*%
%TO.CMnt,SMD*%
%TO.CRot,0*%
X68037200Y-54243200D03*
D11*
X69632200Y-53298200D02*
X69632200Y-55188200D01*
X66442200Y-55188200D01*
X66442200Y-53298200D01*
X69632200Y-53298200D01*
D12*
%TO.P,D8,1,K*%
X66937200Y-54243200D03*
D13*
%TO.P,D8,2,A*%
X69137200Y-54243200D03*
%TD*%
D10*
%TO.C,R24*%
%TO.CFtp,R_0402_1005Metric*%
%TO.CVal,9k09*%
%TO.CLbN,Resistor_SMD*%
%TO.CMnt,SMD*%
%TO.CRot,90*%
X72925000Y-74075000D03*
D11*
X73390000Y-73150000D02*
X73390000Y-75000000D01*
X72460000Y-75000000D01*
X72460000Y-73150000D01*
X73390000Y-73150000D01*
D12*
%TO.P,R24,1*%
X72925000Y-74585000D03*
D13*
%TO.P,R24,2*%
X72925000Y-73565000D03*
%TD*%
D10*
%TO.C,R27*%
%TO.CFtp,R_0402_1005Metric*%
%TO.CVal,110k*%
%TO.CLbN,Resistor_SMD*%
%TO.CMnt,SMD*%
%TO.CRot,-90*%
X71364600Y-61329800D03*
D11*
X71829600Y-60404800D02*
X71829600Y-62254800D01*
X70899600Y-62254800D01*
X70899600Y-60404800D01*
X71829600Y-60404800D01*
D12*
%TO.P,R27,1*%
X71364600Y-60819800D03*
D13*
%TO.P,R27,2*%
X71364600Y-61839800D03*
%TD*%
D10*
%TO.C,D15*%
%TO.CFtp,D_SOD-323F*%
%TO.CVal,BAT54J\u002C115*%
%TO.CLbN,Diode_SMD*%
%TO.CMnt,SMD*%
%TO.CRot,-90*%
X84500000Y-78875000D03*
D11*
X85445000Y-77280000D02*
X85445000Y-80470000D01*
X83555000Y-80470000D01*
X83555000Y-77280000D01*
X85445000Y-77280000D01*
D12*
%TO.P,D15,1,K*%
X84500000Y-77775000D03*
D13*
%TO.P,D15,2,A*%
X84500000Y-79975000D03*
%TD*%
D10*
%TO.C,C26*%
%TO.CFtp,C_1206_3216Metric*%
%TO.CVal,10uF*%
%TO.CLbN,Capacitor_SMD*%
%TO.CMnt,SMD*%
%TO.CRot,90*%
X86775000Y-83000000D03*
D11*
X87920000Y-80705000D02*
X87920000Y-85295000D01*
X85630000Y-85295000D01*
X85630000Y-80705000D01*
X87920000Y-80705000D01*
D12*
%TO.P,C26,1*%
X86775000Y-84475000D03*
D13*
%TO.P,C26,2*%
X86775000Y-81525000D03*
%TD*%
D10*
%TO.C,J4*%
%TO.CFtp,J_Wurth_WR-WTB_61900411121*%
%TO.CVal,61900411121*%
%TO.CLbN,Connector_THT_Wurth*%
%TO.CMnt,TH*%
%TO.CRot,90*%
X92200000Y-84115000D03*
D11*
X95295000Y-74710000D02*
X95295000Y-85900000D01*
X88505000Y-85900000D01*
X88505000Y-74710000D01*
X95295000Y-74710000D01*
D12*
%TO.P,J4,1,Pin_1*%
X92200000Y-84115000D03*
D13*
%TO.P,J4,2,Pin_2*%
X92200000Y-81575000D03*
%TO.P,J4,3,Pin_3*%
X92200000Y-79035000D03*
%TO.P,J4,4,Pin_4*%
X92200000Y-76495000D03*
%TD*%
D10*
%TO.C,D9*%
%TO.CFtp,D_SOD-323F*%
%TO.CVal,PMEG6010CEJF*%
%TO.CLbN,Diode_SMD*%
%TO.CMnt,SMD*%
%TO.CRot,-90*%
X71350000Y-74150000D03*
D11*
X72295000Y-72555000D02*
X72295000Y-75745000D01*
X70405000Y-75745000D01*
X70405000Y-72555000D01*
X72295000Y-72555000D01*
D12*
%TO.P,D9,1,K*%
X71350000Y-73050000D03*
D13*
%TO.P,D9,2,A*%
X71350000Y-75250000D03*
%TD*%
D10*
%TO.C,R28*%
%TO.CFtp,R_0402_1005Metric*%
%TO.CVal,3k3*%
%TO.CLbN,Resistor_SMD*%
%TO.CMnt,SMD*%
%TO.CRot,90*%
X79325000Y-83625000D03*
D11*
X79790000Y-82700000D02*
X79790000Y-84550000D01*
X78860000Y-84550000D01*
X78860000Y-82700000D01*
X79790000Y-82700000D01*
D12*
%TO.P,R28,1*%
X79325000Y-84135000D03*
D13*
%TO.P,R28,2*%
X79325000Y-83115000D03*
%TD*%
D10*
%TO.C,D11*%
%TO.CFtp,D_SOD-923*%
%TO.CVal,ESD9B5.0ST5G*%
%TO.CLbN,Diode_SMD*%
%TO.CMnt,SMD*%
%TO.CRot,-90*%
X69025000Y-62175000D03*
D11*
X69300000Y-61430000D02*
X69300000Y-61630000D01*
X69470000Y-61630000D01*
X69470000Y-62720000D01*
X69300000Y-62720000D01*
X69300000Y-62920000D01*
X68750000Y-62920000D01*
X68750000Y-62720000D01*
X68580000Y-62720000D01*
X68580000Y-61630000D01*
X68750000Y-61630000D01*
X68750000Y-61430000D01*
X69300000Y-61430000D01*
D12*
%TO.P,D11,1,A1*%
X69025000Y-61755000D03*
D13*
%TO.P,D11,2,A2*%
X69025000Y-62595000D03*
%TD*%
D10*
%TO.C,C4*%
%TO.CFtp,C_0402_1005Metric*%
%TO.CVal,470pF*%
%TO.CLbN,Capacitor_SMD*%
%TO.CMnt,SMD*%
%TO.CRot,0*%
X70475600Y-56475000D03*
D11*
X71380600Y-56020000D02*
X71380600Y-56930000D01*
X69570600Y-56930000D01*
X69570600Y-56020000D01*
X71380600Y-56020000D01*
D12*
%TO.P,C4,1*%
X69995600Y-56475000D03*
D13*
%TO.P,C4,2*%
X70955600Y-56475000D03*
%TD*%
D10*
%TO.C,D14*%
%TO.CFtp,D_SOD-323*%
%TO.CVal,PESD1LIN*%
%TO.CLbN,Diode_SMD*%
%TO.CMnt,SMD*%
%TO.CRot,90*%
X86775000Y-78875000D03*
D11*
X87720000Y-77280000D02*
X87720000Y-80470000D01*
X85830000Y-80470000D01*
X85830000Y-77280000D01*
X87720000Y-77280000D01*
D12*
%TO.P,D14,1,A1*%
X86775000Y-79925000D03*
D13*
%TO.P,D14,2,A2*%
X86775000Y-77825000D03*
%TD*%
D10*
%TO.C,C18*%
%TO.CFtp,C_0805_2012Metric*%
%TO.CVal,10nF*%
%TO.CLbN,Capacitor_SMD*%
%TO.CMnt,SMD*%
%TO.CRot,-90*%
X79875000Y-88750000D03*
D11*
X80850000Y-87055000D02*
X80850000Y-90445000D01*
X78900000Y-90445000D01*
X78900000Y-87055000D01*
X80850000Y-87055000D01*
D12*
%TO.P,C18,1*%
X79875000Y-87800000D03*
D13*
%TO.P,C18,2*%
X79875000Y-89700000D03*
%TD*%
D10*
%TO.C,R29*%
%TO.CFtp,R_0402_1005Metric*%
%TO.CVal,4k7*%
%TO.CLbN,Resistor_SMD*%
%TO.CMnt,SMD*%
%TO.CRot,0*%
X71050000Y-54500000D03*
D11*
X71975000Y-54035000D02*
X71975000Y-54965000D01*
X70125000Y-54965000D01*
X70125000Y-54035000D01*
X71975000Y-54035000D01*
D12*
%TO.P,R29,1*%
X70540000Y-54500000D03*
D13*
%TO.P,R29,2*%
X71560000Y-54500000D03*
%TD*%
D10*
%TO.C,R20*%
%TO.CFtp,R_0402_1005Metric*%
%TO.CVal,0R*%
%TO.CLbN,Resistor_SMD*%
%TO.CMnt,SMD*%
%TO.CRot,90*%
X91900000Y-68375000D03*
D11*
X92365000Y-67450000D02*
X92365000Y-69300000D01*
X91435000Y-69300000D01*
X91435000Y-67450000D01*
X92365000Y-67450000D01*
D12*
%TO.P,R20,1*%
X91900000Y-68885000D03*
D13*
%TO.P,R20,2*%
X91900000Y-67865000D03*
%TD*%
D10*
%TO.C,R13*%
%TO.CFtp,R_0402_1005Metric*%
%TO.CVal,/*%
%TO.CLbN,Resistor_SMD*%
%TO.CMnt,SMD*%
%TO.CRot,-90*%
X92167200Y-63692000D03*
D11*
X92632200Y-62767000D02*
X92632200Y-64617000D01*
X91702200Y-64617000D01*
X91702200Y-62767000D01*
X92632200Y-62767000D01*
D12*
%TO.P,R13,1*%
X92167200Y-63182000D03*
D13*
%TO.P,R13,2*%
X92167200Y-64202000D03*
%TD*%
D10*
%TO.C,C17*%
%TO.CFtp,C_0402_1005Metric*%
%TO.CVal,1uF*%
%TO.CLbN,Capacitor_SMD*%
%TO.CMnt,SMD*%
%TO.CRot,90*%
X69104000Y-49722000D03*
D11*
X69559000Y-48817000D02*
X69559000Y-50627000D01*
X68649000Y-50627000D01*
X68649000Y-48817000D01*
X69559000Y-48817000D01*
D12*
%TO.P,C17,1*%
X69104000Y-50202000D03*
D13*
%TO.P,C17,2*%
X69104000Y-49242000D03*
%TD*%
D10*
%TO.C,R15*%
%TO.CFtp,R_0402_1005Metric*%
%TO.CVal,1k*%
%TO.CLbN,Resistor_SMD*%
%TO.CMnt,SMD*%
%TO.CRot,0*%
X85725000Y-72025000D03*
D11*
X86650000Y-71560000D02*
X86650000Y-72490000D01*
X84800000Y-72490000D01*
X84800000Y-71560000D01*
X86650000Y-71560000D01*
D12*
%TO.P,R15,1*%
X85215000Y-72025000D03*
D13*
%TO.P,R15,2*%
X86235000Y-72025000D03*
%TD*%
D10*
%TO.C,R25*%
%TO.CFtp,R_0402_1005Metric*%
%TO.CVal,1k*%
%TO.CLbN,Resistor_SMD*%
%TO.CMnt,SMD*%
%TO.CRot,90*%
X72925000Y-71750000D03*
D11*
X73390000Y-70825000D02*
X73390000Y-72675000D01*
X72460000Y-72675000D01*
X72460000Y-70825000D01*
X73390000Y-70825000D01*
D12*
%TO.P,R25,1*%
X72925000Y-72260000D03*
D13*
%TO.P,R25,2*%
X72925000Y-71240000D03*
%TD*%
D10*
%TO.C,FID1*%
%TO.CFtp,Fiducial_0.75mm_Mask1.5mm*%
%TO.CVal,Fiducial*%
%TO.CLbN,Fiducial*%
%TO.CMnt,SMD*%
%TO.CRot,0*%
X60725000Y-66700000D03*
D11*
X60975035Y-65734291D02*
X61164318Y-65804393D01*
X61335606Y-65911158D01*
X61481902Y-66050222D01*
X61597205Y-66215884D01*
X61676804Y-66401369D01*
X61717448Y-66599145D01*
X61719998Y-66700000D01*
X61717448Y-66800854D01*
X61676804Y-66998630D01*
X61597205Y-67184115D01*
X61481902Y-67349777D01*
X61335606Y-67488841D01*
X61164318Y-67595606D01*
X60975035Y-67665708D01*
X60775529Y-67696272D01*
X60573938Y-67686048D01*
X60378546Y-67635458D01*
X60197332Y-67546567D01*
X60037719Y-67423018D01*
X59906245Y-67269870D01*
X59808291Y-67093390D01*
X59747866Y-66900803D01*
X59727447Y-66700000D01*
X59747866Y-66499196D01*
X59808291Y-66306609D01*
X59906245Y-66130129D01*
X60037719Y-65976981D01*
X60197332Y-65853432D01*
X60378546Y-65764541D01*
X60573938Y-65713951D01*
X60775529Y-65703727D01*
X60975035Y-65734291D01*
D13*
%TO.P,FID1,*%
X60725000Y-66700000D03*
%TD*%
D10*
%TO.C,D17*%
%TO.CFtp,D_SOD-323F*%
%TO.CVal,BAT54J\u002C115*%
%TO.CLbN,Diode_SMD*%
%TO.CMnt,SMD*%
%TO.CRot,-90*%
X84500000Y-82675000D03*
D11*
X85445000Y-81080000D02*
X85445000Y-84270000D01*
X83555000Y-84270000D01*
X83555000Y-81080000D01*
X85445000Y-81080000D01*
D12*
%TO.P,D17,1,K*%
X84500000Y-81575000D03*
D13*
%TO.P,D17,2,A*%
X84500000Y-83775000D03*
%TD*%
D10*
%TO.C,C13*%
%TO.CFtp,C_0402_1005Metric*%
%TO.CVal,100nF*%
%TO.CLbN,Capacitor_SMD*%
%TO.CMnt,SMD*%
%TO.CRot,180*%
X70628000Y-48190000D03*
D11*
X71533000Y-47735000D02*
X71533000Y-48645000D01*
X69723000Y-48645000D01*
X69723000Y-47735000D01*
X71533000Y-47735000D01*
D12*
%TO.P,C13,1*%
X71108000Y-48190000D03*
D13*
%TO.P,C13,2*%
X70148000Y-48190000D03*
%TD*%
D10*
%TO.C,U1*%
%TO.CFtp,SOT-89-3*%
%TO.CVal,AZ1117CR-3.3TRG1*%
%TO.CLbN,Package_TO_SOT_SMD*%
%TO.CMnt,SMD*%
%TO.CRot,90*%
X63109600Y-49925200D03*
D11*
X65604600Y-47680200D02*
X65604600Y-52770200D01*
X60614600Y-52770200D01*
X60614600Y-47680200D01*
X65604600Y-47680200D01*
D12*
%TO.P,U1,1,GND*%
X61609600Y-51875200D03*
D13*
%TO.P,U1,2,VO*%
X63109600Y-51787700D03*
%TO.P,U1,3,VI*%
X64609600Y-51875200D03*
%TD*%
D10*
%TO.C,R22*%
%TO.CFtp,R_0402_1005Metric*%
%TO.CVal,9k09*%
%TO.CLbN,Resistor_SMD*%
%TO.CMnt,SMD*%
%TO.CRot,90*%
X76150000Y-74975000D03*
D11*
X76615000Y-74050000D02*
X76615000Y-75900000D01*
X75685000Y-75900000D01*
X75685000Y-74050000D01*
X76615000Y-74050000D01*
D12*
%TO.P,R22,1*%
X76150000Y-75485000D03*
D13*
%TO.P,R22,2*%
X76150000Y-74465000D03*
%TD*%
D10*
%TO.C,R1*%
%TO.CFtp,R_0603_1608Metric*%
%TO.CVal,2k*%
%TO.CLbN,Resistor_SMD*%
%TO.CMnt,SMD*%
%TO.CRot,180*%
X62550800Y-46300000D03*
D11*
X64025800Y-45575000D02*
X64025800Y-47025000D01*
X61075800Y-47025000D01*
X61075800Y-45575000D01*
X64025800Y-45575000D01*
D12*
%TO.P,R1,1*%
X63375800Y-46300000D03*
D13*
%TO.P,R1,2*%
X61725800Y-46300000D03*
%TD*%
D10*
%TO.C,FID2*%
%TO.CFtp,Fiducial_0.75mm_Mask1.5mm*%
%TO.CVal,Fiducial*%
%TO.CLbN,Fiducial*%
%TO.CMnt,SMD*%
%TO.CRot,0*%
X89550000Y-90275000D03*
D11*
X89800035Y-89309291D02*
X89989318Y-89379393D01*
X90160606Y-89486158D01*
X90306902Y-89625222D01*
X90422205Y-89790884D01*
X90501804Y-89976369D01*
X90542448Y-90174145D01*
X90544998Y-90275000D01*
X90542448Y-90375854D01*
X90501804Y-90573630D01*
X90422205Y-90759115D01*
X90306902Y-90924777D01*
X90160606Y-91063841D01*
X89989318Y-91170606D01*
X89800035Y-91240708D01*
X89600529Y-91271272D01*
X89398938Y-91261048D01*
X89203546Y-91210458D01*
X89022332Y-91121567D01*
X88862719Y-90998018D01*
X88731245Y-90844870D01*
X88633291Y-90668390D01*
X88572866Y-90475803D01*
X88552447Y-90275000D01*
X88572866Y-90074196D01*
X88633291Y-89881609D01*
X88731245Y-89705129D01*
X88862719Y-89551981D01*
X89022332Y-89428432D01*
X89203546Y-89339541D01*
X89398938Y-89288951D01*
X89600529Y-89278727D01*
X89800035Y-89309291D01*
D13*
%TO.P,FID2,*%
X89550000Y-90275000D03*
%TD*%
D10*
%TO.C,U5*%
%TO.CFtp,ESP32-S3-WROOM-2*%
%TO.CVal,ESP32-S3-WROOM-1-N16R8*%
%TO.CLbN,Melexis*%
%TO.CMnt,SMD*%
%TO.CRot,0*%
X81900000Y-51918000D03*
D11*
X105895000Y-24173000D02*
X105895000Y-45163000D01*
X91645000Y-45163000D01*
X91645000Y-65363000D01*
X72155000Y-65363000D01*
X72155000Y-45163000D01*
X57905000Y-45163000D01*
X57905000Y-24173000D01*
X105895000Y-24173000D01*
D12*
%TO.P,U5,1,GND*%
X73150000Y-46658000D03*
D13*
%TO.P,U5,2,3V3*%
X73150000Y-47928000D03*
%TO.P,U5,3,EN*%
X73150000Y-49198000D03*
%TO.P,U5,4,IO4*%
X73150000Y-50468000D03*
%TO.P,U5,5,IO5*%
X73150000Y-51738000D03*
%TO.P,U5,6,IO6*%
X73150000Y-53008000D03*
%TO.P,U5,7,IO7*%
X73150000Y-54278000D03*
%TO.P,U5,8,IO15*%
X73150000Y-55548000D03*
%TO.P,U5,9,IO16*%
X73150000Y-56818000D03*
%TO.P,U5,10,IO17*%
X73150000Y-58088000D03*
%TO.P,U5,11,IO18*%
X73150000Y-59358000D03*
%TO.P,U5,12,IO8*%
X73150000Y-60628000D03*
%TO.P,U5,13,IO19*%
X73150000Y-61898000D03*
%TO.P,U5,14,IO20*%
X73150000Y-63168000D03*
%TO.P,U5,15,IO3*%
X74915000Y-64418000D03*
%TO.P,U5,16,IO46*%
X76185000Y-64418000D03*
%TO.P,U5,17,IO9*%
X77455000Y-64418000D03*
%TO.P,U5,18,IO10*%
X78725000Y-64418000D03*
%TO.P,U5,19,IO11*%
X79995000Y-64418000D03*
%TO.P,U5,20,IO12*%
X81265000Y-64418000D03*
%TO.P,U5,21,IO13*%
X82535000Y-64418000D03*
%TO.P,U5,22,IO14*%
X83805000Y-64418000D03*
%TO.P,U5,23,IO21*%
X85075000Y-64418000D03*
%TO.P,U5,24,IO47*%
X86345000Y-64418000D03*
%TO.P,U5,25,IO48*%
X87615000Y-64418000D03*
%TO.P,U5,26,IO45*%
X88885000Y-64418000D03*
%TO.P,U5,27,IO0*%
X90650000Y-63168000D03*
%TO.P,U5,28,NC*%
X90650000Y-61898000D03*
%TO.P,U5,29,NC*%
X90650000Y-60628000D03*
%TO.P,U5,30,NC*%
X90650000Y-59358000D03*
%TO.P,U5,31,IO38*%
X90650000Y-58088000D03*
%TO.P,U5,32,IO39*%
X90650000Y-56818000D03*
%TO.P,U5,33,IO40*%
X90650000Y-55548000D03*
%TO.P,U5,34,IO41*%
X90650000Y-54278000D03*
%TO.P,U5,35,IO42*%
X90650000Y-53008000D03*
%TO.P,U5,36,RXD0*%
X90650000Y-51738000D03*
%TO.P,U5,37,TXD0*%
X90650000Y-50468000D03*
%TO.P,U5,38,IO2*%
X90650000Y-49198000D03*
%TO.P,U5,39,IO1*%
X90650000Y-47928000D03*
%TO.P,U5,40,GND*%
X90650000Y-46658000D03*
%TO.P,U5,41,EPAD*%
X79040000Y-51258000D03*
X79040000Y-52758000D03*
X79790000Y-50508000D03*
X79790000Y-52008000D03*
X79790000Y-53508000D03*
X80540000Y-51258000D03*
X80540000Y-52008000D03*
X80540000Y-52758000D03*
X81290000Y-50508000D03*
X81290000Y-52008000D03*
X81290000Y-53508000D03*
X82040000Y-51258000D03*
X82040000Y-52758000D03*
%TD*%
D10*
%TO.C,R11*%
%TO.CFtp,R_0402_1005Metric*%
%TO.CVal,10k*%
%TO.CLbN,Resistor_SMD*%
%TO.CMnt,SMD*%
%TO.CRot,-90*%
X71136000Y-49722000D03*
D11*
X71601000Y-48797000D02*
X71601000Y-50647000D01*
X70671000Y-50647000D01*
X70671000Y-48797000D01*
X71601000Y-48797000D01*
D12*
%TO.P,R11,1*%
X71136000Y-49212000D03*
D13*
%TO.P,R11,2*%
X71136000Y-50232000D03*
%TD*%
D10*
%TO.C,D5*%
%TO.CFtp,D_SOD-323F*%
%TO.CVal,BAT54J\u002C115*%
%TO.CLbN,Diode_SMD*%
%TO.CMnt,SMD*%
%TO.CRot,-90*%
X74051800Y-77687975D03*
D11*
X74996800Y-76092975D02*
X74996800Y-79282975D01*
X73106800Y-79282975D01*
X73106800Y-76092975D01*
X74996800Y-76092975D01*
D12*
%TO.P,D5,1,K*%
X74051800Y-76587975D03*
D13*
%TO.P,D5,2,A*%
X74051800Y-78787975D03*
%TD*%
D10*
%TO.C,R38*%
%TO.CFtp,R_0603_1608Metric*%
%TO.CVal,10R*%
%TO.CLbN,Resistor_SMD*%
%TO.CMnt,SMD*%
%TO.CRot,180*%
X84750000Y-74025000D03*
D11*
X86225000Y-73300000D02*
X86225000Y-74750000D01*
X83275000Y-74750000D01*
X83275000Y-73300000D01*
X86225000Y-73300000D01*
D12*
%TO.P,R38,1*%
X85575000Y-74025000D03*
D13*
%TO.P,R38,2*%
X83925000Y-74025000D03*
%TD*%
D10*
%TO.C,R31*%
%TO.CFtp,R_0402_1005Metric*%
%TO.CVal,6k8*%
%TO.CLbN,Resistor_SMD*%
%TO.CMnt,SMD*%
%TO.CRot,-90*%
X82525000Y-70250000D03*
D11*
X82990000Y-69325000D02*
X82990000Y-71175000D01*
X82060000Y-71175000D01*
X82060000Y-69325000D01*
X82990000Y-69325000D01*
D12*
%TO.P,R31,1*%
X82525000Y-69740000D03*
D13*
%TO.P,R31,2*%
X82525000Y-70760000D03*
%TD*%
D10*
%TO.C,D12*%
%TO.CFtp,D_SOD-923*%
%TO.CVal,ESD9B5.0ST5G*%
%TO.CLbN,Diode_SMD*%
%TO.CMnt,SMD*%
%TO.CRot,90*%
X69950000Y-60950000D03*
D11*
X70225000Y-60205000D02*
X70225000Y-60405000D01*
X70395000Y-60405000D01*
X70395000Y-61495000D01*
X70225000Y-61495000D01*
X70225000Y-61695000D01*
X69675000Y-61695000D01*
X69675000Y-61495000D01*
X69505000Y-61495000D01*
X69505000Y-60405000D01*
X69675000Y-60405000D01*
X69675000Y-60205000D01*
X70225000Y-60205000D01*
D12*
%TO.P,D12,1,A1*%
X69950000Y-61370000D03*
D13*
%TO.P,D12,2,A2*%
X69950000Y-60530000D03*
%TD*%
D10*
%TO.C,C15*%
%TO.CFtp,C_1206_3216Metric*%
%TO.CVal,10uF*%
%TO.CLbN,Capacitor_SMD*%
%TO.CMnt,SMD*%
%TO.CRot,180*%
X69510400Y-46420000D03*
D11*
X71805400Y-45275000D02*
X71805400Y-47565000D01*
X67215400Y-47565000D01*
X67215400Y-45275000D01*
X71805400Y-45275000D01*
D12*
%TO.P,C15,1*%
X70985400Y-46420000D03*
D13*
%TO.P,C15,2*%
X68035400Y-46420000D03*
%TD*%
D10*
%TO.C,U7*%
%TO.CFtp,DFN-8-1EP_3x3mm_P0.65mm_EP1.55x2.4mm*%
%TO.CVal,TJA1021TK/20*%
%TO.CLbN,Package_DFN_QFN*%
%TO.CMnt,SMD*%
%TO.CRot,0*%
X79118750Y-74400000D03*
D11*
X80863750Y-72655000D02*
X80863750Y-73005000D01*
X81243750Y-73005000D01*
X81243750Y-75795000D01*
X80863750Y-75795000D01*
X80863750Y-76145000D01*
X77373750Y-76145000D01*
X77373750Y-75795000D01*
X76993750Y-75795000D01*
X76993750Y-73005000D01*
X77373750Y-73005000D01*
X77373750Y-72655000D01*
X80863750Y-72655000D01*
D12*
%TO.P,U7,1,RXD*%
X77568750Y-73425000D03*
D13*
%TO.P,U7,2,~{SLP}*%
X77568750Y-74075000D03*
%TO.P,U7,3,~{WAKE}*%
X77568750Y-74725000D03*
%TO.P,U7,4,TXD*%
X77568750Y-75375000D03*
%TO.P,U7,5,GND*%
X80668750Y-75375000D03*
%TO.P,U7,6,LIN*%
X80668750Y-74725000D03*
%TO.P,U7,7,VBAT*%
X80668750Y-74075000D03*
%TO.P,U7,8,INH*%
X80668750Y-73425000D03*
%TO.P,U7,9,GND*%
X79118750Y-74400000D03*
%TD*%
D10*
%TO.C,R17*%
%TO.CFtp,R_0603_1608Metric*%
%TO.CVal,2k*%
%TO.CLbN,Resistor_SMD*%
%TO.CMnt,SMD*%
%TO.CRot,-90*%
X94100000Y-49785000D03*
D11*
X94825000Y-48310000D02*
X94825000Y-51260000D01*
X93375000Y-51260000D01*
X93375000Y-48310000D01*
X94825000Y-48310000D01*
D12*
%TO.P,R17,1*%
X94100000Y-48960000D03*
D13*
%TO.P,R17,2*%
X94100000Y-50610000D03*
%TD*%
D10*
%TO.C,R10*%
%TO.CFtp,R_0402_1005Metric*%
%TO.CVal,430R*%
%TO.CLbN,Resistor_SMD*%
%TO.CMnt,SMD*%
%TO.CRot,-90*%
X75075000Y-74975000D03*
D11*
X75540000Y-74050000D02*
X75540000Y-75900000D01*
X74610000Y-75900000D01*
X74610000Y-74050000D01*
X75540000Y-74050000D01*
D12*
%TO.P,R10,1*%
X75075000Y-74465000D03*
D13*
%TO.P,R10,2*%
X75075000Y-75485000D03*
%TD*%
D10*
%TO.C,R33*%
%TO.CFtp,R_0402_1005Metric*%
%TO.CVal,/*%
%TO.CLbN,Resistor_SMD*%
%TO.CMnt,SMD*%
%TO.CRot,-90*%
X83650000Y-66550000D03*
D11*
X84115000Y-65625000D02*
X84115000Y-67475000D01*
X83185000Y-67475000D01*
X83185000Y-65625000D01*
X84115000Y-65625000D01*
D12*
%TO.P,R33,1*%
X83650000Y-66040000D03*
D13*
%TO.P,R33,2*%
X83650000Y-67060000D03*
%TD*%
D10*
%TO.C,R21*%
%TO.CFtp,R_0402_1005Metric*%
%TO.CVal,/*%
%TO.CLbN,Resistor_SMD*%
%TO.CMnt,SMD*%
%TO.CRot,-90*%
X79325000Y-86000000D03*
D11*
X79790000Y-85075000D02*
X79790000Y-86925000D01*
X78860000Y-86925000D01*
X78860000Y-85075000D01*
X79790000Y-85075000D01*
D12*
%TO.P,R21,1*%
X79325000Y-85490000D03*
D13*
%TO.P,R21,2*%
X79325000Y-86510000D03*
%TD*%
D10*
%TO.C,C22*%
%TO.CFtp,C_0603_1608Metric*%
%TO.CVal,100nF*%
%TO.CLbN,Capacitor_SMD*%
%TO.CMnt,SMD*%
%TO.CRot,-90*%
X89425000Y-69575000D03*
D11*
X90150000Y-68100000D02*
X90150000Y-71050000D01*
X88700000Y-71050000D01*
X88700000Y-68100000D01*
X90150000Y-68100000D01*
D12*
%TO.P,C22,1*%
X89425000Y-68800000D03*
D13*
%TO.P,C22,2*%
X89425000Y-70350000D03*
%TD*%
D10*
%TO.C,D3*%
%TO.CFtp,D_SOD-323F*%
%TO.CVal,PMEG6010CEJF*%
%TO.CLbN,Diode_SMD*%
%TO.CMnt,SMD*%
%TO.CRot,-90*%
X70875000Y-64500000D03*
D11*
X71820000Y-62905000D02*
X71820000Y-66095000D01*
X69930000Y-66095000D01*
X69930000Y-62905000D01*
X71820000Y-62905000D01*
D12*
%TO.P,D3,1,K*%
X70875000Y-63400000D03*
D13*
%TO.P,D3,2,A*%
X70875000Y-65600000D03*
%TD*%
D10*
%TO.C,R32*%
%TO.CFtp,R_0402_1005Metric*%
%TO.CVal,/*%
%TO.CLbN,Resistor_SMD*%
%TO.CMnt,SMD*%
%TO.CRot,-90*%
X82550000Y-66550000D03*
D11*
X83015000Y-65625000D02*
X83015000Y-67475000D01*
X82085000Y-67475000D01*
X82085000Y-65625000D01*
X83015000Y-65625000D01*
D12*
%TO.P,R32,1*%
X82550000Y-66040000D03*
D13*
%TO.P,R32,2*%
X82550000Y-67060000D03*
%TD*%
D10*
%TO.C,R8*%
%TO.CFtp,R_0402_1005Metric*%
%TO.CVal,15k*%
%TO.CLbN,Resistor_SMD*%
%TO.CMnt,SMD*%
%TO.CRot,-90*%
X76765000Y-78406573D03*
D11*
X77230000Y-77481573D02*
X77230000Y-79331573D01*
X76300000Y-79331573D01*
X76300000Y-77481573D01*
X77230000Y-77481573D01*
D12*
%TO.P,R8,1*%
X76765000Y-77896573D03*
D13*
%TO.P,R8,2*%
X76765000Y-78916573D03*
%TD*%
D10*
%TO.C,D2*%
%TO.CFtp,D_SOD-323F*%
%TO.CVal,PMEG6010CEJF*%
%TO.CLbN,Diode_SMD*%
%TO.CMnt,SMD*%
%TO.CRot,180*%
X63275000Y-68150000D03*
D11*
X64870000Y-67205000D02*
X64870000Y-69095000D01*
X61680000Y-69095000D01*
X61680000Y-67205000D01*
X64870000Y-67205000D01*
D12*
%TO.P,D2,1,K*%
X64375000Y-68150000D03*
D13*
%TO.P,D2,2,A*%
X62175000Y-68150000D03*
%TD*%
D10*
%TO.C,C2*%
%TO.CFtp,C_0402_1005Metric*%
%TO.CVal,100nF*%
%TO.CLbN,Capacitor_SMD*%
%TO.CMnt,SMD*%
%TO.CRot,-90*%
X68850000Y-52025000D03*
D11*
X69305000Y-51120000D02*
X69305000Y-52930000D01*
X68395000Y-52930000D01*
X68395000Y-51120000D01*
X69305000Y-51120000D01*
D12*
%TO.P,C2,1*%
X68850000Y-51545000D03*
D13*
%TO.P,C2,2*%
X68850000Y-52505000D03*
%TD*%
D10*
%TO.C,C11*%
%TO.CFtp,C_0402_1005Metric*%
%TO.CVal,470pF*%
%TO.CLbN,Capacitor_SMD*%
%TO.CMnt,SMD*%
%TO.CRot,0*%
X70475600Y-57491000D03*
D11*
X71380600Y-57036000D02*
X71380600Y-57946000D01*
X69570600Y-57946000D01*
X69570600Y-57036000D01*
X71380600Y-57036000D01*
D12*
%TO.P,C11,1*%
X69995600Y-57491000D03*
D13*
%TO.P,C11,2*%
X70955600Y-57491000D03*
%TD*%
D10*
%TO.C,R23*%
%TO.CFtp,R_0402_1005Metric*%
%TO.CVal,1k*%
%TO.CLbN,Resistor_SMD*%
%TO.CMnt,SMD*%
%TO.CRot,90*%
X76150000Y-72975000D03*
D11*
X76615000Y-72050000D02*
X76615000Y-73900000D01*
X75685000Y-73900000D01*
X75685000Y-72050000D01*
X76615000Y-72050000D01*
D12*
%TO.P,R23,1*%
X76150000Y-73485000D03*
D13*
%TO.P,R23,2*%
X76150000Y-72465000D03*
%TD*%
D10*
%TO.C,R5*%
%TO.CFtp,R_0402_1005Metric*%
%TO.CVal,10k*%
%TO.CLbN,Resistor_SMD*%
%TO.CMnt,SMD*%
%TO.CRot,90*%
X60921200Y-74073200D03*
D11*
X61386200Y-73148200D02*
X61386200Y-74998200D01*
X60456200Y-74998200D01*
X60456200Y-73148200D01*
X61386200Y-73148200D01*
D12*
%TO.P,R5,1*%
X60921200Y-74583200D03*
D13*
%TO.P,R5,2*%
X60921200Y-73563200D03*
%TD*%
D10*
%TO.C,C7*%
%TO.CFtp,C_0805_2012Metric*%
%TO.CVal,100nF*%
%TO.CLbN,Capacitor_SMD*%
%TO.CMnt,SMD*%
%TO.CRot,0*%
X63183700Y-70238200D03*
D11*
X64878700Y-69263200D02*
X64878700Y-71213200D01*
X61488700Y-71213200D01*
X61488700Y-69263200D01*
X64878700Y-69263200D01*
D12*
%TO.P,C7,1*%
X62233700Y-70238200D03*
D13*
%TO.P,C7,2*%
X64133700Y-70238200D03*
%TD*%
D10*
%TO.C,U4*%
%TO.CFtp,SO-8_3.9x4.9mm_P1.27mm*%
%TO.CVal,VN7040ASTR*%
%TO.CLbN,Package_SO*%
%TO.CMnt,SMD*%
%TO.CRot,-90*%
X75967800Y-83242773D03*
D11*
X78662800Y-79547773D02*
X78662800Y-86937773D01*
X73272800Y-86937773D01*
X73272800Y-79547773D01*
X78662800Y-79547773D01*
D12*
%TO.P,U4,1,INPUT*%
X77872800Y-80667773D03*
D13*
%TO.P,U4,2,SEn*%
X76602800Y-80667773D03*
%TO.P,U4,3,GND*%
X75332800Y-80667773D03*
%TO.P,U4,4,MultiSense*%
X74062800Y-80667773D03*
%TO.P,U4,5,VCC*%
X74062800Y-85817773D03*
%TO.P,U4,6,OUTPUT*%
X75332800Y-85817773D03*
%TO.P,U4,7,OUTPUT*%
X76602800Y-85817773D03*
%TO.P,U4,8,VCC*%
X77872800Y-85817773D03*
%TD*%
D10*
%TO.C,FID3*%
%TO.CFtp,Fiducial_0.75mm_Mask1.5mm*%
%TO.CVal,Fiducial*%
%TO.CLbN,Fiducial*%
%TO.CMnt,SMD*%
%TO.CRot,0*%
X65450000Y-90275000D03*
D11*
X65700035Y-89309291D02*
X65889318Y-89379393D01*
X66060606Y-89486158D01*
X66206902Y-89625222D01*
X66322205Y-89790884D01*
X66401804Y-89976369D01*
X66442448Y-90174145D01*
X66444998Y-90275000D01*
X66442448Y-90375854D01*
X66401804Y-90573630D01*
X66322205Y-90759115D01*
X66206902Y-90924777D01*
X66060606Y-91063841D01*
X65889318Y-91170606D01*
X65700035Y-91240708D01*
X65500529Y-91271272D01*
X65298938Y-91261048D01*
X65103546Y-91210458D01*
X64922332Y-91121567D01*
X64762719Y-90998018D01*
X64631245Y-90844870D01*
X64533291Y-90668390D01*
X64472866Y-90475803D01*
X64452447Y-90275000D01*
X64472866Y-90074196D01*
X64533291Y-89881609D01*
X64631245Y-89705129D01*
X64762719Y-89551981D01*
X64922332Y-89428432D01*
X65103546Y-89339541D01*
X65298938Y-89288951D01*
X65500529Y-89278727D01*
X65700035Y-89309291D01*
D13*
%TO.P,FID3,*%
X65450000Y-90275000D03*
%TD*%
D10*
%TO.C,D7*%
%TO.CFtp,LED_0603_1608Metric*%
%TO.CVal,150060VS55040*%
%TO.CLbN,LED_SMD*%
%TO.CMnt,SMD*%
%TO.CRot,-90*%
X94100000Y-46800000D03*
D11*
X94825000Y-45325000D02*
X94825000Y-48275000D01*
X93375000Y-48275000D01*
X93375000Y-45325000D01*
X94825000Y-45325000D01*
D12*
%TO.P,D7,1,K*%
X94100000Y-46012500D03*
D13*
%TO.P,D7,2,A*%
X94100000Y-47587500D03*
%TD*%
D10*
%TO.C,R7*%
%TO.CFtp,R_0402_1005Metric*%
%TO.CVal,15k*%
%TO.CLbN,Resistor_SMD*%
%TO.CMnt,SMD*%
%TO.CRot,-90*%
X77865000Y-78406573D03*
D11*
X78330000Y-77481573D02*
X78330000Y-79331573D01*
X77400000Y-79331573D01*
X77400000Y-77481573D01*
X78330000Y-77481573D01*
D12*
%TO.P,R7,1*%
X77865000Y-77896573D03*
D13*
%TO.P,R7,2*%
X77865000Y-78916573D03*
%TD*%
D10*
%TO.C,FID4*%
%TO.CFtp,Fiducial_0.75mm_Mask1.5mm*%
%TO.CVal,Fiducial*%
%TO.CLbN,Fiducial*%
%TO.CMnt,SMD*%
%TO.CRot,0*%
X94275000Y-65300000D03*
D11*
X94525035Y-64334291D02*
X94714318Y-64404393D01*
X94885606Y-64511158D01*
X95031902Y-64650222D01*
X95147205Y-64815884D01*
X95226804Y-65001369D01*
X95267448Y-65199145D01*
X95269998Y-65300000D01*
X95267448Y-65400854D01*
X95226804Y-65598630D01*
X95147205Y-65784115D01*
X95031902Y-65949777D01*
X94885606Y-66088841D01*
X94714318Y-66195606D01*
X94525035Y-66265708D01*
X94325529Y-66296272D01*
X94123938Y-66286048D01*
X93928546Y-66235458D01*
X93747332Y-66146567D01*
X93587719Y-66023018D01*
X93456245Y-65869870D01*
X93358291Y-65693390D01*
X93297866Y-65500803D01*
X93277447Y-65300000D01*
X93297866Y-65099196D01*
X93358291Y-64906609D01*
X93456245Y-64730129D01*
X93587719Y-64576981D01*
X93747332Y-64453432D01*
X93928546Y-64364541D01*
X94123938Y-64313951D01*
X94325529Y-64303727D01*
X94525035Y-64334291D01*
D13*
%TO.P,FID4,*%
X94275000Y-65300000D03*
%TD*%
D10*
%TO.C,D13*%
%TO.CFtp,D_SOD-923*%
%TO.CVal,ESD9B5.0ST5G*%
%TO.CLbN,Diode_SMD*%
%TO.CMnt,SMD*%
%TO.CRot,0*%
X69372500Y-58600000D03*
D11*
X69917500Y-58155000D02*
X69917500Y-58325000D01*
X70117500Y-58325000D01*
X70117500Y-58875000D01*
X69917500Y-58875000D01*
X69917500Y-59045000D01*
X68827500Y-59045000D01*
X68827500Y-58875000D01*
X68627500Y-58875000D01*
X68627500Y-58325000D01*
X68827500Y-58325000D01*
X68827500Y-58155000D01*
X69917500Y-58155000D01*
D12*
%TO.P,D13,1,A1*%
X68952500Y-58600000D03*
D13*
%TO.P,D13,2,A2*%
X69792500Y-58600000D03*
%TD*%
D10*
%TO.C,R9*%
%TO.CFtp,R_0402_1005Metric*%
%TO.CVal,160R*%
%TO.CLbN,Resistor_SMD*%
%TO.CMnt,SMD*%
%TO.CRot,90*%
X74000000Y-74975000D03*
D11*
X74465000Y-74050000D02*
X74465000Y-75900000D01*
X73535000Y-75900000D01*
X73535000Y-74050000D01*
X74465000Y-74050000D01*
D12*
%TO.P,R9,1*%
X74000000Y-75485000D03*
D13*
%TO.P,R9,2*%
X74000000Y-74465000D03*
%TD*%
D10*
%TO.C,C9*%
%TO.CFtp,C_1206_3216Metric*%
%TO.CVal,10uF*%
%TO.CLbN,Capacitor_SMD*%
%TO.CMnt,SMD*%
%TO.CRot,180*%
X62906400Y-54040000D03*
D11*
X65201400Y-52895000D02*
X65201400Y-55185000D01*
X60611400Y-55185000D01*
X60611400Y-52895000D01*
X65201400Y-52895000D01*
D12*
%TO.P,C9,1*%
X64381400Y-54040000D03*
D13*
%TO.P,C9,2*%
X61431400Y-54040000D03*
%TD*%
D10*
%TO.C,C3*%
%TO.CFtp,C_1206_3216Metric*%
%TO.CVal,10uF*%
%TO.CLbN,Capacitor_SMD*%
%TO.CMnt,SMD*%
%TO.CRot,90*%
X67122800Y-50331600D03*
D11*
X68267800Y-48036600D02*
X68267800Y-52626600D01*
X65977800Y-52626600D01*
X65977800Y-48036600D01*
X68267800Y-48036600D01*
D12*
%TO.P,C3,1*%
X67122800Y-51806600D03*
D13*
%TO.P,C3,2*%
X67122800Y-48856600D03*
%TD*%
D10*
%TO.C,R36*%
%TO.CFtp,R_1206_3216Metric*%
%TO.CVal,1k*%
%TO.CLbN,Resistor_SMD*%
%TO.CMnt,SMD*%
%TO.CRot,0*%
X85575000Y-75975000D03*
D11*
X87850000Y-74860000D02*
X87850000Y-77090000D01*
X83300000Y-77090000D01*
X83300000Y-74860000D01*
X87850000Y-74860000D01*
D12*
%TO.P,R36,1*%
X84112500Y-75975000D03*
D13*
%TO.P,R36,2*%
X87037500Y-75975000D03*
%TD*%
D10*
%TO.C,C6*%
%TO.CFtp,C_0402_1005Metric*%
%TO.CVal,100nF*%
%TO.CLbN,Capacitor_SMD*%
%TO.CMnt,SMD*%
%TO.CRot,-90*%
X65852800Y-54243200D03*
D11*
X66307800Y-53338200D02*
X66307800Y-55148200D01*
X65397800Y-55148200D01*
X65397800Y-53338200D01*
X66307800Y-53338200D01*
D12*
%TO.P,C6,1*%
X65852800Y-53763200D03*
D13*
%TO.P,C6,2*%
X65852800Y-54723200D03*
%TD*%
D10*
%TO.C,R12*%
%TO.CFtp,R_0402_1005Metric*%
%TO.CVal,47k*%
%TO.CLbN,Resistor_SMD*%
%TO.CMnt,SMD*%
%TO.CRot,-90*%
X75665000Y-78409073D03*
D11*
X76130000Y-77484073D02*
X76130000Y-79334073D01*
X75200000Y-79334073D01*
X75200000Y-77484073D01*
X76130000Y-77484073D01*
D12*
%TO.P,R12,1*%
X75665000Y-77899073D03*
D13*
%TO.P,R12,2*%
X75665000Y-78919073D03*
%TD*%
D10*
%TO.C,R6*%
%TO.CFtp,R_0402_1005Metric*%
%TO.CVal,15k*%
%TO.CLbN,Resistor_SMD*%
%TO.CMnt,SMD*%
%TO.CRot,180*%
X71050000Y-52300000D03*
D11*
X71975000Y-51835000D02*
X71975000Y-52765000D01*
X70125000Y-52765000D01*
X70125000Y-51835000D01*
X71975000Y-51835000D01*
D12*
%TO.P,R6,1*%
X71560000Y-52300000D03*
D13*
%TO.P,R6,2*%
X70540000Y-52300000D03*
%TD*%
D10*
%TO.C,C5*%
%TO.CFtp,C_0402_1005Metric*%
%TO.CVal,/*%
%TO.CLbN,Capacitor_SMD*%
%TO.CMnt,SMD*%
%TO.CRot,90*%
X94025000Y-68375000D03*
D11*
X94480000Y-67470000D02*
X94480000Y-69280000D01*
X93570000Y-69280000D01*
X93570000Y-67470000D01*
X94480000Y-67470000D01*
D12*
%TO.P,C5,1*%
X94025000Y-68855000D03*
D13*
%TO.P,C5,2*%
X94025000Y-67895000D03*
%TD*%
D10*
%TO.C,R34*%
%TO.CFtp,R_0402_1005Metric*%
%TO.CVal,/*%
%TO.CLbN,Resistor_SMD*%
%TO.CMnt,SMD*%
%TO.CRot,-90*%
X84750000Y-66550000D03*
D11*
X85215000Y-65625000D02*
X85215000Y-67475000D01*
X84285000Y-67475000D01*
X84285000Y-65625000D01*
X85215000Y-65625000D01*
D12*
%TO.P,R34,1*%
X84750000Y-66040000D03*
D13*
%TO.P,R34,2*%
X84750000Y-67060000D03*
%TD*%
D10*
%TO.C,Q1*%
%TO.CFtp,SOT-323_SC-70*%
%TO.CVal,2N7002W*%
%TO.CLbN,Package_TO_SOT_SMD*%
%TO.CMnt,SMD*%
%TO.CRot,-90*%
X93247500Y-71125000D03*
D11*
X94542500Y-69430000D02*
X94542500Y-72820000D01*
X91952500Y-72820000D01*
X91952500Y-69430000D01*
X94542500Y-69430000D01*
D12*
%TO.P,Q1,1,G*%
X93897500Y-70125000D03*
D13*
%TO.P,Q1,2,S*%
X92597500Y-70125000D03*
%TO.P,Q1,3,D*%
X93247500Y-72125000D03*
%TD*%
D10*
%TO.C,Q5*%
%TO.CFtp,SOT-323_SC-70*%
%TO.CVal,BSS84W-7-F*%
%TO.CLbN,Package_TO_SOT_SMD*%
%TO.CMnt,SMD*%
%TO.CRot,0*%
X81575000Y-83775000D03*
D11*
X83270000Y-82480000D02*
X83270000Y-85070000D01*
X79880000Y-85070000D01*
X79880000Y-82480000D01*
X83270000Y-82480000D01*
D12*
%TO.P,Q5,1,G*%
X80575000Y-83125000D03*
D13*
%TO.P,Q5,2,S*%
X80575000Y-84425000D03*
%TO.P,Q5,3,D*%
X82575000Y-83775000D03*
%TD*%
D10*
%TO.C,R3*%
%TO.CFtp,R_0402_1005Metric*%
%TO.CVal,4k7*%
%TO.CLbN,Resistor_SMD*%
%TO.CMnt,SMD*%
%TO.CRot,90*%
X81425000Y-88665000D03*
D11*
X81890000Y-87740000D02*
X81890000Y-89590000D01*
X80960000Y-89590000D01*
X80960000Y-87740000D01*
X81890000Y-87740000D01*
D12*
%TO.P,R3,1*%
X81425000Y-89175000D03*
D13*
%TO.P,R3,2*%
X81425000Y-88155000D03*
%TD*%
D10*
%TO.C,R19*%
%TO.CFtp,R_0603_1608Metric*%
%TO.CVal,2k*%
%TO.CLbN,Resistor_SMD*%
%TO.CMnt,SMD*%
%TO.CRot,-90*%
X92573600Y-49785000D03*
D11*
X93298600Y-48310000D02*
X93298600Y-51260000D01*
X91848600Y-51260000D01*
X91848600Y-48310000D01*
X93298600Y-48310000D01*
D12*
%TO.P,R19,1*%
X92573600Y-48960000D03*
D13*
%TO.P,R19,2*%
X92573600Y-50610000D03*
%TD*%
D10*
%TO.C,L1*%
%TO.CFtp,HPC4018NF-Series*%
%TO.CVal,6.8uH*%
%TO.CLbN,Melexis*%
%TO.CMnt,SMD*%
%TO.CRot,90*%
X67466300Y-68483700D03*
D14*
X65366300Y-70683700D02*
X69566300Y-70683700D01*
X69566300Y-66283700D01*
X65366300Y-66283700D01*
X65366300Y-70683700D01*
D12*
%TO.P,L1,1,1*%
X67466300Y-69983700D03*
D13*
%TO.P,L1,2,2*%
X67466300Y-66983700D03*
%TD*%
D10*
%TO.C,C12*%
%TO.CFtp,C_0402_1005Metric*%
%TO.CVal,470pF*%
%TO.CLbN,Capacitor_SMD*%
%TO.CMnt,SMD*%
%TO.CRot,180*%
X71050000Y-51225000D03*
D11*
X71955000Y-50770000D02*
X71955000Y-51680000D01*
X70145000Y-51680000D01*
X70145000Y-50770000D01*
X71955000Y-50770000D01*
D12*
%TO.P,C12,1*%
X71530000Y-51225000D03*
D13*
%TO.P,C12,2*%
X70570000Y-51225000D03*
%TD*%
D10*
%TO.C,D6*%
%TO.CFtp,LED_0603_1608Metric*%
%TO.CVal,150060VS55040*%
%TO.CLbN,LED_SMD*%
%TO.CMnt,SMD*%
%TO.CRot,180*%
X93125000Y-73700000D03*
D11*
X94600000Y-72975000D02*
X94600000Y-74425000D01*
X91650000Y-74425000D01*
X91650000Y-72975000D01*
X94600000Y-72975000D01*
D12*
%TO.P,D6,1,K*%
X93912500Y-73700000D03*
D13*
%TO.P,D6,2,A*%
X92337500Y-73700000D03*
%TD*%
D10*
%TO.C,Q2*%
%TO.CFtp,SOT-323_SC-70*%
%TO.CVal,BSS84W-7-F*%
%TO.CLbN,Package_TO_SOT_SMD*%
%TO.CMnt,SMD*%
%TO.CRot,0*%
X83725000Y-89150000D03*
D11*
X85420000Y-87855000D02*
X85420000Y-90445000D01*
X82030000Y-90445000D01*
X82030000Y-87855000D01*
X85420000Y-87855000D01*
D12*
%TO.P,Q2,1,G*%
X82725000Y-88500000D03*
D13*
%TO.P,Q2,2,S*%
X82725000Y-89800000D03*
%TO.P,Q2,3,D*%
X84725000Y-89150000D03*
%TD*%
D10*
%TO.C,R2*%
%TO.CFtp,R_0402_1005Metric*%
%TO.CVal,100k*%
%TO.CLbN,Resistor_SMD*%
%TO.CMnt,SMD*%
%TO.CRot,90*%
X66475700Y-73725000D03*
D11*
X66940700Y-72800000D02*
X66940700Y-74650000D01*
X66010700Y-74650000D01*
X66010700Y-72800000D01*
X66940700Y-72800000D01*
D12*
%TO.P,R2,1*%
X66475700Y-74235000D03*
D13*
%TO.P,R2,2*%
X66475700Y-73215000D03*
%TD*%
D10*
%TO.C,U2*%
%TO.CFtp,SOT-23-6*%
%TO.CVal,LMR16006YQ*%
%TO.CLbN,Package_TO_SOT_SMD*%
%TO.CMnt,SMD*%
%TO.CRot,0*%
X63808700Y-73217000D03*
D11*
X65853700Y-71522000D02*
X65853700Y-74912000D01*
X61763700Y-74912000D01*
X61763700Y-71522000D01*
X65853700Y-71522000D01*
D12*
%TO.P,U2,1,CB*%
X62671200Y-72267000D03*
D13*
%TO.P,U2,2,GND*%
X62671200Y-73217000D03*
%TO.P,U2,3,FB*%
X62671200Y-74167000D03*
%TO.P,U2,4,~{SHDN}*%
X64946200Y-74167000D03*
%TO.P,U2,5,VIN*%
X64946200Y-73217000D03*
%TO.P,U2,6,SW*%
X64946200Y-72267000D03*
%TD*%
D10*
%TO.C,Q4*%
%TO.CFtp,SOT-323_SC-70*%
%TO.CVal,2N7002W*%
%TO.CLbN,Package_TO_SOT_SMD*%
%TO.CMnt,SMD*%
%TO.CRot,180*%
X83725000Y-86475000D03*
D11*
X85420000Y-85180000D02*
X85420000Y-87770000D01*
X82030000Y-87770000D01*
X82030000Y-85180000D01*
X85420000Y-85180000D01*
D12*
%TO.P,Q4,1,G*%
X84725000Y-87125000D03*
D13*
%TO.P,Q4,2,S*%
X84725000Y-85825000D03*
%TO.P,Q4,3,D*%
X82725000Y-86475000D03*
%TD*%
D10*
%TO.C,D16*%
%TO.CFtp,D_SOD-323F*%
%TO.CVal,BAT54J\u002C115*%
%TO.CLbN,Diode_SMD*%
%TO.CMnt,SMD*%
%TO.CRot,-90*%
X86775000Y-87125000D03*
D11*
X87720000Y-85530000D02*
X87720000Y-88720000D01*
X85830000Y-88720000D01*
X85830000Y-85530000D01*
X87720000Y-85530000D01*
D12*
%TO.P,D16,1,K*%
X86775000Y-86025000D03*
D13*
%TO.P,D16,2,A*%
X86775000Y-88225000D03*
%TD*%
D10*
%TO.C,R16*%
%TO.CFtp,R_0603_1608Metric*%
%TO.CVal,10R*%
%TO.CLbN,Resistor_SMD*%
%TO.CMnt,SMD*%
%TO.CRot,0*%
X90350000Y-72075000D03*
D11*
X91825000Y-71350000D02*
X91825000Y-72800000D01*
X88875000Y-72800000D01*
X88875000Y-71350000D01*
X91825000Y-71350000D01*
D12*
%TO.P,R16,1*%
X89525000Y-72075000D03*
D13*
%TO.P,R16,2*%
X91175000Y-72075000D03*
%TD*%
D10*
%TO.C,U8*%
%TO.CFtp,SOT-23-5*%
%TO.CVal,TL331KDBVR*%
%TO.CLbN,Package_TO_SOT_SMD*%
%TO.CMnt,SMD*%
%TO.CRot,0*%
X86350000Y-69725000D03*
D11*
X88395000Y-68030000D02*
X88395000Y-71420000D01*
X84305000Y-71420000D01*
X84305000Y-68030000D01*
X88395000Y-68030000D01*
D12*
%TO.P,U8,1,-*%
X85212500Y-68775000D03*
D13*
%TO.P,U8,2,V-*%
X85212500Y-69725000D03*
%TO.P,U8,3,+*%
X85212500Y-70675000D03*
%TO.P,U8,4*%
X87487500Y-70675000D03*
%TO.P,U8,5,V+*%
X87487500Y-68775000D03*
%TD*%
D10*
%TO.C,R39*%
%TO.CFtp,R_0402_1005Metric*%
%TO.CVal,1k*%
%TO.CLbN,Resistor_SMD*%
%TO.CMnt,SMD*%
%TO.CRot,90*%
X79325000Y-81625000D03*
D11*
X79790000Y-80700000D02*
X79790000Y-82550000D01*
X78860000Y-82550000D01*
X78860000Y-80700000D01*
X79790000Y-80700000D01*
D12*
%TO.P,R39,1*%
X79325000Y-82135000D03*
D13*
%TO.P,R39,2*%
X79325000Y-81115000D03*
%TD*%
D10*
%TO.C,C10*%
%TO.CFtp,C_1206_3216Metric*%
%TO.CVal,10uF*%
%TO.CLbN,Capacitor_SMD*%
%TO.CMnt,SMD*%
%TO.CRot,-90*%
X71174700Y-68493700D03*
D11*
X72319700Y-66198700D02*
X72319700Y-70788700D01*
X70029700Y-70788700D01*
X70029700Y-66198700D01*
X72319700Y-66198700D01*
D12*
%TO.P,C10,1*%
X71174700Y-67018700D03*
D13*
%TO.P,C10,2*%
X71174700Y-69968700D03*
%TD*%
D10*
%TO.C,R18*%
%TO.CFtp,R_0402_1005Metric*%
%TO.CVal,10k*%
%TO.CLbN,Resistor_SMD*%
%TO.CMnt,SMD*%
%TO.CRot,90*%
X92950000Y-68375000D03*
D11*
X93415000Y-67450000D02*
X93415000Y-69300000D01*
X92485000Y-69300000D01*
X92485000Y-67450000D01*
X93415000Y-67450000D01*
D12*
%TO.P,R18,1*%
X92950000Y-68885000D03*
D13*
%TO.P,R18,2*%
X92950000Y-67865000D03*
%TD*%
D10*
%TO.C,C8*%
%TO.CFtp,C_0402_1005Metric*%
%TO.CVal,100nF*%
%TO.CLbN,Capacitor_SMD*%
%TO.CMnt,SMD*%
%TO.CRot,0*%
X83155000Y-68730000D03*
D11*
X84060000Y-68275000D02*
X84060000Y-69185000D01*
X82250000Y-69185000D01*
X82250000Y-68275000D01*
X84060000Y-68275000D01*
D12*
%TO.P,C8,1*%
X82675000Y-68730000D03*
D13*
%TO.P,C8,2*%
X83635000Y-68730000D03*
%TD*%
D10*
%TO.C,C23*%
%TO.CFtp,C_0603_1608Metric*%
%TO.CVal,1nF*%
%TO.CLbN,Capacitor_SMD*%
%TO.CMnt,SMD*%
%TO.CRot,-90*%
X82106250Y-76175000D03*
D11*
X82831250Y-74700000D02*
X82831250Y-77650000D01*
X81381250Y-77650000D01*
X81381250Y-74700000D01*
X82831250Y-74700000D01*
D12*
%TO.P,C23,1*%
X82106250Y-75400000D03*
D13*
%TO.P,C23,2*%
X82106250Y-76950000D03*
%TD*%
D10*
%TO.C,R37*%
%TO.CFtp,R_0402_1005Metric*%
%TO.CVal,4k7*%
%TO.CLbN,Resistor_SMD*%
%TO.CMnt,SMD*%
%TO.CRot,0*%
X71050000Y-53375000D03*
D11*
X71975000Y-52910000D02*
X71975000Y-53840000D01*
X70125000Y-53840000D01*
X70125000Y-52910000D01*
X71975000Y-52910000D01*
D12*
%TO.P,R37,1*%
X70540000Y-53375000D03*
D13*
%TO.P,R37,2*%
X71560000Y-53375000D03*
%TD*%
D10*
%TO.C,C20*%
%TO.CFtp,C_0402_1005Metric*%
%TO.CVal,/*%
%TO.CLbN,Capacitor_SMD*%
%TO.CMnt,SMD*%
%TO.CRot,0*%
X86800000Y-66025000D03*
D11*
X87705000Y-65570000D02*
X87705000Y-66480000D01*
X85895000Y-66480000D01*
X85895000Y-65570000D01*
X87705000Y-65570000D01*
D12*
%TO.P,C20,1*%
X86320000Y-66025000D03*
D13*
%TO.P,C20,2*%
X87280000Y-66025000D03*
%TD*%
D10*
%TO.C,R42*%
%TO.CFtp,R_0402_1005Metric*%
%TO.CVal,5k1*%
%TO.CLbN,Resistor_SMD*%
%TO.CMnt,SMD*%
%TO.CRot,-90*%
X69050000Y-64175000D03*
D11*
X69515000Y-63250000D02*
X69515000Y-65100000D01*
X68585000Y-65100000D01*
X68585000Y-63250000D01*
X69515000Y-63250000D01*
D12*
%TO.P,R42,1*%
X69050000Y-63665000D03*
D13*
%TO.P,R42,2*%
X69050000Y-64685000D03*
%TD*%
D10*
%TO.C,R26*%
%TO.CFtp,R_0402_1005Metric*%
%TO.CVal,87k6*%
%TO.CLbN,Resistor_SMD*%
%TO.CMnt,SMD*%
%TO.CRot,-90*%
X71350000Y-59400000D03*
D11*
X71815000Y-58475000D02*
X71815000Y-60325000D01*
X70885000Y-60325000D01*
X70885000Y-58475000D01*
X71815000Y-58475000D01*
D12*
%TO.P,R26,1*%
X71350000Y-58890000D03*
D13*
%TO.P,R26,2*%
X71350000Y-59910000D03*
%TD*%
D10*
%TO.C,R30*%
%TO.CFtp,R_0402_1005Metric*%
%TO.CVal,2k2*%
%TO.CLbN,Resistor_SMD*%
%TO.CMnt,SMD*%
%TO.CRot,90*%
X83600000Y-70250000D03*
D11*
X84065000Y-69325000D02*
X84065000Y-71175000D01*
X83135000Y-71175000D01*
X83135000Y-69325000D01*
X84065000Y-69325000D01*
D12*
%TO.P,R30,1*%
X83600000Y-70760000D03*
D13*
%TO.P,R30,2*%
X83600000Y-69740000D03*
%TD*%
D10*
%TO.C,C16*%
%TO.CFtp,C_0402_1005Metric*%
%TO.CVal,100nF*%
%TO.CLbN,Capacitor_SMD*%
%TO.CMnt,SMD*%
%TO.CRot,-90*%
X70120000Y-49722000D03*
D11*
X70575000Y-48817000D02*
X70575000Y-50627000D01*
X69665000Y-50627000D01*
X69665000Y-48817000D01*
X70575000Y-48817000D01*
D12*
%TO.P,C16,1*%
X70120000Y-49242000D03*
D13*
%TO.P,C16,2*%
X70120000Y-50202000D03*
%TD*%
D10*
%TO.C,Q6*%
%TO.CFtp,SOT-323_SC-70*%
%TO.CVal,2N7002W*%
%TO.CLbN,Package_TO_SOT_SMD*%
%TO.CMnt,SMD*%
%TO.CRot,180*%
X81575000Y-81097500D03*
D11*
X83270000Y-79802500D02*
X83270000Y-82392500D01*
X79880000Y-82392500D01*
X79880000Y-79802500D01*
X83270000Y-79802500D01*
D12*
%TO.P,Q6,1,G*%
X82575000Y-81747500D03*
D13*
%TO.P,Q6,2,S*%
X82575000Y-80447500D03*
%TO.P,Q6,3,D*%
X80575000Y-81097500D03*
%TD*%
D10*
%TO.C,J10*%
%TO.CFtp,BarrelJack_Wuerth_6941xx301002*%
%TO.CVal,694108301002*%
%TO.CLbN,Connector_BarrelJack*%
%TO.CMnt,TH*%
%TO.CRot,-90*%
X71500000Y-80850000D03*
D11*
X72895000Y-75855000D02*
X72895000Y-85845000D01*
X70995000Y-85845000D01*
X70995000Y-87045000D01*
X66005000Y-87045000D01*
X66005000Y-85845000D01*
X57405000Y-85845000D01*
X57405000Y-75855000D01*
X72895000Y-75855000D01*
D12*
%TO.P,J10,1*%
X71500000Y-80850000D03*
D13*
%TO.P,J10,2*%
X65700000Y-80850000D03*
%TO.P,J10,3*%
X68500000Y-85650000D03*
%TD*%
D10*
%TO.C,C21*%
%TO.CFtp,C_0603_1608Metric*%
%TO.CVal,100nF*%
%TO.CLbN,Capacitor_SMD*%
%TO.CMnt,SMD*%
%TO.CRot,90*%
X82106250Y-73075000D03*
D11*
X82831250Y-71600000D02*
X82831250Y-74550000D01*
X81381250Y-74550000D01*
X81381250Y-71600000D01*
X82831250Y-71600000D01*
D12*
%TO.P,C21,1*%
X82106250Y-73850000D03*
D13*
%TO.P,C21,2*%
X82106250Y-72300000D03*
%TD*%
D10*
%TO.C,R14*%
%TO.CFtp,R_0603_1608Metric*%
%TO.CVal,2k*%
%TO.CLbN,Resistor_SMD*%
%TO.CMnt,SMD*%
%TO.CRot,180*%
X90025000Y-73700000D03*
D11*
X91500000Y-72975000D02*
X91500000Y-74425000D01*
X88550000Y-74425000D01*
X88550000Y-72975000D01*
X91500000Y-72975000D01*
D12*
%TO.P,R14,1*%
X90850000Y-73700000D03*
D13*
%TO.P,R14,2*%
X89200000Y-73700000D03*
%TD*%
D10*
%TO.C,C1*%
%TO.CFtp,C_1210_3225Metric*%
%TO.CVal,2.2uF*%
%TO.CLbN,Capacitor_SMD*%
%TO.CMnt,SMD*%
%TO.CRot,-90*%
X68683700Y-73483700D03*
D11*
X70278700Y-71188700D02*
X70278700Y-75778700D01*
X67088700Y-75778700D01*
X67088700Y-71188700D01*
X70278700Y-71188700D01*
D12*
%TO.P,C1,1*%
X68683700Y-72008700D03*
D13*
%TO.P,C1,2*%
X68683700Y-74958700D03*
%TD*%
D10*
%TO.C,R40*%
%TO.CFtp,R_0402_1005Metric*%
%TO.CVal,4k7*%
%TO.CLbN,Resistor_SMD*%
%TO.CMnt,SMD*%
%TO.CRot,90*%
X81425000Y-86725000D03*
D11*
X81890000Y-85800000D02*
X81890000Y-87650000D01*
X80960000Y-87650000D01*
X80960000Y-85800000D01*
X81890000Y-85800000D01*
D12*
%TO.P,R40,1*%
X81425000Y-87235000D03*
D13*
%TO.P,R40,2*%
X81425000Y-86215000D03*
%TD*%
M02*
