M48
; DRILL file {KiCad 9.0.3-9.0.3-0~ubuntu24.04.1} date 2025-08-08T20:57:37+0200
; FORMAT={-:-/ absolute / inch / decimal}
; #@! TF.CreationDate,2025-08-08T20:57:37+02:00
; #@! TF.GenerationSoftware,Kicad,Pcbnew,9.0.3-9.0.3-0~ubuntu24.04.1
; #@! TF.FileFunction,Plated,1,2,PTH
FMAT,2
INCH
; #@! TA.AperFunction,Plated,PTH,ComponentDrill
T1C0.0079
; #@! TA.AperFunction,Plated,PTH,ViaDrill
T2C0.0118
; #@! TA.AperFunction,Plated,PTH,ViaDrill
T3C0.0157
; #@! TA.AperFunction,Plated,PTH,ComponentDrill
T4C0.0236
; #@! TA.AperFunction,Plated,PTH,ComponentDrill
T5C0.0315
; #@! TA.AperFunction,Plated,PTH,ComponentDrill
T6C0.0394
%
G90
G05
T1
X3.1118Y-2.018
X3.1118Y-2.0771
X3.1413Y-1.9885
X3.1413Y-2.0476
X3.1413Y-2.1066
X3.1709Y-2.018
X3.1709Y-2.0771
X3.2004Y-1.9885
X3.2004Y-2.0476
X3.2004Y-2.1066
X3.2299Y-2.018
X3.2299Y-2.0771
T2
X2.4016Y-3.0315
X2.4016Y-3.189
X2.4016Y-3.3858
X2.5443Y-2.2195
X2.6246Y-1.8696
X2.6293Y-2.6805
X2.6575Y-3.0118
X2.6585Y-1.9823
X2.6772Y-3.5433
X2.7106Y-2.1004
X2.7205Y-1.8986
X2.7323Y-2.1791
X2.7362Y-2.6969
X2.7362Y-3.0118
X2.7441Y-2.0167
X2.753Y-2.0925
X2.7559Y-2.0591
X2.7815Y-2.4144
X2.7911Y-2.2962
X2.8041Y-2.1841
X2.8209Y-2.2862
X2.8269Y-2.2552
X2.8346Y-1.997
X2.8346Y-3.5433
X2.8671Y-2.8708
X2.9331Y-2.8602
X2.9444Y-2.1399
X2.9526Y-1.9256
X2.9528Y-2.0079
X2.9528Y-2.2362
X2.9606Y-2.5984
X2.9616Y-2.8957
X2.9632Y-2.1652
X2.9645Y-2.1157
X2.9921Y-2.4606
X3.0118Y-3.248
X3.0226Y-3.0384
X3.0288Y-2.8673
X3.032Y-2.9419
X3.0512Y-3.248
X3.0541Y-2.9882
X3.0551Y-2.4933
X3.063Y-2.8612
X3.0866Y-2.4921
X3.1102Y-3.0315
X3.1102Y-3.1496
X3.123Y-3.3396
X3.1299Y-2.4409
X3.1392Y-2.4861
X3.189Y-3.0315
X3.189Y-3.1496
X3.1892Y-2.4861
X3.2018Y-2.9163
X3.2087Y-2.6969
X3.2087Y-2.7953
X3.2283Y-3.3465
X3.2776Y-2.876
X3.2795Y-3.2185
X3.2874Y-3.3465
X3.3071Y-2.4606
X3.3268Y-1.9685
X3.3356Y-3.4075
X3.3661Y-2.2047
X3.3661Y-3.1299
X3.4055Y-2.4921
X3.4055Y-2.7825
X3.4626Y-2.6398
X3.4646Y-3.5433
X3.4813Y-2.9016
X3.4862Y-2.7087
X3.5006Y-2.263
X3.5039Y-1.9685
X3.5039Y-2.3228
X3.5055Y-2.0236
X3.5104Y-2.1378
X3.5106Y-2.0866
X3.5106Y-2.1869
X3.5236Y-2.6378
X3.5236Y-2.9528
X3.5236Y-3.1693
X3.563Y-2.5404
X3.5827Y-2.7756
X3.6181Y-1.8419
X3.6266Y-2.2156
X3.6319Y-2.3425
X3.6346Y-2.4386
X3.6734Y-1.8413
X3.6772Y-1.9606
X3.7008Y-2.9528
X3.7008Y-3.3858
T3
X2.5746Y-2.0876
X2.6426Y-2.0896
X2.7506Y-1.8176
X2.7894Y-2.5246
X2.9128Y-3.3208
X2.9429Y-3.315
X2.9606Y-1.8476
X3.2406Y-1.8476
X3.4706Y-1.8476
X3.6746Y-2.0236
T5
X3.7008Y-2.0787
X3.7008Y-2.1575
X3.7008Y-2.2362
X3.7008Y-2.315
X3.7008Y-2.3937
X3.7008Y-2.4724
T6
X2.9262Y-3.4971
X3.0262Y-3.4971
X3.5906Y-3.0118
X3.5906Y-3.1118
X3.5906Y-3.2118
X3.5906Y-3.3118
T4
G00X2.4813Y-2.2197
M15
G01X2.4498Y-2.2197
M16
G05
G00X2.4813Y-2.5598
M15
G01X2.4498Y-2.5598
M16
G05
G00X2.6518Y-2.2197
M15
G01X2.6085Y-2.2197
M16
G05
G00X2.6518Y-2.5598
M15
G01X2.6085Y-2.5598
M16
G05
T5
G00X2.5866Y-3.1398
M15
G01X2.5866Y-3.2264
M16
G05
G00X2.6535Y-3.372
M15
G01X2.7402Y-3.372
M16
G05
G00X2.815Y-3.1319
M15
G01X2.815Y-3.2343
M16
G05
M30
