%TF.GenerationSoftware,KiCad,Pcbnew,9.0.3-9.0.3-0~ubuntu24.04.1*%
%TF.CreationDate,2025-08-08T20:57:39+02:00*%
%TF.ProjectId,MCM-LIN,4d434d2d-4c49-44e2-9e6b-696361645f70,rev?*%
%TF.SameCoordinates,Original*%
%TF.FileFunction,Soldermask,Bot*%
%TF.FilePolarity,Negative*%
%FSLAX46Y46*%
G04 Gerber Fmt 4.6, Leading zero omitted, Abs format (unit mm)*
G04 Created by KiCad (PCBNEW 9.0.3-9.0.3-0~ubuntu24.04.1) date 2025-08-08 20:57:39*
%MOMM*%
%LPD*%
G01*
G04 APERTURE LIST*
G04 Aperture macros list*
%AMRoundRect*
0 Rectangle with rounded corners*
0 $1 Rounding radius*
0 $2 $3 $4 $5 $6 $7 $8 $9 X,Y pos of 4 corners*
0 Add a 4 corners polygon primitive as box body*
4,1,4,$2,$3,$4,$5,$6,$7,$8,$9,$2,$3,0*
0 Add four circle primitives for the rounded corners*
1,1,$1+$1,$2,$3*
1,1,$1+$1,$4,$5*
1,1,$1+$1,$6,$7*
1,1,$1+$1,$8,$9*
0 Add four rect primitives between the rounded corners*
20,1,$1+$1,$2,$3,$4,$5,0*
20,1,$1+$1,$4,$5,$6,$7,0*
20,1,$1+$1,$6,$7,$8,$9,0*
20,1,$1+$1,$8,$9,$2,$3,0*%
G04 Aperture macros list end*
%ADD10C,2.525000*%
%ADD11C,0.650000*%
%ADD12O,2.100000X1.000000*%
%ADD13O,1.800000X1.000000*%
%ADD14RoundRect,0.425000X1.125000X-0.425000X1.125000X0.425000X-1.125000X0.425000X-1.125000X-0.425000X0*%
%ADD15R,1.350000X1.350000*%
%ADD16O,1.350000X1.350000*%
%ADD17R,1.700000X1.700000*%
%ADD18O,1.700000X1.700000*%
%ADD19R,1.800000X4.400000*%
%ADD20O,1.800000X4.000000*%
%ADD21O,4.000000X1.800000*%
%ADD22C,1.000000*%
%ADD23C,1.500000*%
G04 APERTURE END LIST*
D10*
X78762500Y-68500000D02*
G75*
G02*
X76237500Y-68500000I-1262500J0D01*
G01*
X76237500Y-68500000D02*
G75*
G02*
X78762500Y-68500000I1262500J0D01*
G01*
X63762500Y-88500000D02*
G75*
G02*
X61237500Y-88500000I-1262500J0D01*
G01*
X61237500Y-88500000D02*
G75*
G02*
X63762500Y-88500000I1262500J0D01*
G01*
X93762500Y-88500000D02*
G75*
G02*
X91237500Y-88500000I-1262500J0D01*
G01*
X91237500Y-88500000D02*
G75*
G02*
X93762500Y-88500000I1262500J0D01*
G01*
D11*
%TO.C,J1*%
X66305000Y-57810000D03*
X66305000Y-63590000D03*
D12*
X66805000Y-56380000D03*
D13*
X62625000Y-56380000D03*
D12*
X66805000Y-65020000D03*
D13*
X62625000Y-65020000D03*
%TD*%
D14*
%TO.C,J4*%
X91700000Y-76500000D03*
X91700000Y-79040000D03*
X91700000Y-81580000D03*
X91700000Y-84120000D03*
%TD*%
D15*
%TO.C,J3*%
X94000000Y-52800000D03*
D16*
X94000000Y-54800000D03*
X94000000Y-56800000D03*
X94000000Y-58800000D03*
X94000000Y-60800000D03*
X94000000Y-62800000D03*
%TD*%
D17*
%TO.C,J2*%
X74325000Y-88826573D03*
D18*
X76865000Y-88826573D03*
%TD*%
D19*
%TO.C,J10*%
X71500000Y-80850000D03*
D20*
X65700000Y-80850000D03*
D21*
X68500000Y-85650000D03*
%TD*%
D22*
%TO.C,TP11*%
X72000000Y-49800000D03*
%TD*%
%TO.C,TP9*%
X75000000Y-49800000D03*
%TD*%
%TO.C,TP6*%
X87000000Y-58800000D03*
%TD*%
D23*
%TO.C,TP8*%
X66000000Y-68800000D03*
%TD*%
%TO.C,TP2*%
X69000000Y-49800000D03*
%TD*%
%TO.C,TP10*%
X74000000Y-83000000D03*
%TD*%
%TO.C,TP7*%
X69000000Y-56800000D03*
%TD*%
D22*
%TO.C,TP4*%
X87000000Y-52800000D03*
%TD*%
D23*
%TO.C,TP1*%
X66000000Y-49800000D03*
%TD*%
D22*
%TO.C,TP3*%
X87000000Y-54800000D03*
%TD*%
%TO.C,TP12*%
X75000000Y-56800000D03*
%TD*%
%TO.C,TP5*%
X87000000Y-56800000D03*
%TD*%
M02*
