%TF.GenerationSoftware,KiCad,Pcbnew,9.0.3-9.0.3-0~ubuntu24.04.1*%
%TF.CreationDate,2025-08-08T20:57:39+02:00*%
%TF.ProjectId,MCM-LIN,4d434d2d-4c49-44e2-9e6b-696361645f70,rev?*%
%TF.SameCoordinates,Original*%
%TF.FileFunction,Legend,Bot*%
%TF.FilePolarity,Positive*%
%FSLAX46Y46*%
G04 Gerber Fmt 4.6, Leading zero omitted, Abs format (unit mm)*
G04 Created by KiCad (PCBNEW 9.0.3-9.0.3-0~ubuntu24.04.1) date 2025-08-08 20:57:39*
%MOMM*%
%LPD*%
G01*
G04 APERTURE LIST*
%ADD10C,0.250000*%
%ADD11C,0.120000*%
%ADD12C,0.000000*%
G04 APERTURE END LIST*
D10*
X89721241Y-83462142D02*
X89321241Y-84662142D01*
X89321241Y-84662142D02*
X88921241Y-83462142D01*
X88578384Y-84605000D02*
X88406956Y-84662142D01*
X88406956Y-84662142D02*
X88121241Y-84662142D01*
X88121241Y-84662142D02*
X88006956Y-84605000D01*
X88006956Y-84605000D02*
X87949813Y-84547857D01*
X87949813Y-84547857D02*
X87892670Y-84433571D01*
X87892670Y-84433571D02*
X87892670Y-84319285D01*
X87892670Y-84319285D02*
X87949813Y-84205000D01*
X87949813Y-84205000D02*
X88006956Y-84147857D01*
X88006956Y-84147857D02*
X88121241Y-84090714D01*
X88121241Y-84090714D02*
X88349813Y-84033571D01*
X88349813Y-84033571D02*
X88464098Y-83976428D01*
X88464098Y-83976428D02*
X88521241Y-83919285D01*
X88521241Y-83919285D02*
X88578384Y-83805000D01*
X88578384Y-83805000D02*
X88578384Y-83690714D01*
X88578384Y-83690714D02*
X88521241Y-83576428D01*
X88521241Y-83576428D02*
X88464098Y-83519285D01*
X88464098Y-83519285D02*
X88349813Y-83462142D01*
X88349813Y-83462142D02*
X88064098Y-83462142D01*
X88064098Y-83462142D02*
X87892670Y-83519285D01*
X87378384Y-83462142D02*
X87378384Y-84433571D01*
X87378384Y-84433571D02*
X87321241Y-84547857D01*
X87321241Y-84547857D02*
X87264099Y-84605000D01*
X87264099Y-84605000D02*
X87149813Y-84662142D01*
X87149813Y-84662142D02*
X86921241Y-84662142D01*
X86921241Y-84662142D02*
X86806956Y-84605000D01*
X86806956Y-84605000D02*
X86749813Y-84547857D01*
X86749813Y-84547857D02*
X86692670Y-84433571D01*
X86692670Y-84433571D02*
X86692670Y-83462142D01*
X86121241Y-84662142D02*
X86121241Y-83462142D01*
X86121241Y-83462142D02*
X85664098Y-83462142D01*
X85664098Y-83462142D02*
X85549813Y-83519285D01*
X85549813Y-83519285D02*
X85492670Y-83576428D01*
X85492670Y-83576428D02*
X85435527Y-83690714D01*
X85435527Y-83690714D02*
X85435527Y-83862142D01*
X85435527Y-83862142D02*
X85492670Y-83976428D01*
X85492670Y-83976428D02*
X85549813Y-84033571D01*
X85549813Y-84033571D02*
X85664098Y-84090714D01*
X85664098Y-84090714D02*
X86121241Y-84090714D01*
X88978384Y-79582142D02*
X89549812Y-79582142D01*
X89549812Y-79582142D02*
X89549812Y-78382142D01*
X88578383Y-79582142D02*
X88578383Y-78382142D01*
X88006954Y-79582142D02*
X88006954Y-78382142D01*
X88006954Y-78382142D02*
X87321240Y-79582142D01*
X87321240Y-79582142D02*
X87321240Y-78382142D01*
X81328571Y-62742142D02*
X81328571Y-61542142D01*
X81328571Y-61542142D02*
X80928571Y-62399285D01*
X80928571Y-62399285D02*
X80528571Y-61542142D01*
X80528571Y-61542142D02*
X80528571Y-62742142D01*
X79271428Y-62627857D02*
X79328571Y-62685000D01*
X79328571Y-62685000D02*
X79499999Y-62742142D01*
X79499999Y-62742142D02*
X79614285Y-62742142D01*
X79614285Y-62742142D02*
X79785714Y-62685000D01*
X79785714Y-62685000D02*
X79899999Y-62570714D01*
X79899999Y-62570714D02*
X79957142Y-62456428D01*
X79957142Y-62456428D02*
X80014285Y-62227857D01*
X80014285Y-62227857D02*
X80014285Y-62056428D01*
X80014285Y-62056428D02*
X79957142Y-61827857D01*
X79957142Y-61827857D02*
X79899999Y-61713571D01*
X79899999Y-61713571D02*
X79785714Y-61599285D01*
X79785714Y-61599285D02*
X79614285Y-61542142D01*
X79614285Y-61542142D02*
X79499999Y-61542142D01*
X79499999Y-61542142D02*
X79328571Y-61599285D01*
X79328571Y-61599285D02*
X79271428Y-61656428D01*
X78757142Y-62742142D02*
X78757142Y-61542142D01*
X78757142Y-61542142D02*
X78357142Y-62399285D01*
X78357142Y-62399285D02*
X77957142Y-61542142D01*
X77957142Y-61542142D02*
X77957142Y-62742142D01*
X77385713Y-62285000D02*
X76471428Y-62285000D01*
X75328571Y-62742142D02*
X75899999Y-62742142D01*
X75899999Y-62742142D02*
X75899999Y-61542142D01*
X74928570Y-62742142D02*
X74928570Y-61542142D01*
X74357141Y-62742142D02*
X74357141Y-61542142D01*
X74357141Y-61542142D02*
X73671427Y-62742142D01*
X73671427Y-62742142D02*
X73671427Y-61542142D01*
X88921241Y-75899285D02*
X89035527Y-75842142D01*
X89035527Y-75842142D02*
X89206955Y-75842142D01*
X89206955Y-75842142D02*
X89378384Y-75899285D01*
X89378384Y-75899285D02*
X89492669Y-76013571D01*
X89492669Y-76013571D02*
X89549812Y-76127857D01*
X89549812Y-76127857D02*
X89606955Y-76356428D01*
X89606955Y-76356428D02*
X89606955Y-76527857D01*
X89606955Y-76527857D02*
X89549812Y-76756428D01*
X89549812Y-76756428D02*
X89492669Y-76870714D01*
X89492669Y-76870714D02*
X89378384Y-76985000D01*
X89378384Y-76985000D02*
X89206955Y-77042142D01*
X89206955Y-77042142D02*
X89092669Y-77042142D01*
X89092669Y-77042142D02*
X88921241Y-76985000D01*
X88921241Y-76985000D02*
X88864098Y-76927857D01*
X88864098Y-76927857D02*
X88864098Y-76527857D01*
X88864098Y-76527857D02*
X89092669Y-76527857D01*
X88349812Y-77042142D02*
X88349812Y-75842142D01*
X88349812Y-75842142D02*
X87664098Y-77042142D01*
X87664098Y-77042142D02*
X87664098Y-75842142D01*
X87092669Y-77042142D02*
X87092669Y-75842142D01*
X87092669Y-75842142D02*
X86806955Y-75842142D01*
X86806955Y-75842142D02*
X86635526Y-75899285D01*
X86635526Y-75899285D02*
X86521241Y-76013571D01*
X86521241Y-76013571D02*
X86464098Y-76127857D01*
X86464098Y-76127857D02*
X86406955Y-76356428D01*
X86406955Y-76356428D02*
X86406955Y-76527857D01*
X86406955Y-76527857D02*
X86464098Y-76756428D01*
X86464098Y-76756428D02*
X86521241Y-76870714D01*
X86521241Y-76870714D02*
X86635526Y-76985000D01*
X86635526Y-76985000D02*
X86806955Y-77042142D01*
X86806955Y-77042142D02*
X87092669Y-77042142D01*
D11*
%TO.C,TP11*%
X72700000Y-49800000D02*
G75*
G02*
X71300000Y-49800000I-700000J0D01*
G01*
X71300000Y-49800000D02*
G75*
G02*
X72700000Y-49800000I700000J0D01*
G01*
%TO.C,TP9*%
X75700000Y-49800000D02*
G75*
G02*
X74300000Y-49800000I-700000J0D01*
G01*
X74300000Y-49800000D02*
G75*
G02*
X75700000Y-49800000I700000J0D01*
G01*
%TO.C,TP6*%
X87700000Y-58800000D02*
G75*
G02*
X86300000Y-58800000I-700000J0D01*
G01*
X86300000Y-58800000D02*
G75*
G02*
X87700000Y-58800000I700000J0D01*
G01*
%TO.C,TP8*%
X66950000Y-68800000D02*
G75*
G02*
X65050000Y-68800000I-950000J0D01*
G01*
X65050000Y-68800000D02*
G75*
G02*
X66950000Y-68800000I950000J0D01*
G01*
%TO.C,TP2*%
X69950000Y-49800000D02*
G75*
G02*
X68050000Y-49800000I-950000J0D01*
G01*
X68050000Y-49800000D02*
G75*
G02*
X69950000Y-49800000I950000J0D01*
G01*
%TO.C,TP10*%
X74950000Y-83000000D02*
G75*
G02*
X73050000Y-83000000I-950000J0D01*
G01*
X73050000Y-83000000D02*
G75*
G02*
X74950000Y-83000000I950000J0D01*
G01*
%TO.C,TP7*%
X69950000Y-56800000D02*
G75*
G02*
X68050000Y-56800000I-950000J0D01*
G01*
X68050000Y-56800000D02*
G75*
G02*
X69950000Y-56800000I950000J0D01*
G01*
%TO.C,TP4*%
X87700000Y-52800000D02*
G75*
G02*
X86300000Y-52800000I-700000J0D01*
G01*
X86300000Y-52800000D02*
G75*
G02*
X87700000Y-52800000I700000J0D01*
G01*
%TO.C,TP1*%
X66950000Y-49800000D02*
G75*
G02*
X65050000Y-49800000I-950000J0D01*
G01*
X65050000Y-49800000D02*
G75*
G02*
X66950000Y-49800000I950000J0D01*
G01*
D12*
%TO.C,LOG1*%
G36*
X71603857Y-58995945D02*
G01*
X71507676Y-58995945D01*
X71507676Y-58907779D01*
X71603857Y-58907779D01*
X71603857Y-58995945D01*
G37*
G36*
X72389342Y-58915794D02*
G01*
X72229039Y-58915794D01*
X72229039Y-58755491D01*
X72389342Y-58755491D01*
X72389342Y-58915794D01*
G37*
G36*
X72846205Y-58507021D02*
G01*
X72645826Y-58507021D01*
X72645826Y-58298628D01*
X72846205Y-58298628D01*
X72846205Y-58507021D01*
G37*
G36*
X72846205Y-59132203D02*
G01*
X72669872Y-59132203D01*
X72669872Y-58955870D01*
X72846205Y-58955870D01*
X72846205Y-59132203D01*
G37*
G36*
X72902311Y-59637157D02*
G01*
X72830175Y-59637157D01*
X72830175Y-59573036D01*
X72902311Y-59573036D01*
X72902311Y-59637157D01*
G37*
G36*
X73375205Y-58731446D02*
G01*
X73142765Y-58731446D01*
X73142765Y-58499006D01*
X73375205Y-58499006D01*
X73375205Y-58731446D01*
G37*
G36*
X73295053Y-59316551D02*
G01*
X73158796Y-59316551D01*
X73158796Y-59172279D01*
X73295053Y-59172279D01*
X73295053Y-59316551D01*
G37*
G36*
X73695811Y-58242522D02*
G01*
X73415280Y-58242522D01*
X73415280Y-57961992D01*
X73695811Y-57961992D01*
X73695811Y-58242522D01*
G37*
G36*
X73904204Y-58939839D02*
G01*
X73623674Y-58939839D01*
X73623674Y-58659309D01*
X73904204Y-58659309D01*
X73904204Y-58939839D01*
G37*
G36*
X74681674Y-59260445D02*
G01*
X74409159Y-59260445D01*
X74409159Y-58987930D01*
X74681674Y-58987930D01*
X74681674Y-59260445D01*
G37*
G36*
X74681674Y-60703172D02*
G01*
X74409159Y-60703172D01*
X74409159Y-59557006D01*
X74681674Y-59557006D01*
X74681674Y-60703172D01*
G37*
G36*
X74954189Y-58707400D02*
G01*
X74777855Y-58707400D01*
X74777855Y-58531067D01*
X74954189Y-58531067D01*
X74954189Y-58707400D01*
G37*
G36*
X77903763Y-60703172D02*
G01*
X77631248Y-60703172D01*
X77631248Y-58987930D01*
X77903763Y-58987930D01*
X77903763Y-60703172D01*
G37*
G36*
X72517584Y-59565021D02*
G01*
X72356701Y-59565021D01*
X72361289Y-59408725D01*
X72439436Y-59406431D01*
X72517584Y-59404137D01*
X72517584Y-59565021D01*
G37*
G36*
X74433204Y-58483355D02*
G01*
X74294943Y-58481162D01*
X74156682Y-58478968D01*
X74154488Y-58340707D01*
X74152295Y-58202446D01*
X74433204Y-58202446D01*
X74433204Y-58483355D01*
G37*
G36*
X72032668Y-59192317D02*
G01*
X72035084Y-59243571D01*
X72035726Y-59268564D01*
X72035154Y-59292368D01*
X72033332Y-59305688D01*
X72025986Y-59311649D01*
X72006375Y-59315383D01*
X71972806Y-59316551D01*
X71916448Y-59316551D01*
X71916448Y-59187607D01*
X72032668Y-59192317D01*
G37*
G36*
X75401446Y-58963041D02*
G01*
X75402072Y-58988032D01*
X75401452Y-59011991D01*
X75399558Y-59025511D01*
X75398310Y-59027742D01*
X75389038Y-59032772D01*
X75369557Y-59034848D01*
X75337028Y-59034371D01*
X75278802Y-59032014D01*
X75278802Y-58911786D01*
X75399029Y-58911786D01*
X75401446Y-58963041D01*
G37*
G36*
X73875495Y-59543679D02*
G01*
X73946844Y-59567738D01*
X74011791Y-59604756D01*
X74068172Y-59654206D01*
X74100241Y-59695500D01*
X74130875Y-59755874D01*
X74148404Y-59821043D01*
X74152070Y-59887901D01*
X74141117Y-59953341D01*
X74138319Y-59962555D01*
X74121224Y-60005747D01*
X74098040Y-60044260D01*
X74067173Y-60079450D01*
X74027030Y-60112675D01*
X73976016Y-60145293D01*
X73912538Y-60178662D01*
X73835003Y-60214139D01*
X73821484Y-60220067D01*
X73780328Y-60238729D01*
X73742996Y-60256512D01*
X73713140Y-60271642D01*
X73694415Y-60282349D01*
X73679162Y-60293937D01*
X73655111Y-60319000D01*
X73638158Y-60345573D01*
X73631719Y-60368937D01*
X73631759Y-60371014D01*
X73640228Y-60399674D01*
X73661751Y-60427908D01*
X73693851Y-60452387D01*
X73706432Y-60459424D01*
X73729324Y-60469009D01*
X73754181Y-60473488D01*
X73787985Y-60474502D01*
X73828832Y-60471496D01*
X73868379Y-60460740D01*
X73907577Y-60440366D01*
X73951035Y-60408507D01*
X73985843Y-60380274D01*
X74091300Y-60431113D01*
X74107720Y-60439036D01*
X74143215Y-60456225D01*
X74172155Y-60470322D01*
X74191909Y-60480045D01*
X74199847Y-60484107D01*
X74200318Y-60487935D01*
X74192724Y-60502067D01*
X74176057Y-60524312D01*
X74151799Y-60552754D01*
X74121432Y-60585477D01*
X74072722Y-60630885D01*
X74008306Y-60675382D01*
X73937816Y-60706977D01*
X73858010Y-60727415D01*
X73834659Y-60730119D01*
X73799341Y-60731486D01*
X73763939Y-60730576D01*
X73692022Y-60720549D01*
X73620772Y-60697209D01*
X73555806Y-60659990D01*
X73494872Y-60607868D01*
X73471120Y-60582132D01*
X73428133Y-60520806D01*
X73400503Y-60455892D01*
X73388409Y-60387902D01*
X73392033Y-60317344D01*
X73399469Y-60281521D01*
X73417553Y-60229982D01*
X73444508Y-60183187D01*
X73481510Y-60140047D01*
X73529736Y-60099471D01*
X73590363Y-60060367D01*
X73664565Y-60021646D01*
X73753521Y-59982217D01*
X73777987Y-59971501D01*
X73828865Y-59944693D01*
X73867726Y-59917127D01*
X73892615Y-59890098D01*
X73898499Y-59879750D01*
X73901458Y-59863585D01*
X73896244Y-59841709D01*
X73894523Y-59836893D01*
X73880915Y-59814507D01*
X73859081Y-59799861D01*
X73826632Y-59791868D01*
X73781182Y-59789445D01*
X73756302Y-59789887D01*
X73727875Y-59792972D01*
X73703088Y-59800473D01*
X73674583Y-59814094D01*
X73651865Y-59826647D01*
X73622862Y-59844178D01*
X73600998Y-59859070D01*
X73574315Y-59879395D01*
X73552907Y-59859989D01*
X73540819Y-59849092D01*
X73518595Y-59829146D01*
X73490676Y-59804146D01*
X73460415Y-59777096D01*
X73389331Y-59713610D01*
X73424193Y-59682672D01*
X73439819Y-59669518D01*
X73488430Y-59634421D01*
X73543562Y-59601032D01*
X73599402Y-59572694D01*
X73650137Y-59552748D01*
X73722257Y-59536539D01*
X73799911Y-59533104D01*
X73875495Y-59543679D01*
G37*
G36*
X79333311Y-60004651D02*
G01*
X79344954Y-60096708D01*
X79343727Y-60190088D01*
X79329450Y-60281890D01*
X79301943Y-60369215D01*
X79278583Y-60419195D01*
X79228853Y-60496754D01*
X79167281Y-60565644D01*
X79095626Y-60624509D01*
X79015646Y-60671992D01*
X78929102Y-60706734D01*
X78837752Y-60727379D01*
X78831878Y-60728119D01*
X78797892Y-60730540D01*
X78757179Y-60731330D01*
X78717300Y-60730306D01*
X78702558Y-60729395D01*
X78601025Y-60715926D01*
X78508789Y-60689990D01*
X78424428Y-60650948D01*
X78346518Y-60598161D01*
X78273638Y-60530990D01*
X78256227Y-60512293D01*
X78235639Y-60489026D01*
X78221566Y-60471646D01*
X78216353Y-60462940D01*
X78217028Y-60461721D01*
X78226632Y-60452414D01*
X78245516Y-60436322D01*
X78270988Y-60415547D01*
X78300356Y-60392196D01*
X78330928Y-60368371D01*
X78360013Y-60346178D01*
X78384919Y-60327721D01*
X78402956Y-60315103D01*
X78411430Y-60310429D01*
X78413556Y-60311766D01*
X78424991Y-60321668D01*
X78443706Y-60339113D01*
X78466971Y-60361587D01*
X78482746Y-60376420D01*
X78543913Y-60422410D01*
X78609758Y-60453895D01*
X78682450Y-60471986D01*
X78700314Y-60474294D01*
X78773768Y-60474855D01*
X78843934Y-60461618D01*
X78908956Y-60435721D01*
X78966975Y-60398299D01*
X79016134Y-60350493D01*
X79054573Y-60293439D01*
X79080436Y-60228274D01*
X79088712Y-60198217D01*
X78157977Y-60198217D01*
X78162550Y-60112055D01*
X78172772Y-60019038D01*
X78186148Y-59965778D01*
X78463917Y-59965778D01*
X78758647Y-59965778D01*
X78825277Y-59965642D01*
X78886526Y-59965266D01*
X78940618Y-59964680D01*
X78985779Y-59963915D01*
X79020235Y-59963000D01*
X79042209Y-59961965D01*
X79049929Y-59960841D01*
X79048081Y-59955249D01*
X79037831Y-59938887D01*
X79021334Y-59917164D01*
X79001723Y-59893902D01*
X78982130Y-59872925D01*
X78965689Y-59858055D01*
X78950591Y-59847673D01*
X78921690Y-59830552D01*
X78891513Y-59815035D01*
X78870664Y-59805923D01*
X78850233Y-59799388D01*
X78827616Y-59795631D01*
X78798200Y-59793912D01*
X78757376Y-59793490D01*
X78748455Y-59793495D01*
X78710919Y-59793985D01*
X78683752Y-59795866D01*
X78662217Y-59799971D01*
X78641582Y-59807135D01*
X78617111Y-59818192D01*
X78591986Y-59831860D01*
X78547315Y-59864026D01*
X78507687Y-59902004D01*
X78478396Y-59941105D01*
X78463917Y-59965778D01*
X78186148Y-59965778D01*
X78194878Y-59931014D01*
X78229546Y-59850739D01*
X78277701Y-59776096D01*
X78340267Y-59704965D01*
X78408046Y-59645027D01*
X78484333Y-59595213D01*
X78565128Y-59560280D01*
X78651661Y-59539703D01*
X78745163Y-59532960D01*
X78766135Y-59533187D01*
X78852921Y-59540004D01*
X78930875Y-59557069D01*
X79003626Y-59585404D01*
X79074799Y-59626035D01*
X79097656Y-59642329D01*
X79145721Y-59683242D01*
X79193286Y-59731355D01*
X79235758Y-59781838D01*
X79268546Y-59829860D01*
X79272134Y-59836101D01*
X79308978Y-59916815D01*
X79321174Y-59960841D01*
X79333311Y-60004651D01*
G37*
G36*
X76063530Y-59587063D02*
G01*
X76056590Y-59596133D01*
X76039740Y-59617949D01*
X76015354Y-59649404D01*
X75984755Y-59688794D01*
X75949266Y-59734416D01*
X75910213Y-59784564D01*
X75868919Y-59837536D01*
X75835229Y-59880734D01*
X75797153Y-59929565D01*
X75763024Y-59973343D01*
X75734025Y-60010551D01*
X75711338Y-60039670D01*
X75696146Y-60059185D01*
X75689632Y-60067578D01*
X75689525Y-60069708D01*
X75695324Y-60081889D01*
X75709728Y-60104517D01*
X75732982Y-60137930D01*
X75765328Y-60182466D01*
X75807010Y-60238463D01*
X75858273Y-60306259D01*
X75919359Y-60386192D01*
X75923799Y-60391979D01*
X75970655Y-60453135D01*
X76014312Y-60510270D01*
X76053831Y-60562144D01*
X76088272Y-60607516D01*
X76116695Y-60645145D01*
X76138161Y-60673792D01*
X76151729Y-60692216D01*
X76156461Y-60699176D01*
X76156047Y-60699461D01*
X76145100Y-60700640D01*
X76121053Y-60701659D01*
X76086290Y-60702459D01*
X76043195Y-60702982D01*
X75994154Y-60703168D01*
X75831847Y-60703165D01*
X75675798Y-60502707D01*
X75654962Y-60476021D01*
X75618193Y-60429338D01*
X75585140Y-60387894D01*
X75557019Y-60353180D01*
X75535042Y-60326688D01*
X75520423Y-60309909D01*
X75514376Y-60304336D01*
X75513737Y-60304851D01*
X75505459Y-60314377D01*
X75489019Y-60334630D01*
X75465687Y-60364003D01*
X75436732Y-60400889D01*
X75403426Y-60443680D01*
X75367038Y-60490770D01*
X75359455Y-60500612D01*
X75322961Y-60547839D01*
X75289372Y-60591087D01*
X75260059Y-60628607D01*
X75236391Y-60658651D01*
X75219737Y-60679470D01*
X75211468Y-60689316D01*
X75205733Y-60694010D01*
X75197097Y-60697584D01*
X75183511Y-60700016D01*
X75162760Y-60701456D01*
X75132628Y-60702055D01*
X75090901Y-60701966D01*
X75035364Y-60701339D01*
X74872865Y-60699164D01*
X75109839Y-60390581D01*
X75114080Y-60385058D01*
X75160945Y-60323937D01*
X75204612Y-60266831D01*
X75244142Y-60214981D01*
X75278592Y-60169627D01*
X75307024Y-60132010D01*
X75328495Y-60103371D01*
X75342067Y-60084951D01*
X75346797Y-60077990D01*
X75346212Y-60076925D01*
X75338309Y-60065840D01*
X75321987Y-60043926D01*
X75298286Y-60012550D01*
X75268246Y-59973079D01*
X75232906Y-59926880D01*
X75193306Y-59875321D01*
X75150485Y-59819770D01*
X75135363Y-59800174D01*
X75093535Y-59745826D01*
X75055290Y-59695928D01*
X75021666Y-59651848D01*
X74993705Y-59614957D01*
X74972444Y-59586625D01*
X74958926Y-59568222D01*
X74954189Y-59561119D01*
X74954846Y-59560732D01*
X74966652Y-59559599D01*
X74991449Y-59558811D01*
X75026878Y-59558402D01*
X75070584Y-59558403D01*
X75120208Y-59558847D01*
X75286228Y-59561013D01*
X75396983Y-59705286D01*
X75413895Y-59727249D01*
X75444492Y-59766619D01*
X75471206Y-59800524D01*
X75492582Y-59827143D01*
X75507164Y-59844650D01*
X75513497Y-59851223D01*
X75516291Y-59849219D01*
X75527866Y-59836729D01*
X75546881Y-59814317D01*
X75571900Y-59783723D01*
X75601488Y-59746686D01*
X75634209Y-59704946D01*
X75749161Y-59557006D01*
X76086227Y-59557006D01*
X76063530Y-59587063D01*
G37*
G36*
X77373495Y-59974831D02*
G01*
X77379562Y-59997519D01*
X77383362Y-60020439D01*
X77385412Y-60047542D01*
X77386223Y-60082775D01*
X77386309Y-60130089D01*
X77386280Y-60142078D01*
X77385877Y-60186612D01*
X77384622Y-60220206D01*
X77381963Y-60247015D01*
X77377352Y-60271191D01*
X77370239Y-60296886D01*
X77360074Y-60328255D01*
X77324545Y-60412438D01*
X77274749Y-60492517D01*
X77213487Y-60563159D01*
X77142198Y-60623161D01*
X77062322Y-60671321D01*
X76975297Y-60706435D01*
X76882564Y-60727300D01*
X76862864Y-60729476D01*
X76806413Y-60731380D01*
X76743501Y-60728701D01*
X76680329Y-60721823D01*
X76623100Y-60711135D01*
X76556835Y-60692049D01*
X76484966Y-60661685D01*
X76418685Y-60621414D01*
X76354938Y-60569327D01*
X76290673Y-60503520D01*
X76252561Y-60460893D01*
X76352593Y-60385661D01*
X76373037Y-60370336D01*
X76405015Y-60346592D01*
X76430982Y-60327597D01*
X76448683Y-60314995D01*
X76455863Y-60310429D01*
X76457963Y-60311768D01*
X76469348Y-60321672D01*
X76488027Y-60339116D01*
X76511275Y-60361587D01*
X76527585Y-60376796D01*
X76591200Y-60423390D01*
X76659893Y-60455686D01*
X76732003Y-60473403D01*
X76805870Y-60476260D01*
X76879835Y-60463976D01*
X76952239Y-60436270D01*
X76980400Y-60420212D01*
X77030780Y-60380537D01*
X77073130Y-60332468D01*
X77104805Y-60279284D01*
X77123161Y-60224267D01*
X77128297Y-60198217D01*
X76202281Y-60198217D01*
X76206838Y-60112055D01*
X76209033Y-60078628D01*
X76216193Y-60019101D01*
X76228318Y-59965970D01*
X76230247Y-59960507D01*
X76509127Y-59960507D01*
X76509131Y-59960535D01*
X76517185Y-59961734D01*
X76539454Y-59962836D01*
X76574162Y-59963810D01*
X76619535Y-59964623D01*
X76673797Y-59965244D01*
X76735173Y-59965639D01*
X76801886Y-59965778D01*
X77094644Y-59965778D01*
X77081764Y-59940870D01*
X77062022Y-59911540D01*
X77028320Y-59876485D01*
X76987361Y-59844308D01*
X76943554Y-59818896D01*
X76937063Y-59815840D01*
X76913382Y-59805497D01*
X76892780Y-59798943D01*
X76870479Y-59795322D01*
X76841705Y-59793777D01*
X76801680Y-59793453D01*
X76754233Y-59794554D01*
X76711679Y-59799204D01*
X76676189Y-59808715D01*
X76643110Y-59824384D01*
X76607790Y-59847508D01*
X76591430Y-59861088D01*
X76569889Y-59882175D01*
X76547855Y-59906134D01*
X76528362Y-59929491D01*
X76514441Y-59948774D01*
X76509127Y-59960507D01*
X76230247Y-59960507D01*
X76247054Y-59912903D01*
X76274048Y-59853566D01*
X76287366Y-59827320D01*
X76305374Y-59796206D01*
X76325228Y-59768531D01*
X76350362Y-59739661D01*
X76384209Y-59704965D01*
X76384291Y-59704883D01*
X76457180Y-59641175D01*
X76532945Y-59592792D01*
X76613131Y-59559084D01*
X76699283Y-59539403D01*
X76792943Y-59533099D01*
X76864448Y-59536078D01*
X76931794Y-59546363D01*
X76995735Y-59565296D01*
X77062172Y-59594218D01*
X77088272Y-59607535D01*
X77119416Y-59625641D01*
X77147068Y-59645560D01*
X77175868Y-59670747D01*
X77210452Y-59704656D01*
X77242164Y-59737835D01*
X77281694Y-59784735D01*
X77312734Y-59830843D01*
X77338333Y-59880898D01*
X77361537Y-59939639D01*
X77364650Y-59948427D01*
X77370462Y-59965778D01*
X77373495Y-59974831D01*
G37*
G36*
X80204611Y-59461524D02*
G01*
X80225793Y-59512284D01*
X80264348Y-59604647D01*
X80301011Y-59692442D01*
X80335305Y-59774534D01*
X80366756Y-59849785D01*
X80394888Y-59917060D01*
X80419226Y-59975222D01*
X80439295Y-60023134D01*
X80454620Y-60059660D01*
X80464725Y-60083664D01*
X80469134Y-60094009D01*
X80478097Y-60114035D01*
X80488382Y-60094009D01*
X80489912Y-60090705D01*
X80497408Y-60073513D01*
X80510379Y-60043236D01*
X80528341Y-60001014D01*
X80550814Y-59947989D01*
X80577315Y-59885300D01*
X80607362Y-59814089D01*
X80640473Y-59735496D01*
X80676166Y-59650662D01*
X80713960Y-59560729D01*
X80753371Y-59466835D01*
X80774245Y-59417116D01*
X80812602Y-59325959D01*
X80848983Y-59239760D01*
X80882922Y-59159610D01*
X80913951Y-59086604D01*
X80941602Y-59021833D01*
X80965410Y-58966391D01*
X80984907Y-58921369D01*
X80999626Y-58887861D01*
X81009100Y-58866960D01*
X81012862Y-58859757D01*
X81014120Y-58863022D01*
X81019232Y-58880237D01*
X81027972Y-58911386D01*
X81040085Y-58955516D01*
X81055317Y-59011673D01*
X81073412Y-59078904D01*
X81094114Y-59156256D01*
X81117170Y-59242774D01*
X81142325Y-59337506D01*
X81169322Y-59439497D01*
X81197908Y-59547795D01*
X81227827Y-59661445D01*
X81258824Y-59779495D01*
X81500000Y-60699164D01*
X81367625Y-60701368D01*
X81355519Y-60701548D01*
X81304061Y-60701698D01*
X81265282Y-60700688D01*
X81240290Y-60698568D01*
X81230190Y-60695385D01*
X81229661Y-60694019D01*
X81225536Y-60680087D01*
X81217861Y-60652401D01*
X81206986Y-60612279D01*
X81193263Y-60561039D01*
X81177041Y-60500000D01*
X81158672Y-60430481D01*
X81138506Y-60353798D01*
X81116895Y-60271272D01*
X81094188Y-60184220D01*
X81086291Y-60153910D01*
X81063939Y-60068384D01*
X81042806Y-59987907D01*
X81023242Y-59913789D01*
X81005597Y-59847338D01*
X80990220Y-59789862D01*
X80977461Y-59742671D01*
X80967669Y-59707072D01*
X80961194Y-59684376D01*
X80958386Y-59675889D01*
X80958189Y-59675932D01*
X80953488Y-59684471D01*
X80943184Y-59706516D01*
X80927763Y-59740945D01*
X80907708Y-59786639D01*
X80883502Y-59842476D01*
X80855629Y-59907338D01*
X80824574Y-59980102D01*
X80790819Y-60059650D01*
X80754849Y-60144860D01*
X80717147Y-60234613D01*
X80711178Y-60248853D01*
X80673719Y-60337960D01*
X80638072Y-60422343D01*
X80604718Y-60500883D01*
X80574143Y-60572460D01*
X80546829Y-60635954D01*
X80523258Y-60690247D01*
X80503915Y-60734218D01*
X80489283Y-60766749D01*
X80479845Y-60786719D01*
X80476085Y-60793009D01*
X80476068Y-60792987D01*
X80472154Y-60784565D01*
X80462538Y-60762549D01*
X80447714Y-60728099D01*
X80428175Y-60682379D01*
X80404414Y-60626548D01*
X80376926Y-60561770D01*
X80346204Y-60489205D01*
X80312742Y-60410016D01*
X80277032Y-60325364D01*
X80239570Y-60236411D01*
X80238427Y-60233693D01*
X80201044Y-60145012D01*
X80165426Y-60060794D01*
X80132063Y-59982187D01*
X80101448Y-59910338D01*
X80074073Y-59846393D01*
X80050431Y-59791498D01*
X80031014Y-59746802D01*
X80016314Y-59713451D01*
X80006823Y-59692591D01*
X80003034Y-59685369D01*
X80002495Y-59686320D01*
X79998394Y-59699020D01*
X79990766Y-59725497D01*
X79979956Y-59764460D01*
X79966313Y-59814621D01*
X79950183Y-59874687D01*
X79931913Y-59943368D01*
X79911852Y-60019374D01*
X79890345Y-60101414D01*
X79867741Y-60188199D01*
X79859931Y-60218249D01*
X79837611Y-60303832D01*
X79816487Y-60384390D01*
X79796909Y-60458609D01*
X79779229Y-60525180D01*
X79763798Y-60582788D01*
X79750967Y-60630122D01*
X79741086Y-60665871D01*
X79734506Y-60688721D01*
X79731579Y-60697360D01*
X79726472Y-60698771D01*
X79707443Y-60700366D01*
X79677126Y-60701385D01*
X79638315Y-60701746D01*
X79593800Y-60701368D01*
X79461594Y-60699164D01*
X79696127Y-59805475D01*
X79709315Y-59755228D01*
X79739638Y-59639740D01*
X79768830Y-59528620D01*
X79796625Y-59422880D01*
X79822754Y-59323534D01*
X79846953Y-59231593D01*
X79868953Y-59148071D01*
X79888489Y-59073980D01*
X79905292Y-59010332D01*
X79919098Y-58958140D01*
X79929638Y-58918417D01*
X79936646Y-58892175D01*
X79939855Y-58880426D01*
X79949049Y-58849066D01*
X80204611Y-59461524D01*
G37*
D11*
%TO.C,TP3*%
X87700000Y-54800000D02*
G75*
G02*
X86300000Y-54800000I-700000J0D01*
G01*
X86300000Y-54800000D02*
G75*
G02*
X87700000Y-54800000I700000J0D01*
G01*
%TO.C,TP12*%
X75700000Y-56800000D02*
G75*
G02*
X74300000Y-56800000I-700000J0D01*
G01*
X74300000Y-56800000D02*
G75*
G02*
X75700000Y-56800000I700000J0D01*
G01*
%TO.C,TP5*%
X87700000Y-56800000D02*
G75*
G02*
X86300000Y-56800000I-700000J0D01*
G01*
X86300000Y-56800000D02*
G75*
G02*
X87700000Y-56800000I700000J0D01*
G01*
%TD*%
M02*
