%TF.GenerationSoftware,KiCad,Pcbnew,9.0.5-9.0.5~ubuntu24.04.1*%
%TF.CreationDate,2025-10-22T21:05:01+02:00*%
%TF.ProjectId,MCM-LIN,4d434d2d-4c49-44e2-9e6b-696361645f70,rev?*%
%TF.SameCoordinates,Original*%
%TF.FileFunction,Legend,Bot*%
%TF.FilePolarity,Positive*%
%FSLAX46Y46*%
G04 Gerber Fmt 4.6, Leading zero omitted, Abs format (unit mm)*
G04 Created by KiCad (PCBNEW 9.0.5-9.0.5~ubuntu24.04.1) date 2025-10-22 21:05:01*
%MOMM*%
%LPD*%
G01*
G04 APERTURE LIST*
%ADD10C,0.250000*%
%ADD11C,0.010000*%
%ADD12C,0.120000*%
%ADD13C,0.000000*%
G04 APERTURE END LIST*
D10*
X89721241Y-75837142D02*
X89321241Y-77037142D01*
X89321241Y-77037142D02*
X88921241Y-75837142D01*
X88578384Y-76980000D02*
X88406956Y-77037142D01*
X88406956Y-77037142D02*
X88121241Y-77037142D01*
X88121241Y-77037142D02*
X88006956Y-76980000D01*
X88006956Y-76980000D02*
X87949813Y-76922857D01*
X87949813Y-76922857D02*
X87892670Y-76808571D01*
X87892670Y-76808571D02*
X87892670Y-76694285D01*
X87892670Y-76694285D02*
X87949813Y-76580000D01*
X87949813Y-76580000D02*
X88006956Y-76522857D01*
X88006956Y-76522857D02*
X88121241Y-76465714D01*
X88121241Y-76465714D02*
X88349813Y-76408571D01*
X88349813Y-76408571D02*
X88464098Y-76351428D01*
X88464098Y-76351428D02*
X88521241Y-76294285D01*
X88521241Y-76294285D02*
X88578384Y-76180000D01*
X88578384Y-76180000D02*
X88578384Y-76065714D01*
X88578384Y-76065714D02*
X88521241Y-75951428D01*
X88521241Y-75951428D02*
X88464098Y-75894285D01*
X88464098Y-75894285D02*
X88349813Y-75837142D01*
X88349813Y-75837142D02*
X88064098Y-75837142D01*
X88064098Y-75837142D02*
X87892670Y-75894285D01*
X87378384Y-75837142D02*
X87378384Y-76808571D01*
X87378384Y-76808571D02*
X87321241Y-76922857D01*
X87321241Y-76922857D02*
X87264099Y-76980000D01*
X87264099Y-76980000D02*
X87149813Y-77037142D01*
X87149813Y-77037142D02*
X86921241Y-77037142D01*
X86921241Y-77037142D02*
X86806956Y-76980000D01*
X86806956Y-76980000D02*
X86749813Y-76922857D01*
X86749813Y-76922857D02*
X86692670Y-76808571D01*
X86692670Y-76808571D02*
X86692670Y-75837142D01*
X86121241Y-77037142D02*
X86121241Y-75837142D01*
X86121241Y-75837142D02*
X85664098Y-75837142D01*
X85664098Y-75837142D02*
X85549813Y-75894285D01*
X85549813Y-75894285D02*
X85492670Y-75951428D01*
X85492670Y-75951428D02*
X85435527Y-76065714D01*
X85435527Y-76065714D02*
X85435527Y-76237142D01*
X85435527Y-76237142D02*
X85492670Y-76351428D01*
X85492670Y-76351428D02*
X85549813Y-76408571D01*
X85549813Y-76408571D02*
X85664098Y-76465714D01*
X85664098Y-76465714D02*
X86121241Y-76465714D01*
X61535380Y-83183332D02*
X61535380Y-83659522D01*
X61535380Y-83659522D02*
X61059190Y-83707141D01*
X61059190Y-83707141D02*
X61106809Y-83659522D01*
X61106809Y-83659522D02*
X61154428Y-83564284D01*
X61154428Y-83564284D02*
X61154428Y-83326189D01*
X61154428Y-83326189D02*
X61106809Y-83230951D01*
X61106809Y-83230951D02*
X61059190Y-83183332D01*
X61059190Y-83183332D02*
X60963952Y-83135713D01*
X60963952Y-83135713D02*
X60725857Y-83135713D01*
X60725857Y-83135713D02*
X60630619Y-83183332D01*
X60630619Y-83183332D02*
X60583000Y-83230951D01*
X60583000Y-83230951D02*
X60535380Y-83326189D01*
X60535380Y-83326189D02*
X60535380Y-83564284D01*
X60535380Y-83564284D02*
X60583000Y-83659522D01*
X60583000Y-83659522D02*
X60630619Y-83707141D01*
X60630619Y-82707141D02*
X60583000Y-82659522D01*
X60583000Y-82659522D02*
X60535380Y-82707141D01*
X60535380Y-82707141D02*
X60583000Y-82754760D01*
X60583000Y-82754760D02*
X60630619Y-82707141D01*
X60630619Y-82707141D02*
X60535380Y-82707141D01*
X61535380Y-81754761D02*
X61535380Y-82230951D01*
X61535380Y-82230951D02*
X61059190Y-82278570D01*
X61059190Y-82278570D02*
X61106809Y-82230951D01*
X61106809Y-82230951D02*
X61154428Y-82135713D01*
X61154428Y-82135713D02*
X61154428Y-81897618D01*
X61154428Y-81897618D02*
X61106809Y-81802380D01*
X61106809Y-81802380D02*
X61059190Y-81754761D01*
X61059190Y-81754761D02*
X60963952Y-81707142D01*
X60963952Y-81707142D02*
X60725857Y-81707142D01*
X60725857Y-81707142D02*
X60630619Y-81754761D01*
X60630619Y-81754761D02*
X60583000Y-81802380D01*
X60583000Y-81802380D02*
X60535380Y-81897618D01*
X60535380Y-81897618D02*
X60535380Y-82135713D01*
X60535380Y-82135713D02*
X60583000Y-82230951D01*
X60583000Y-82230951D02*
X60630619Y-82278570D01*
X60630619Y-81278570D02*
X60583000Y-81230951D01*
X60583000Y-81230951D02*
X60535380Y-81278570D01*
X60535380Y-81278570D02*
X60583000Y-81326189D01*
X60583000Y-81326189D02*
X60630619Y-81278570D01*
X60630619Y-81278570D02*
X60535380Y-81278570D01*
X60630619Y-80802380D02*
X60583000Y-80754761D01*
X60583000Y-80754761D02*
X60535380Y-80802380D01*
X60535380Y-80802380D02*
X60583000Y-80849999D01*
X60583000Y-80849999D02*
X60630619Y-80802380D01*
X60630619Y-80802380D02*
X60535380Y-80802380D01*
X61440142Y-80373809D02*
X61487761Y-80326190D01*
X61487761Y-80326190D02*
X61535380Y-80230952D01*
X61535380Y-80230952D02*
X61535380Y-79992857D01*
X61535380Y-79992857D02*
X61487761Y-79897619D01*
X61487761Y-79897619D02*
X61440142Y-79850000D01*
X61440142Y-79850000D02*
X61344904Y-79802381D01*
X61344904Y-79802381D02*
X61249666Y-79802381D01*
X61249666Y-79802381D02*
X61106809Y-79850000D01*
X61106809Y-79850000D02*
X60535380Y-80421428D01*
X60535380Y-80421428D02*
X60535380Y-79802381D01*
X61535380Y-79469047D02*
X61535380Y-78802381D01*
X61535380Y-78802381D02*
X60535380Y-79230952D01*
X61535380Y-78564285D02*
X60535380Y-78230952D01*
X60535380Y-78230952D02*
X61535380Y-77897619D01*
X88978384Y-82117142D02*
X89549812Y-82117142D01*
X89549812Y-82117142D02*
X89549812Y-80917142D01*
X88578383Y-82117142D02*
X88578383Y-80917142D01*
X88006954Y-82117142D02*
X88006954Y-80917142D01*
X88006954Y-80917142D02*
X87321240Y-82117142D01*
X87321240Y-82117142D02*
X87321240Y-80917142D01*
X81328571Y-62342142D02*
X81328571Y-61142142D01*
X81328571Y-61142142D02*
X80928571Y-61999285D01*
X80928571Y-61999285D02*
X80528571Y-61142142D01*
X80528571Y-61142142D02*
X80528571Y-62342142D01*
X79271428Y-62227857D02*
X79328571Y-62285000D01*
X79328571Y-62285000D02*
X79499999Y-62342142D01*
X79499999Y-62342142D02*
X79614285Y-62342142D01*
X79614285Y-62342142D02*
X79785714Y-62285000D01*
X79785714Y-62285000D02*
X79899999Y-62170714D01*
X79899999Y-62170714D02*
X79957142Y-62056428D01*
X79957142Y-62056428D02*
X80014285Y-61827857D01*
X80014285Y-61827857D02*
X80014285Y-61656428D01*
X80014285Y-61656428D02*
X79957142Y-61427857D01*
X79957142Y-61427857D02*
X79899999Y-61313571D01*
X79899999Y-61313571D02*
X79785714Y-61199285D01*
X79785714Y-61199285D02*
X79614285Y-61142142D01*
X79614285Y-61142142D02*
X79499999Y-61142142D01*
X79499999Y-61142142D02*
X79328571Y-61199285D01*
X79328571Y-61199285D02*
X79271428Y-61256428D01*
X78757142Y-62342142D02*
X78757142Y-61142142D01*
X78757142Y-61142142D02*
X78357142Y-61999285D01*
X78357142Y-61999285D02*
X77957142Y-61142142D01*
X77957142Y-61142142D02*
X77957142Y-62342142D01*
X77385713Y-61885000D02*
X76471428Y-61885000D01*
X75328571Y-62342142D02*
X75899999Y-62342142D01*
X75899999Y-62342142D02*
X75899999Y-61142142D01*
X74928570Y-62342142D02*
X74928570Y-61142142D01*
X74357141Y-62342142D02*
X74357141Y-61142142D01*
X74357141Y-61142142D02*
X73671427Y-62342142D01*
X73671427Y-62342142D02*
X73671427Y-61142142D01*
X88921241Y-83514285D02*
X89035527Y-83457142D01*
X89035527Y-83457142D02*
X89206955Y-83457142D01*
X89206955Y-83457142D02*
X89378384Y-83514285D01*
X89378384Y-83514285D02*
X89492669Y-83628571D01*
X89492669Y-83628571D02*
X89549812Y-83742857D01*
X89549812Y-83742857D02*
X89606955Y-83971428D01*
X89606955Y-83971428D02*
X89606955Y-84142857D01*
X89606955Y-84142857D02*
X89549812Y-84371428D01*
X89549812Y-84371428D02*
X89492669Y-84485714D01*
X89492669Y-84485714D02*
X89378384Y-84600000D01*
X89378384Y-84600000D02*
X89206955Y-84657142D01*
X89206955Y-84657142D02*
X89092669Y-84657142D01*
X89092669Y-84657142D02*
X88921241Y-84600000D01*
X88921241Y-84600000D02*
X88864098Y-84542857D01*
X88864098Y-84542857D02*
X88864098Y-84142857D01*
X88864098Y-84142857D02*
X89092669Y-84142857D01*
X88349812Y-84657142D02*
X88349812Y-83457142D01*
X88349812Y-83457142D02*
X87664098Y-84657142D01*
X87664098Y-84657142D02*
X87664098Y-83457142D01*
X87092669Y-84657142D02*
X87092669Y-83457142D01*
X87092669Y-83457142D02*
X86806955Y-83457142D01*
X86806955Y-83457142D02*
X86635526Y-83514285D01*
X86635526Y-83514285D02*
X86521241Y-83628571D01*
X86521241Y-83628571D02*
X86464098Y-83742857D01*
X86464098Y-83742857D02*
X86406955Y-83971428D01*
X86406955Y-83971428D02*
X86406955Y-84142857D01*
X86406955Y-84142857D02*
X86464098Y-84371428D01*
X86464098Y-84371428D02*
X86521241Y-84485714D01*
X86521241Y-84485714D02*
X86635526Y-84600000D01*
X86635526Y-84600000D02*
X86806955Y-84657142D01*
X86806955Y-84657142D02*
X87092669Y-84657142D01*
D11*
%TO.C,REF\u002A\u002A*%
X62081106Y-73356309D02*
X62095293Y-73369978D01*
X62136662Y-73411665D01*
X62191377Y-73468418D01*
X62256780Y-73537343D01*
X62330213Y-73615545D01*
X62409016Y-73700128D01*
X62490530Y-73788199D01*
X62572097Y-73876862D01*
X62651058Y-73963222D01*
X62724753Y-74044385D01*
X62790524Y-74117456D01*
X62845711Y-74179540D01*
X62887656Y-74227741D01*
X62913701Y-74259166D01*
X62921185Y-74270920D01*
X62918616Y-74272218D01*
X62894055Y-74285924D01*
X62845474Y-74313559D01*
X62774922Y-74353944D01*
X62684443Y-74405901D01*
X62576085Y-74468251D01*
X62451894Y-74539817D01*
X62313915Y-74619421D01*
X62164196Y-74705884D01*
X62004783Y-74798029D01*
X61837721Y-74894678D01*
X61775278Y-74930813D01*
X61611153Y-75025752D01*
X61455628Y-75115660D01*
X61310724Y-75199370D01*
X61178465Y-75275717D01*
X61060874Y-75343535D01*
X60959972Y-75401657D01*
X60877783Y-75448917D01*
X60816329Y-75484149D01*
X60777634Y-75506188D01*
X60763719Y-75513866D01*
X60764345Y-75509777D01*
X60775763Y-75486276D01*
X60796763Y-75448732D01*
X60809646Y-75426510D01*
X60837042Y-75379119D01*
X60877357Y-75309323D01*
X60929279Y-75219390D01*
X60991501Y-75111588D01*
X61062713Y-74988186D01*
X61141605Y-74851452D01*
X61226868Y-74703655D01*
X61317194Y-74547063D01*
X61411272Y-74383946D01*
X61503391Y-74224269D01*
X61592950Y-74069133D01*
X61677163Y-73923358D01*
X61754767Y-73789129D01*
X61824495Y-73668631D01*
X61885084Y-73564048D01*
X61935268Y-73477565D01*
X61973782Y-73411367D01*
X61999362Y-73367639D01*
X62010742Y-73348565D01*
X62034090Y-73312147D01*
X62081106Y-73356309D01*
G36*
X62081106Y-73356309D02*
G01*
X62095293Y-73369978D01*
X62136662Y-73411665D01*
X62191377Y-73468418D01*
X62256780Y-73537343D01*
X62330213Y-73615545D01*
X62409016Y-73700128D01*
X62490530Y-73788199D01*
X62572097Y-73876862D01*
X62651058Y-73963222D01*
X62724753Y-74044385D01*
X62790524Y-74117456D01*
X62845711Y-74179540D01*
X62887656Y-74227741D01*
X62913701Y-74259166D01*
X62921185Y-74270920D01*
X62918616Y-74272218D01*
X62894055Y-74285924D01*
X62845474Y-74313559D01*
X62774922Y-74353944D01*
X62684443Y-74405901D01*
X62576085Y-74468251D01*
X62451894Y-74539817D01*
X62313915Y-74619421D01*
X62164196Y-74705884D01*
X62004783Y-74798029D01*
X61837721Y-74894678D01*
X61775278Y-74930813D01*
X61611153Y-75025752D01*
X61455628Y-75115660D01*
X61310724Y-75199370D01*
X61178465Y-75275717D01*
X61060874Y-75343535D01*
X60959972Y-75401657D01*
X60877783Y-75448917D01*
X60816329Y-75484149D01*
X60777634Y-75506188D01*
X60763719Y-75513866D01*
X60764345Y-75509777D01*
X60775763Y-75486276D01*
X60796763Y-75448732D01*
X60809646Y-75426510D01*
X60837042Y-75379119D01*
X60877357Y-75309323D01*
X60929279Y-75219390D01*
X60991501Y-75111588D01*
X61062713Y-74988186D01*
X61141605Y-74851452D01*
X61226868Y-74703655D01*
X61317194Y-74547063D01*
X61411272Y-74383946D01*
X61503391Y-74224269D01*
X61592950Y-74069133D01*
X61677163Y-73923358D01*
X61754767Y-73789129D01*
X61824495Y-73668631D01*
X61885084Y-73564048D01*
X61935268Y-73477565D01*
X61973782Y-73411367D01*
X61999362Y-73367639D01*
X62010742Y-73348565D01*
X62034090Y-73312147D01*
X62081106Y-73356309D01*
G37*
X63843830Y-70187121D02*
X63855363Y-70204457D01*
X63880770Y-70246108D01*
X63918777Y-70309857D01*
X63968107Y-70393491D01*
X64027483Y-70494795D01*
X64095629Y-70611555D01*
X64171270Y-70741554D01*
X64253129Y-70882579D01*
X64339930Y-71032414D01*
X64430396Y-71188846D01*
X64523252Y-71349659D01*
X64617221Y-71512639D01*
X64711027Y-71675570D01*
X64803394Y-71836238D01*
X64893046Y-71992428D01*
X64978706Y-72141926D01*
X65059098Y-72282517D01*
X65132947Y-72411986D01*
X65198975Y-72528118D01*
X65255907Y-72628698D01*
X65302467Y-72711513D01*
X65337378Y-72774346D01*
X65359364Y-72814983D01*
X65367149Y-72831210D01*
X65367157Y-72831334D01*
X65354603Y-72848362D01*
X65318528Y-72877225D01*
X65262687Y-72915193D01*
X65190831Y-72959533D01*
X65142643Y-72987898D01*
X65073302Y-73027342D01*
X65025004Y-73052200D01*
X64994512Y-73063870D01*
X64978590Y-73063752D01*
X64974002Y-73053243D01*
X64973652Y-73051529D01*
X64960538Y-73030628D01*
X64932270Y-72995085D01*
X64894056Y-72951529D01*
X64876425Y-72932821D01*
X64821752Y-72882458D01*
X64761292Y-72839411D01*
X64691452Y-72802419D01*
X64608640Y-72770219D01*
X64509262Y-72741548D01*
X64389725Y-72715144D01*
X64246436Y-72689746D01*
X64075801Y-72664091D01*
X63879404Y-72635173D01*
X63689544Y-72604119D01*
X63523530Y-72572990D01*
X63377652Y-72540888D01*
X63248197Y-72506915D01*
X63131453Y-72470172D01*
X63023710Y-72429763D01*
X62921255Y-72384789D01*
X62845958Y-72347700D01*
X62774035Y-72308671D01*
X62717156Y-72273828D01*
X62679769Y-72245911D01*
X62666319Y-72227660D01*
X62666716Y-72226316D01*
X62677550Y-72204808D01*
X62702115Y-72159768D01*
X62738955Y-72093718D01*
X62786617Y-72009179D01*
X62843646Y-71908673D01*
X62908588Y-71794722D01*
X62979989Y-71669847D01*
X63056394Y-71536570D01*
X63136349Y-71397413D01*
X63218400Y-71254897D01*
X63301092Y-71111544D01*
X63382971Y-70969876D01*
X63462583Y-70832414D01*
X63538474Y-70701680D01*
X63609189Y-70580196D01*
X63673274Y-70470484D01*
X63729274Y-70375064D01*
X63775736Y-70296460D01*
X63811205Y-70237191D01*
X63834227Y-70199781D01*
X63843347Y-70186751D01*
X63843830Y-70187121D01*
G36*
X63843830Y-70187121D02*
G01*
X63855363Y-70204457D01*
X63880770Y-70246108D01*
X63918777Y-70309857D01*
X63968107Y-70393491D01*
X64027483Y-70494795D01*
X64095629Y-70611555D01*
X64171270Y-70741554D01*
X64253129Y-70882579D01*
X64339930Y-71032414D01*
X64430396Y-71188846D01*
X64523252Y-71349659D01*
X64617221Y-71512639D01*
X64711027Y-71675570D01*
X64803394Y-71836238D01*
X64893046Y-71992428D01*
X64978706Y-72141926D01*
X65059098Y-72282517D01*
X65132947Y-72411986D01*
X65198975Y-72528118D01*
X65255907Y-72628698D01*
X65302467Y-72711513D01*
X65337378Y-72774346D01*
X65359364Y-72814983D01*
X65367149Y-72831210D01*
X65367157Y-72831334D01*
X65354603Y-72848362D01*
X65318528Y-72877225D01*
X65262687Y-72915193D01*
X65190831Y-72959533D01*
X65142643Y-72987898D01*
X65073302Y-73027342D01*
X65025004Y-73052200D01*
X64994512Y-73063870D01*
X64978590Y-73063752D01*
X64974002Y-73053243D01*
X64973652Y-73051529D01*
X64960538Y-73030628D01*
X64932270Y-72995085D01*
X64894056Y-72951529D01*
X64876425Y-72932821D01*
X64821752Y-72882458D01*
X64761292Y-72839411D01*
X64691452Y-72802419D01*
X64608640Y-72770219D01*
X64509262Y-72741548D01*
X64389725Y-72715144D01*
X64246436Y-72689746D01*
X64075801Y-72664091D01*
X63879404Y-72635173D01*
X63689544Y-72604119D01*
X63523530Y-72572990D01*
X63377652Y-72540888D01*
X63248197Y-72506915D01*
X63131453Y-72470172D01*
X63023710Y-72429763D01*
X62921255Y-72384789D01*
X62845958Y-72347700D01*
X62774035Y-72308671D01*
X62717156Y-72273828D01*
X62679769Y-72245911D01*
X62666319Y-72227660D01*
X62666716Y-72226316D01*
X62677550Y-72204808D01*
X62702115Y-72159768D01*
X62738955Y-72093718D01*
X62786617Y-72009179D01*
X62843646Y-71908673D01*
X62908588Y-71794722D01*
X62979989Y-71669847D01*
X63056394Y-71536570D01*
X63136349Y-71397413D01*
X63218400Y-71254897D01*
X63301092Y-71111544D01*
X63382971Y-70969876D01*
X63462583Y-70832414D01*
X63538474Y-70701680D01*
X63609189Y-70580196D01*
X63673274Y-70470484D01*
X63729274Y-70375064D01*
X63775736Y-70296460D01*
X63811205Y-70237191D01*
X63834227Y-70199781D01*
X63843347Y-70186751D01*
X63843830Y-70187121D01*
G37*
X65708317Y-73409986D02*
X65714072Y-73418571D01*
X65734635Y-73452292D01*
X65768449Y-73509146D01*
X65814220Y-73586914D01*
X65870653Y-73683378D01*
X65936454Y-73796317D01*
X66010328Y-73923514D01*
X66090981Y-74062749D01*
X66177118Y-74211803D01*
X66267445Y-74368458D01*
X66292217Y-74411467D01*
X66390170Y-74581521D01*
X66488779Y-74752700D01*
X66586030Y-74921508D01*
X66679908Y-75084449D01*
X66768401Y-75238028D01*
X66849492Y-75378747D01*
X66921168Y-75503112D01*
X66981414Y-75607626D01*
X67028217Y-75688793D01*
X67249300Y-76072117D01*
X64149346Y-76072117D01*
X64021191Y-76072105D01*
X63715770Y-76071988D01*
X63419702Y-76071748D01*
X63134429Y-76071390D01*
X62861393Y-76070922D01*
X62602035Y-76070349D01*
X62357797Y-76069678D01*
X62130119Y-76068914D01*
X61920444Y-76068065D01*
X61730213Y-76067135D01*
X61560867Y-76066132D01*
X61413848Y-76065061D01*
X61290597Y-76063929D01*
X61192556Y-76062742D01*
X61121166Y-76061505D01*
X61077868Y-76060226D01*
X61064105Y-76058909D01*
X61074324Y-76052250D01*
X61109581Y-76031029D01*
X61167491Y-75996866D01*
X61245700Y-75951117D01*
X61341853Y-75895136D01*
X61453593Y-75830279D01*
X61578566Y-75757900D01*
X61714416Y-75679355D01*
X61858788Y-75596000D01*
X62009326Y-75509189D01*
X62163675Y-75420278D01*
X62319480Y-75330622D01*
X62474386Y-75241575D01*
X62626036Y-75154494D01*
X62772076Y-75070734D01*
X62910151Y-74991649D01*
X63037904Y-74918595D01*
X63152981Y-74852927D01*
X63253026Y-74796000D01*
X63335684Y-74749170D01*
X63398599Y-74713792D01*
X63439417Y-74691220D01*
X63455781Y-74682810D01*
X63466459Y-74684895D01*
X63498628Y-74703854D01*
X63544491Y-74738978D01*
X63599010Y-74786615D01*
X63648115Y-74834302D01*
X63710659Y-74899262D01*
X63780638Y-74975101D01*
X63854466Y-75057644D01*
X63928555Y-75142714D01*
X63999318Y-75226136D01*
X64063168Y-75303735D01*
X64116517Y-75371335D01*
X64155779Y-75424760D01*
X64177365Y-75459835D01*
X64191776Y-75485451D01*
X64230913Y-75538462D01*
X64281228Y-75594858D01*
X64335546Y-75647408D01*
X64386694Y-75688876D01*
X64427497Y-75712032D01*
X64472562Y-75717384D01*
X64532696Y-75702591D01*
X64589849Y-75668672D01*
X64634203Y-75619999D01*
X64641883Y-75607371D01*
X64651662Y-75586689D01*
X64658035Y-75561800D01*
X64661412Y-75527355D01*
X64662201Y-75478008D01*
X64660811Y-75408410D01*
X64657651Y-75313214D01*
X64655386Y-75258148D01*
X64650574Y-75171063D01*
X64644895Y-75094845D01*
X64638878Y-75036195D01*
X64633053Y-75001812D01*
X64618949Y-74962534D01*
X64577136Y-74885186D01*
X64512165Y-74793537D01*
X64423240Y-74686513D01*
X64309570Y-74563036D01*
X64260242Y-74511012D01*
X64203208Y-74449642D01*
X64156134Y-74397611D01*
X64122894Y-74359212D01*
X64107359Y-74338742D01*
X64105762Y-74335492D01*
X64103847Y-74321499D01*
X64113415Y-74305985D01*
X64138385Y-74285605D01*
X64182676Y-74257017D01*
X64250208Y-74216878D01*
X64307617Y-74183368D01*
X64413262Y-74122069D01*
X64496441Y-74074455D01*
X64559948Y-74038979D01*
X64606576Y-74014095D01*
X64639120Y-73998259D01*
X64660374Y-73989923D01*
X64682367Y-73980674D01*
X64695221Y-73968253D01*
X64696424Y-73965324D01*
X64715231Y-73949030D01*
X64749605Y-73928044D01*
X64803989Y-73898756D01*
X64844144Y-73936138D01*
X64858327Y-73951282D01*
X64891325Y-73992439D01*
X64931616Y-74047391D01*
X64973452Y-74108477D01*
X65062606Y-74243435D01*
X65059107Y-74593308D01*
X65055609Y-74943181D01*
X65004663Y-74992679D01*
X64987544Y-75010325D01*
X64932646Y-75089606D01*
X64900600Y-75183881D01*
X64889682Y-75297726D01*
X64892393Y-75358725D01*
X64911531Y-75466324D01*
X64946411Y-75564529D01*
X64994012Y-75643328D01*
X65027065Y-75672060D01*
X65085819Y-75693883D01*
X65152331Y-75696400D01*
X65218086Y-75680774D01*
X65274571Y-75648166D01*
X65313273Y-75599739D01*
X65314540Y-75597114D01*
X65337933Y-75549171D01*
X65362709Y-75499068D01*
X65383742Y-75452033D01*
X65413914Y-75372756D01*
X65447202Y-75275018D01*
X65482449Y-75163174D01*
X65518499Y-75041580D01*
X65554195Y-74914591D01*
X65588380Y-74786562D01*
X65619897Y-74661848D01*
X65647590Y-74544805D01*
X65670302Y-74439789D01*
X65686876Y-74351155D01*
X65696155Y-74283258D01*
X65696984Y-74240453D01*
X65695117Y-74230728D01*
X65676928Y-74181502D01*
X65643177Y-74115645D01*
X65596825Y-74039111D01*
X65579034Y-74011531D01*
X65507552Y-73899068D01*
X65446790Y-73800718D01*
X65398087Y-73718778D01*
X65362784Y-73655551D01*
X65342222Y-73613336D01*
X65337739Y-73594433D01*
X65338258Y-73593766D01*
X65356815Y-73580151D01*
X65396472Y-73555265D01*
X65451796Y-73522422D01*
X65517354Y-73484934D01*
X65522896Y-73481822D01*
X65594077Y-73442658D01*
X65643651Y-73417682D01*
X65676176Y-73405104D01*
X65696212Y-73403135D01*
X65708317Y-73409986D01*
G36*
X65708317Y-73409986D02*
G01*
X65714072Y-73418571D01*
X65734635Y-73452292D01*
X65768449Y-73509146D01*
X65814220Y-73586914D01*
X65870653Y-73683378D01*
X65936454Y-73796317D01*
X66010328Y-73923514D01*
X66090981Y-74062749D01*
X66177118Y-74211803D01*
X66267445Y-74368458D01*
X66292217Y-74411467D01*
X66390170Y-74581521D01*
X66488779Y-74752700D01*
X66586030Y-74921508D01*
X66679908Y-75084449D01*
X66768401Y-75238028D01*
X66849492Y-75378747D01*
X66921168Y-75503112D01*
X66981414Y-75607626D01*
X67028217Y-75688793D01*
X67249300Y-76072117D01*
X64149346Y-76072117D01*
X64021191Y-76072105D01*
X63715770Y-76071988D01*
X63419702Y-76071748D01*
X63134429Y-76071390D01*
X62861393Y-76070922D01*
X62602035Y-76070349D01*
X62357797Y-76069678D01*
X62130119Y-76068914D01*
X61920444Y-76068065D01*
X61730213Y-76067135D01*
X61560867Y-76066132D01*
X61413848Y-76065061D01*
X61290597Y-76063929D01*
X61192556Y-76062742D01*
X61121166Y-76061505D01*
X61077868Y-76060226D01*
X61064105Y-76058909D01*
X61074324Y-76052250D01*
X61109581Y-76031029D01*
X61167491Y-75996866D01*
X61245700Y-75951117D01*
X61341853Y-75895136D01*
X61453593Y-75830279D01*
X61578566Y-75757900D01*
X61714416Y-75679355D01*
X61858788Y-75596000D01*
X62009326Y-75509189D01*
X62163675Y-75420278D01*
X62319480Y-75330622D01*
X62474386Y-75241575D01*
X62626036Y-75154494D01*
X62772076Y-75070734D01*
X62910151Y-74991649D01*
X63037904Y-74918595D01*
X63152981Y-74852927D01*
X63253026Y-74796000D01*
X63335684Y-74749170D01*
X63398599Y-74713792D01*
X63439417Y-74691220D01*
X63455781Y-74682810D01*
X63466459Y-74684895D01*
X63498628Y-74703854D01*
X63544491Y-74738978D01*
X63599010Y-74786615D01*
X63648115Y-74834302D01*
X63710659Y-74899262D01*
X63780638Y-74975101D01*
X63854466Y-75057644D01*
X63928555Y-75142714D01*
X63999318Y-75226136D01*
X64063168Y-75303735D01*
X64116517Y-75371335D01*
X64155779Y-75424760D01*
X64177365Y-75459835D01*
X64191776Y-75485451D01*
X64230913Y-75538462D01*
X64281228Y-75594858D01*
X64335546Y-75647408D01*
X64386694Y-75688876D01*
X64427497Y-75712032D01*
X64472562Y-75717384D01*
X64532696Y-75702591D01*
X64589849Y-75668672D01*
X64634203Y-75619999D01*
X64641883Y-75607371D01*
X64651662Y-75586689D01*
X64658035Y-75561800D01*
X64661412Y-75527355D01*
X64662201Y-75478008D01*
X64660811Y-75408410D01*
X64657651Y-75313214D01*
X64655386Y-75258148D01*
X64650574Y-75171063D01*
X64644895Y-75094845D01*
X64638878Y-75036195D01*
X64633053Y-75001812D01*
X64618949Y-74962534D01*
X64577136Y-74885186D01*
X64512165Y-74793537D01*
X64423240Y-74686513D01*
X64309570Y-74563036D01*
X64260242Y-74511012D01*
X64203208Y-74449642D01*
X64156134Y-74397611D01*
X64122894Y-74359212D01*
X64107359Y-74338742D01*
X64105762Y-74335492D01*
X64103847Y-74321499D01*
X64113415Y-74305985D01*
X64138385Y-74285605D01*
X64182676Y-74257017D01*
X64250208Y-74216878D01*
X64307617Y-74183368D01*
X64413262Y-74122069D01*
X64496441Y-74074455D01*
X64559948Y-74038979D01*
X64606576Y-74014095D01*
X64639120Y-73998259D01*
X64660374Y-73989923D01*
X64682367Y-73980674D01*
X64695221Y-73968253D01*
X64696424Y-73965324D01*
X64715231Y-73949030D01*
X64749605Y-73928044D01*
X64803989Y-73898756D01*
X64844144Y-73936138D01*
X64858327Y-73951282D01*
X64891325Y-73992439D01*
X64931616Y-74047391D01*
X64973452Y-74108477D01*
X65062606Y-74243435D01*
X65059107Y-74593308D01*
X65055609Y-74943181D01*
X65004663Y-74992679D01*
X64987544Y-75010325D01*
X64932646Y-75089606D01*
X64900600Y-75183881D01*
X64889682Y-75297726D01*
X64892393Y-75358725D01*
X64911531Y-75466324D01*
X64946411Y-75564529D01*
X64994012Y-75643328D01*
X65027065Y-75672060D01*
X65085819Y-75693883D01*
X65152331Y-75696400D01*
X65218086Y-75680774D01*
X65274571Y-75648166D01*
X65313273Y-75599739D01*
X65314540Y-75597114D01*
X65337933Y-75549171D01*
X65362709Y-75499068D01*
X65383742Y-75452033D01*
X65413914Y-75372756D01*
X65447202Y-75275018D01*
X65482449Y-75163174D01*
X65518499Y-75041580D01*
X65554195Y-74914591D01*
X65588380Y-74786562D01*
X65619897Y-74661848D01*
X65647590Y-74544805D01*
X65670302Y-74439789D01*
X65686876Y-74351155D01*
X65696155Y-74283258D01*
X65696984Y-74240453D01*
X65695117Y-74230728D01*
X65676928Y-74181502D01*
X65643177Y-74115645D01*
X65596825Y-74039111D01*
X65579034Y-74011531D01*
X65507552Y-73899068D01*
X65446790Y-73800718D01*
X65398087Y-73718778D01*
X65362784Y-73655551D01*
X65342222Y-73613336D01*
X65337739Y-73594433D01*
X65338258Y-73593766D01*
X65356815Y-73580151D01*
X65396472Y-73555265D01*
X65451796Y-73522422D01*
X65517354Y-73484934D01*
X65522896Y-73481822D01*
X65594077Y-73442658D01*
X65643651Y-73417682D01*
X65676176Y-73405104D01*
X65696212Y-73403135D01*
X65708317Y-73409986D01*
G37*
D12*
%TO.C,TP11*%
X72700000Y-49800000D02*
G75*
G02*
X71300000Y-49800000I-700000J0D01*
G01*
X71300000Y-49800000D02*
G75*
G02*
X72700000Y-49800000I700000J0D01*
G01*
%TO.C,TP9*%
X75700000Y-49800000D02*
G75*
G02*
X74300000Y-49800000I-700000J0D01*
G01*
X74300000Y-49800000D02*
G75*
G02*
X75700000Y-49800000I700000J0D01*
G01*
D13*
%TO.C,REF\u002A\u002A*%
G36*
X71764493Y-76106360D02*
G01*
X68268931Y-76106360D01*
X68268931Y-75255164D01*
X71764493Y-75255164D01*
X71764493Y-76106360D01*
G37*
G36*
X69300455Y-73524441D02*
G01*
X69306415Y-73524895D01*
X69312289Y-73525641D01*
X69318069Y-73526673D01*
X69323747Y-73527984D01*
X69329317Y-73529566D01*
X69334770Y-73531411D01*
X69340100Y-73533513D01*
X69345300Y-73535863D01*
X69350360Y-73538456D01*
X69355276Y-73541282D01*
X69360038Y-73544335D01*
X69364640Y-73547607D01*
X69369074Y-73551092D01*
X69373333Y-73554781D01*
X69377409Y-73558668D01*
X69381295Y-73562744D01*
X69384985Y-73567003D01*
X69388469Y-73571437D01*
X69391742Y-73576039D01*
X69394795Y-73580801D01*
X69397621Y-73585716D01*
X69400213Y-73590777D01*
X69402564Y-73595976D01*
X69404665Y-73601306D01*
X69406511Y-73606760D01*
X69408092Y-73612329D01*
X69409403Y-73618008D01*
X69410435Y-73623787D01*
X69411182Y-73629661D01*
X69411635Y-73635622D01*
X69411788Y-73641661D01*
X69411635Y-73647701D01*
X69411182Y-73653661D01*
X69410435Y-73659535D01*
X69409403Y-73665314D01*
X69408092Y-73670992D01*
X69406511Y-73676562D01*
X69404665Y-73682015D01*
X69402564Y-73687345D01*
X69400213Y-73692543D01*
X69397621Y-73697604D01*
X69394795Y-73702518D01*
X69391742Y-73707280D01*
X69388469Y-73711882D01*
X69384985Y-73716315D01*
X69381295Y-73720574D01*
X69377409Y-73724649D01*
X69373333Y-73728535D01*
X69369074Y-73732224D01*
X69364640Y-73735708D01*
X69360038Y-73738980D01*
X69355276Y-73742033D01*
X69350360Y-73744859D01*
X69345300Y-73747450D01*
X69340100Y-73749801D01*
X69334770Y-73751902D01*
X69329317Y-73753747D01*
X69323747Y-73755329D01*
X69318069Y-73756639D01*
X69312289Y-73757671D01*
X69306415Y-73758417D01*
X69300455Y-73758871D01*
X69294415Y-73759023D01*
X69288376Y-73758871D01*
X69282415Y-73758417D01*
X69276541Y-73757671D01*
X69270762Y-73756639D01*
X69265083Y-73755329D01*
X69259514Y-73753747D01*
X69254060Y-73751902D01*
X69248730Y-73749801D01*
X69243531Y-73747450D01*
X69238470Y-73744859D01*
X69233555Y-73742033D01*
X69228793Y-73738980D01*
X69224191Y-73735708D01*
X69219757Y-73732224D01*
X69215498Y-73728535D01*
X69211422Y-73724649D01*
X69207535Y-73720574D01*
X69203846Y-73716315D01*
X69200362Y-73711882D01*
X69197089Y-73707280D01*
X69194036Y-73702519D01*
X69191210Y-73697604D01*
X69188618Y-73692543D01*
X69186267Y-73687345D01*
X69184165Y-73682015D01*
X69182320Y-73676562D01*
X69180738Y-73670992D01*
X69179428Y-73665314D01*
X69178395Y-73659535D01*
X69177649Y-73653661D01*
X69177196Y-73647701D01*
X69177043Y-73641661D01*
X69177196Y-73635621D01*
X69177649Y-73629661D01*
X69178395Y-73623787D01*
X69179428Y-73618007D01*
X69180738Y-73612329D01*
X69182320Y-73606759D01*
X69184165Y-73601306D01*
X69186267Y-73595976D01*
X69188618Y-73590777D01*
X69191210Y-73585716D01*
X69194036Y-73580801D01*
X69197089Y-73576039D01*
X69200362Y-73571437D01*
X69203846Y-73567003D01*
X69207535Y-73562744D01*
X69211422Y-73558667D01*
X69215498Y-73554781D01*
X69219757Y-73551092D01*
X69224191Y-73547607D01*
X69228793Y-73544335D01*
X69233555Y-73541282D01*
X69238470Y-73538455D01*
X69243531Y-73535863D01*
X69248730Y-73533513D01*
X69254060Y-73531411D01*
X69259514Y-73529566D01*
X69265083Y-73527984D01*
X69270762Y-73526673D01*
X69276541Y-73525641D01*
X69282415Y-73524895D01*
X69288376Y-73524441D01*
X69294415Y-73524289D01*
X69300455Y-73524441D01*
G37*
G36*
X70846996Y-70696382D02*
G01*
X70863515Y-70709083D01*
X70879279Y-70722338D01*
X70894254Y-70736160D01*
X70908406Y-70750558D01*
X70921701Y-70765545D01*
X70934105Y-70781133D01*
X70945583Y-70797332D01*
X70956102Y-70814153D01*
X70965627Y-70831609D01*
X70974125Y-70849709D01*
X70975519Y-70852984D01*
X70976829Y-70856168D01*
X70978059Y-70859261D01*
X70979210Y-70862260D01*
X70980284Y-70865161D01*
X70981285Y-70867963D01*
X70982214Y-70870662D01*
X70983070Y-70873246D01*
X70983073Y-70873256D01*
X71110952Y-70873256D01*
X71110952Y-70993906D01*
X70965609Y-70993906D01*
X70965179Y-70998903D01*
X70934773Y-71352378D01*
X72105108Y-70119817D01*
X72105108Y-70257308D01*
X70921572Y-71505784D01*
X70909487Y-71646271D01*
X70787459Y-73064874D01*
X70802922Y-73080608D01*
X72031542Y-74330874D01*
X71960740Y-74400449D01*
X70776349Y-73194019D01*
X70728612Y-73748879D01*
X70728336Y-73751323D01*
X70727929Y-73753755D01*
X70727396Y-73756174D01*
X70726742Y-73758574D01*
X70725969Y-73760953D01*
X70725082Y-73763306D01*
X70724086Y-73765630D01*
X70722983Y-73767921D01*
X70721778Y-73770176D01*
X70720475Y-73772391D01*
X70717590Y-73776685D01*
X70714361Y-73780776D01*
X70710820Y-73784633D01*
X70706998Y-73788226D01*
X70702928Y-73791528D01*
X70698641Y-73794509D01*
X70694169Y-73797138D01*
X70691874Y-73798312D01*
X70689544Y-73799388D01*
X70687185Y-73800361D01*
X70684799Y-73801228D01*
X70682391Y-73801985D01*
X70679965Y-73802630D01*
X70677524Y-73803157D01*
X70675074Y-73803563D01*
X70675074Y-73985554D01*
X70451499Y-73985554D01*
X70451499Y-73804026D01*
X69601721Y-73804026D01*
X69590127Y-73824251D01*
X69577246Y-73843595D01*
X69563134Y-73862000D01*
X69547851Y-73879406D01*
X69531456Y-73895756D01*
X69514006Y-73910991D01*
X69495561Y-73925052D01*
X69476179Y-73937882D01*
X69455918Y-73949421D01*
X69434837Y-73959612D01*
X69412994Y-73968395D01*
X69390449Y-73975712D01*
X69367258Y-73981505D01*
X69343482Y-73985715D01*
X69319178Y-73988284D01*
X69294406Y-73989153D01*
X69276524Y-73988701D01*
X69258877Y-73987359D01*
X69241486Y-73985150D01*
X69224374Y-73982094D01*
X69207562Y-73978214D01*
X69191072Y-73973532D01*
X69174926Y-73968069D01*
X69159146Y-73961847D01*
X69143754Y-73954888D01*
X69128770Y-73947215D01*
X69114218Y-73938848D01*
X69100120Y-73929810D01*
X69086496Y-73920122D01*
X69073368Y-73909806D01*
X69060760Y-73898884D01*
X69048692Y-73887379D01*
X69037186Y-73875311D01*
X69026264Y-73862702D01*
X69015948Y-73849575D01*
X69006260Y-73835951D01*
X68997221Y-73821853D01*
X68988854Y-73807301D01*
X68981180Y-73792317D01*
X68974221Y-73776925D01*
X68967999Y-73761144D01*
X68962536Y-73744998D01*
X68957853Y-73728508D01*
X68953973Y-73711696D01*
X68950917Y-73694583D01*
X68948707Y-73677192D01*
X68947365Y-73659544D01*
X68946913Y-73641661D01*
X69113692Y-73641661D01*
X69113927Y-73650961D01*
X69114625Y-73660139D01*
X69115774Y-73669183D01*
X69117364Y-73678082D01*
X69119382Y-73686826D01*
X69121817Y-73695402D01*
X69124659Y-73703799D01*
X69127895Y-73712006D01*
X69131514Y-73720011D01*
X69135505Y-73727803D01*
X69139857Y-73735371D01*
X69144558Y-73742704D01*
X69149596Y-73749790D01*
X69154961Y-73756617D01*
X69160642Y-73763174D01*
X69166626Y-73769451D01*
X69172902Y-73775435D01*
X69179460Y-73781115D01*
X69186287Y-73786480D01*
X69193373Y-73791519D01*
X69200705Y-73796220D01*
X69208273Y-73800572D01*
X69216066Y-73804563D01*
X69224071Y-73808182D01*
X69232278Y-73811418D01*
X69240675Y-73814259D01*
X69249251Y-73816695D01*
X69257994Y-73818713D01*
X69266894Y-73820302D01*
X69275938Y-73821452D01*
X69285116Y-73822150D01*
X69294416Y-73822385D01*
X69303716Y-73822150D01*
X69312895Y-73821452D01*
X69321940Y-73820302D01*
X69330840Y-73818713D01*
X69339584Y-73816695D01*
X69348160Y-73814259D01*
X69356557Y-73811418D01*
X69364764Y-73808182D01*
X69372770Y-73804563D01*
X69380562Y-73800572D01*
X69388130Y-73796220D01*
X69395463Y-73791519D01*
X69402548Y-73786480D01*
X69409375Y-73781115D01*
X69415933Y-73775435D01*
X69422209Y-73769451D01*
X69428193Y-73763174D01*
X69433873Y-73756617D01*
X69439238Y-73749790D01*
X69444276Y-73742704D01*
X69448977Y-73735371D01*
X69453328Y-73727803D01*
X69457319Y-73720011D01*
X69460938Y-73712006D01*
X69464174Y-73703799D01*
X69467015Y-73695402D01*
X69469450Y-73686826D01*
X69471468Y-73678082D01*
X69473057Y-73669183D01*
X69474206Y-73660139D01*
X69474904Y-73650961D01*
X69475139Y-73641661D01*
X69474904Y-73632361D01*
X69474206Y-73623182D01*
X69473057Y-73614137D01*
X69471468Y-73605237D01*
X69469450Y-73596493D01*
X69467015Y-73587917D01*
X69464174Y-73579520D01*
X69460938Y-73571312D01*
X69457319Y-73563307D01*
X69453328Y-73555514D01*
X69448977Y-73547946D01*
X69444276Y-73540614D01*
X69439238Y-73533528D01*
X69433873Y-73526701D01*
X69428193Y-73520144D01*
X69422209Y-73513868D01*
X69415933Y-73507884D01*
X69409375Y-73502204D01*
X69402548Y-73496839D01*
X69395463Y-73491800D01*
X69388130Y-73487100D01*
X69380562Y-73482748D01*
X69372770Y-73478758D01*
X69364764Y-73475139D01*
X69356557Y-73471903D01*
X69348160Y-73469062D01*
X69339583Y-73466627D01*
X69330840Y-73464609D01*
X69321939Y-73463020D01*
X69312895Y-73461870D01*
X69303716Y-73461172D01*
X69294416Y-73460937D01*
X69285116Y-73461172D01*
X69275938Y-73461870D01*
X69266894Y-73463020D01*
X69257994Y-73464609D01*
X69249251Y-73466627D01*
X69240675Y-73469062D01*
X69232278Y-73471903D01*
X69224071Y-73475139D01*
X69216066Y-73478758D01*
X69208273Y-73482748D01*
X69200705Y-73487100D01*
X69193373Y-73491800D01*
X69186287Y-73496839D01*
X69179460Y-73502204D01*
X69172902Y-73507884D01*
X69166626Y-73513868D01*
X69160642Y-73520144D01*
X69154961Y-73526701D01*
X69149596Y-73533528D01*
X69144558Y-73540614D01*
X69139857Y-73547946D01*
X69135505Y-73555514D01*
X69131514Y-73563307D01*
X69127895Y-73571312D01*
X69124659Y-73579520D01*
X69121817Y-73587917D01*
X69119382Y-73596493D01*
X69117364Y-73605237D01*
X69115774Y-73614137D01*
X69114625Y-73623182D01*
X69113927Y-73632361D01*
X69113692Y-73641661D01*
X68946913Y-73641661D01*
X68946990Y-73634275D01*
X68947220Y-73626927D01*
X68947601Y-73619618D01*
X68948132Y-73612351D01*
X68948811Y-73605126D01*
X68949636Y-73597944D01*
X68950606Y-73590808D01*
X68951719Y-73583719D01*
X68189402Y-74387871D01*
X68117395Y-74319533D01*
X69190152Y-73189736D01*
X69325211Y-73189736D01*
X69335165Y-73296522D01*
X69351241Y-73298781D01*
X69367074Y-73301764D01*
X69382644Y-73305455D01*
X69397936Y-73309836D01*
X69412931Y-73314889D01*
X69427612Y-73320597D01*
X69441961Y-73326942D01*
X69455962Y-73333907D01*
X69469596Y-73341475D01*
X69482846Y-73349628D01*
X69495696Y-73358348D01*
X69508126Y-73367619D01*
X69520120Y-73377422D01*
X69531661Y-73387740D01*
X69542731Y-73398556D01*
X69553312Y-73409852D01*
X69563387Y-73421611D01*
X69572938Y-73433816D01*
X69581949Y-73446448D01*
X69590401Y-73459491D01*
X69598277Y-73472926D01*
X69605560Y-73486738D01*
X69612232Y-73500907D01*
X69618276Y-73515417D01*
X69623675Y-73530250D01*
X69628410Y-73545388D01*
X69632464Y-73560815D01*
X69635821Y-73576513D01*
X69638462Y-73592463D01*
X69640370Y-73608650D01*
X69641528Y-73625055D01*
X69641918Y-73641661D01*
X69641878Y-73646946D01*
X69641760Y-73652211D01*
X69641564Y-73657458D01*
X69641292Y-73662686D01*
X69640943Y-73667892D01*
X69640518Y-73673079D01*
X69640018Y-73678243D01*
X69639444Y-73683386D01*
X70613170Y-73683386D01*
X70665020Y-73080608D01*
X70036031Y-72439917D01*
X69325211Y-73189736D01*
X69190152Y-73189736D01*
X69202792Y-73176424D01*
X69056061Y-71602063D01*
X69177254Y-71602063D01*
X69313146Y-73060219D01*
X69967964Y-72370583D01*
X69966217Y-72368803D01*
X70103444Y-72368803D01*
X70105193Y-72370583D01*
X70676109Y-72951563D01*
X70788394Y-71646271D01*
X70103444Y-72368803D01*
X69966217Y-72368803D01*
X69190657Y-71578798D01*
X69190657Y-71602063D01*
X69177254Y-71602063D01*
X69056061Y-71602063D01*
X68781271Y-71602063D01*
X68781271Y-71289881D01*
X68886859Y-71289881D01*
X68886859Y-71493578D01*
X69045967Y-71493578D01*
X69039563Y-71424908D01*
X68906998Y-71289881D01*
X68886859Y-71289881D01*
X68781271Y-71289881D01*
X68781271Y-71181376D01*
X68800485Y-71181376D01*
X67877462Y-70241181D01*
X67877462Y-70103620D01*
X68936568Y-71181386D01*
X69016860Y-71181386D01*
X68999845Y-70998903D01*
X69121052Y-70998903D01*
X69138053Y-71181397D01*
X69190657Y-71181397D01*
X69190657Y-71439939D01*
X69243368Y-71493578D01*
X69482167Y-71736578D01*
X69482167Y-71597076D01*
X70221158Y-71597076D01*
X70221158Y-71838376D01*
X69582196Y-71838376D01*
X70035408Y-72299561D01*
X70801616Y-71492613D01*
X70844084Y-70998903D01*
X69121052Y-70998903D01*
X68999845Y-70998903D01*
X68999517Y-70995384D01*
X68995898Y-70996857D01*
X68992236Y-70998244D01*
X68988531Y-70999544D01*
X68984786Y-71000755D01*
X68981002Y-71001876D01*
X68977179Y-71002907D01*
X68973320Y-71003845D01*
X68969425Y-71004689D01*
X68965495Y-71005439D01*
X68961532Y-71006093D01*
X68957538Y-71006650D01*
X68953512Y-71007108D01*
X68949458Y-71007467D01*
X68945375Y-71007724D01*
X68941266Y-71007880D01*
X68937131Y-71007932D01*
X68928852Y-71007723D01*
X68920682Y-71007101D01*
X68912631Y-71006078D01*
X68904709Y-71004663D01*
X68896926Y-71002867D01*
X68889292Y-71000699D01*
X68881818Y-70998170D01*
X68874512Y-70995289D01*
X68867386Y-70992068D01*
X68860450Y-70988515D01*
X68853713Y-70984641D01*
X68847187Y-70980457D01*
X68840880Y-70975972D01*
X68834803Y-70971196D01*
X68828966Y-70966140D01*
X68823379Y-70960813D01*
X68818053Y-70955226D01*
X68812997Y-70949389D01*
X68808221Y-70943312D01*
X68803736Y-70937005D01*
X68799552Y-70930478D01*
X68795679Y-70923741D01*
X68792126Y-70916805D01*
X68788905Y-70909679D01*
X68786025Y-70902374D01*
X68783496Y-70894900D01*
X68781328Y-70887266D01*
X68779532Y-70879484D01*
X68778420Y-70873256D01*
X69125787Y-70873256D01*
X70527780Y-70873256D01*
X70527780Y-70763465D01*
X70733951Y-70763465D01*
X70733951Y-70873246D01*
X70854078Y-70873246D01*
X70849477Y-70865075D01*
X70844441Y-70857087D01*
X70838981Y-70849282D01*
X70833107Y-70841657D01*
X70826829Y-70834211D01*
X70820156Y-70826940D01*
X70813099Y-70819843D01*
X70805669Y-70812919D01*
X70797874Y-70806164D01*
X70789724Y-70799577D01*
X70781231Y-70793156D01*
X70772403Y-70786899D01*
X70763251Y-70780803D01*
X70753785Y-70774867D01*
X70744015Y-70769088D01*
X70733951Y-70763465D01*
X70527780Y-70763465D01*
X70527780Y-70689748D01*
X70487706Y-70680816D01*
X70446914Y-70672846D01*
X70405655Y-70665788D01*
X70364175Y-70659590D01*
X70322725Y-70654204D01*
X70281551Y-70649577D01*
X70240903Y-70645660D01*
X70201030Y-70642403D01*
X70201030Y-70647048D01*
X70201030Y-70767698D01*
X69607844Y-70767698D01*
X69607844Y-70655092D01*
X69567922Y-70660656D01*
X69528206Y-70667053D01*
X69488938Y-70674333D01*
X69450354Y-70682550D01*
X69412687Y-70691755D01*
X69376172Y-70702001D01*
X69341041Y-70713340D01*
X69307529Y-70725826D01*
X69275870Y-70739510D01*
X69246297Y-70754444D01*
X69232367Y-70762397D01*
X69219046Y-70770682D01*
X69206364Y-70779306D01*
X69194349Y-70788276D01*
X69183032Y-70797598D01*
X69172441Y-70807278D01*
X69162605Y-70817323D01*
X69153555Y-70827740D01*
X69145319Y-70838535D01*
X69137926Y-70849715D01*
X69131406Y-70861287D01*
X69125787Y-70873256D01*
X68778420Y-70873256D01*
X68778117Y-70871562D01*
X68777094Y-70863512D01*
X68776473Y-70855343D01*
X68776264Y-70847065D01*
X68776473Y-70838787D01*
X68777094Y-70830617D01*
X68778117Y-70822566D01*
X68779532Y-70814644D01*
X68781328Y-70806861D01*
X68783496Y-70799227D01*
X68786025Y-70791752D01*
X68788905Y-70784447D01*
X68792126Y-70777321D01*
X68795679Y-70770385D01*
X68799552Y-70763648D01*
X68803736Y-70757121D01*
X68808221Y-70750814D01*
X68812997Y-70744737D01*
X68818053Y-70738900D01*
X68823379Y-70733314D01*
X68828966Y-70727987D01*
X68834803Y-70722931D01*
X68840880Y-70718156D01*
X68847187Y-70713671D01*
X68853713Y-70709487D01*
X68860450Y-70705613D01*
X68867386Y-70702061D01*
X68874512Y-70698840D01*
X68881818Y-70695959D01*
X68889292Y-70693430D01*
X68896926Y-70691263D01*
X68904709Y-70689467D01*
X68912631Y-70688052D01*
X68920682Y-70687029D01*
X68928852Y-70686408D01*
X68937131Y-70686199D01*
X68946695Y-70686478D01*
X68956113Y-70687307D01*
X68965367Y-70688669D01*
X68974442Y-70690548D01*
X68983324Y-70692930D01*
X68991995Y-70695798D01*
X69000440Y-70699136D01*
X69008645Y-70702930D01*
X69016592Y-70707163D01*
X69024267Y-70711820D01*
X69031653Y-70716884D01*
X69038735Y-70722341D01*
X69045498Y-70728175D01*
X69051926Y-70734370D01*
X69058003Y-70740910D01*
X69063713Y-70747780D01*
X69085663Y-70724357D01*
X69110010Y-70702507D01*
X69136585Y-70682178D01*
X69165219Y-70663317D01*
X69195743Y-70645872D01*
X69227987Y-70629788D01*
X69261782Y-70615014D01*
X69296960Y-70601496D01*
X69325822Y-70591730D01*
X69728514Y-70591730D01*
X69728514Y-70647048D01*
X70080400Y-70647048D01*
X70080400Y-70591730D01*
X69728514Y-70591730D01*
X69325822Y-70591730D01*
X69333352Y-70589182D01*
X69370787Y-70578018D01*
X69409097Y-70567952D01*
X69448113Y-70558932D01*
X69487666Y-70550903D01*
X69527587Y-70543813D01*
X69607844Y-70532241D01*
X69607844Y-70471090D01*
X70201030Y-70471090D01*
X70201030Y-70518867D01*
X70241035Y-70521742D01*
X70281606Y-70525291D01*
X70322580Y-70529568D01*
X70363794Y-70534628D01*
X70405085Y-70540526D01*
X70446288Y-70547316D01*
X70487241Y-70555052D01*
X70527780Y-70563789D01*
X70527780Y-70551453D01*
X70733941Y-70551453D01*
X70733941Y-70631192D01*
X70754273Y-70640803D01*
X70774054Y-70650900D01*
X70793251Y-70661495D01*
X70811830Y-70672600D01*
X70829756Y-70684225D01*
X70837587Y-70689748D01*
X70846996Y-70696382D01*
G37*
%TO.C,G\u002A\u002A\u002A*%
G36*
X62900000Y-77850000D02*
G01*
X62900000Y-78350000D01*
X62800000Y-78350000D01*
X62700000Y-78350000D01*
X62700000Y-77850000D01*
X62700000Y-77350000D01*
X62800000Y-77350000D01*
X62900000Y-77350000D01*
X62900000Y-77850000D01*
G37*
G36*
X62900000Y-83550000D02*
G01*
X62900000Y-83750000D01*
X63098333Y-83750000D01*
X63108135Y-83750008D01*
X63168320Y-83750425D01*
X63221074Y-83751402D01*
X63263256Y-83752836D01*
X63291723Y-83754625D01*
X63303333Y-83756666D01*
X63304901Y-83760853D01*
X63307519Y-83781636D01*
X63309326Y-83815110D01*
X63310000Y-83856459D01*
X63310000Y-83949585D01*
X63107500Y-83952292D01*
X62905000Y-83955000D01*
X62902291Y-84157859D01*
X62899583Y-84360719D01*
X62802291Y-84357859D01*
X62705000Y-84355000D01*
X62702292Y-84152500D01*
X62699585Y-83950000D01*
X62499792Y-83950000D01*
X62300000Y-83950000D01*
X62300000Y-83850000D01*
X62300000Y-83750000D01*
X62500000Y-83750000D01*
X62700000Y-83750000D01*
X62700000Y-83550000D01*
X62700000Y-83350000D01*
X62800000Y-83350000D01*
X62900000Y-83350000D01*
X62900000Y-83550000D01*
G37*
G36*
X62916510Y-80398122D02*
G01*
X63008252Y-80430190D01*
X63043344Y-80449682D01*
X63096061Y-80488521D01*
X63146527Y-80535417D01*
X63189321Y-80585165D01*
X63219020Y-80632559D01*
X63230047Y-80657074D01*
X63259376Y-80750183D01*
X63270295Y-80844011D01*
X63263159Y-80936194D01*
X63238322Y-81024367D01*
X63196140Y-81106166D01*
X63136968Y-81179228D01*
X63084257Y-81226458D01*
X63022613Y-81266170D01*
X62952350Y-81295178D01*
X62899877Y-81312342D01*
X62902438Y-82083365D01*
X62905000Y-82854389D01*
X62977845Y-82866585D01*
X63059712Y-82883676D01*
X63191984Y-82926724D01*
X63314653Y-82986470D01*
X63426580Y-83061832D01*
X63526628Y-83151728D01*
X63613661Y-83255074D01*
X63686541Y-83370790D01*
X63744130Y-83497793D01*
X63785292Y-83635000D01*
X63786082Y-83638573D01*
X63791761Y-83676168D01*
X63795238Y-83726513D01*
X63796620Y-83791994D01*
X63796013Y-83875000D01*
X63795620Y-83897044D01*
X63794097Y-83959223D01*
X63791883Y-84007083D01*
X63788494Y-84044995D01*
X63783447Y-84077332D01*
X63776260Y-84108465D01*
X63766450Y-84142766D01*
X63753574Y-84182603D01*
X63698319Y-84313556D01*
X63627268Y-84432917D01*
X63541418Y-84539714D01*
X63441769Y-84632973D01*
X63329317Y-84711722D01*
X63205061Y-84774987D01*
X63070000Y-84821795D01*
X63061353Y-84824125D01*
X63028936Y-84832019D01*
X62997712Y-84837656D01*
X62963444Y-84841399D01*
X62921895Y-84843611D01*
X62868826Y-84844654D01*
X62800000Y-84844890D01*
X62781134Y-84844865D01*
X62716848Y-84844393D01*
X62667421Y-84843064D01*
X62628748Y-84840521D01*
X62596719Y-84836408D01*
X62567225Y-84830371D01*
X62536159Y-84822053D01*
X62470932Y-84801132D01*
X62339359Y-84744675D01*
X62220021Y-84673395D01*
X62113784Y-84588430D01*
X62021515Y-84490920D01*
X61944079Y-84382001D01*
X61882344Y-84262811D01*
X61837174Y-84134489D01*
X61809438Y-83998173D01*
X61800799Y-83867122D01*
X62021908Y-83867122D01*
X62033022Y-83982968D01*
X62060507Y-84096110D01*
X62103251Y-84203722D01*
X62160141Y-84302981D01*
X62230064Y-84391060D01*
X62311908Y-84465136D01*
X62368487Y-84503347D01*
X62445059Y-84545672D01*
X62525064Y-84581693D01*
X62600000Y-84607217D01*
X62622644Y-84612331D01*
X62680678Y-84620147D01*
X62749366Y-84624409D01*
X62822646Y-84625134D01*
X62894457Y-84622334D01*
X62958736Y-84616025D01*
X63009421Y-84606221D01*
X63125745Y-84564623D01*
X63233183Y-84506458D01*
X63328568Y-84433559D01*
X63410663Y-84347230D01*
X63478234Y-84248773D01*
X63530043Y-84139492D01*
X63564854Y-84020689D01*
X63565750Y-84016295D01*
X63574080Y-83955807D01*
X63578198Y-83884956D01*
X63578098Y-83811220D01*
X63573770Y-83742076D01*
X63565208Y-83685000D01*
X63532542Y-83573195D01*
X63481360Y-83461794D01*
X63415019Y-83362407D01*
X63334606Y-83276012D01*
X63241207Y-83203589D01*
X63135911Y-83146117D01*
X63019802Y-83104577D01*
X62893970Y-83079948D01*
X62798977Y-83074157D01*
X62677567Y-83083414D01*
X62560073Y-83110867D01*
X62448790Y-83155746D01*
X62346013Y-83217281D01*
X62254038Y-83294701D01*
X62235888Y-83313220D01*
X62157981Y-83408203D01*
X62097998Y-83511154D01*
X62055218Y-83623521D01*
X62028920Y-83746753D01*
X62028278Y-83751396D01*
X62021908Y-83867122D01*
X61800799Y-83867122D01*
X61800000Y-83854999D01*
X61804409Y-83756789D01*
X61826224Y-83618593D01*
X61865415Y-83487743D01*
X61920999Y-83365518D01*
X61991995Y-83253199D01*
X62077420Y-83152066D01*
X62176294Y-83063400D01*
X62287633Y-82988482D01*
X62410456Y-82928591D01*
X62543782Y-82885009D01*
X62570800Y-82878426D01*
X62613993Y-82868943D01*
X62649408Y-82862424D01*
X62671282Y-82860000D01*
X62700000Y-82860000D01*
X62700000Y-82086339D01*
X62699999Y-81312679D01*
X62642009Y-81291535D01*
X62618630Y-81282346D01*
X62534314Y-81236466D01*
X62462892Y-81176208D01*
X62405767Y-81103270D01*
X62364340Y-81019349D01*
X62340016Y-80926141D01*
X62334288Y-80854229D01*
X62342868Y-80762160D01*
X62368411Y-80674351D01*
X62409678Y-80593735D01*
X62465430Y-80523245D01*
X62534428Y-80465817D01*
X62547576Y-80457388D01*
X62634593Y-80414855D01*
X62726924Y-80390661D01*
X62798977Y-80386373D01*
X62821815Y-80385014D01*
X62916510Y-80398122D01*
G37*
G36*
X62805000Y-76855536D02*
G01*
X62862292Y-76856270D01*
X62948397Y-76861115D01*
X63023617Y-76871316D01*
X63093347Y-76887980D01*
X63162981Y-76912210D01*
X63237914Y-76945110D01*
X63302800Y-76978522D01*
X63421142Y-77055561D01*
X63525106Y-77146233D01*
X63614084Y-77249775D01*
X63687465Y-77365425D01*
X63744642Y-77492420D01*
X63785005Y-77630000D01*
X63790988Y-77666684D01*
X63795946Y-77726927D01*
X63798042Y-77797568D01*
X63797422Y-77873557D01*
X63794230Y-77949844D01*
X63788610Y-78021380D01*
X63780709Y-78083115D01*
X63770670Y-78130000D01*
X63767730Y-78139818D01*
X63729288Y-78243321D01*
X63678663Y-78345536D01*
X63618736Y-78441788D01*
X63552388Y-78527401D01*
X63482500Y-78597702D01*
X63450322Y-78624496D01*
X63336462Y-78704184D01*
X63214235Y-78766942D01*
X63081823Y-78813594D01*
X62937407Y-78844965D01*
X62899815Y-78850940D01*
X62902407Y-79351920D01*
X62905000Y-79852900D01*
X62998920Y-79871873D01*
X63080030Y-79891210D01*
X63200034Y-79932992D01*
X63310412Y-79989561D01*
X63414341Y-80062657D01*
X63515000Y-80154014D01*
X63577418Y-80221465D01*
X63641512Y-80304870D01*
X63694236Y-80393313D01*
X63738448Y-80491715D01*
X63777010Y-80605000D01*
X63782051Y-80623681D01*
X63787372Y-80651504D01*
X63791026Y-80684957D01*
X63793261Y-80727632D01*
X63794331Y-80783116D01*
X63794485Y-80855000D01*
X63794156Y-80919914D01*
X63793273Y-80972250D01*
X63791434Y-81012555D01*
X63788230Y-81044906D01*
X63783250Y-81073378D01*
X63776085Y-81102051D01*
X63766324Y-81135000D01*
X63730299Y-81232300D01*
X63674922Y-81342611D01*
X63607593Y-81446392D01*
X63531213Y-81539241D01*
X63448685Y-81616757D01*
X63433634Y-81628765D01*
X63405174Y-81650521D01*
X63384808Y-81664764D01*
X63376189Y-81668867D01*
X63375856Y-81668465D01*
X63362264Y-81650390D01*
X63342937Y-81622816D01*
X63320733Y-81590065D01*
X63298510Y-81556456D01*
X63279127Y-81526310D01*
X63265440Y-81503947D01*
X63260309Y-81493687D01*
X63264974Y-81486545D01*
X63281981Y-81470262D01*
X63307110Y-81450000D01*
X63330240Y-81431174D01*
X63389839Y-81370093D01*
X63446079Y-81295356D01*
X63496103Y-81211541D01*
X63537053Y-81123229D01*
X63566071Y-81035000D01*
X63568210Y-81026127D01*
X63578784Y-80959882D01*
X63583813Y-80883242D01*
X63583303Y-80803611D01*
X63577263Y-80728396D01*
X63565700Y-80665000D01*
X63565658Y-80664839D01*
X63525303Y-80547311D01*
X63468994Y-80439904D01*
X63398367Y-80343828D01*
X63315055Y-80260291D01*
X63220691Y-80190502D01*
X63116911Y-80135670D01*
X63005348Y-80097002D01*
X62887636Y-80075709D01*
X62765408Y-80072998D01*
X62743989Y-80074458D01*
X62691589Y-80079741D01*
X62642474Y-80086755D01*
X62605000Y-80094387D01*
X62565001Y-80106897D01*
X62495280Y-80135597D01*
X62422868Y-80172234D01*
X62354832Y-80213120D01*
X62298240Y-80254564D01*
X62218047Y-80332392D01*
X62146213Y-80427405D01*
X62090131Y-80531746D01*
X62050408Y-80643150D01*
X62027652Y-80759354D01*
X62022473Y-80878094D01*
X62035478Y-80997104D01*
X62067276Y-81114122D01*
X62078772Y-81143624D01*
X62115151Y-81218536D01*
X62160133Y-81292272D01*
X62210455Y-81360252D01*
X62262855Y-81417895D01*
X62314069Y-81460620D01*
X62323342Y-81467224D01*
X62342339Y-81483142D01*
X62349931Y-81493477D01*
X62347921Y-81498095D01*
X62337057Y-81516372D01*
X62319211Y-81544304D01*
X62297159Y-81577704D01*
X62273680Y-81612387D01*
X62251552Y-81644166D01*
X62233553Y-81668854D01*
X62233466Y-81668965D01*
X62222224Y-81668101D01*
X62200688Y-81654246D01*
X62171243Y-81629801D01*
X62136275Y-81597171D01*
X62098168Y-81558756D01*
X62059307Y-81516961D01*
X62022076Y-81474188D01*
X61988862Y-81432840D01*
X61962048Y-81395319D01*
X61956772Y-81387173D01*
X61893397Y-81270146D01*
X61846246Y-81144002D01*
X61815835Y-81011827D01*
X61802683Y-80876710D01*
X61807310Y-80741738D01*
X61830232Y-80610000D01*
X61846786Y-80554418D01*
X61881039Y-80467318D01*
X61924392Y-80378467D01*
X61973406Y-80294710D01*
X62024644Y-80222891D01*
X62034582Y-80210794D01*
X62116937Y-80124917D01*
X62211785Y-80047484D01*
X62315446Y-79980627D01*
X62424238Y-79926479D01*
X62534483Y-79887173D01*
X62642500Y-79864841D01*
X62700000Y-79857695D01*
X62700000Y-79354521D01*
X62699993Y-79299708D01*
X62699915Y-79194926D01*
X62699703Y-79107757D01*
X62699302Y-79036569D01*
X62698654Y-78979730D01*
X62697703Y-78935607D01*
X62696394Y-78902569D01*
X62694670Y-78878983D01*
X62692475Y-78863217D01*
X62689752Y-78853638D01*
X62686446Y-78848615D01*
X62682500Y-78846514D01*
X62674349Y-78844626D01*
X62647810Y-78839812D01*
X62615000Y-78834869D01*
X62577613Y-78828628D01*
X62471353Y-78799634D01*
X62363861Y-78755165D01*
X62259550Y-78697547D01*
X62162832Y-78629102D01*
X62078121Y-78552154D01*
X61995837Y-78455692D01*
X61920643Y-78339603D01*
X61863735Y-78215458D01*
X61825157Y-78083377D01*
X61804954Y-77943481D01*
X61803989Y-77863703D01*
X62021535Y-77863703D01*
X62033464Y-77987533D01*
X62065326Y-78110958D01*
X62089235Y-78173634D01*
X62130022Y-78253408D01*
X62181993Y-78326796D01*
X62249094Y-78400000D01*
X62257874Y-78408619D01*
X62323627Y-78467870D01*
X62386815Y-78513771D01*
X62453426Y-78550186D01*
X62529445Y-78580981D01*
X62530619Y-78581395D01*
X62649909Y-78613659D01*
X62769233Y-78627433D01*
X62886836Y-78623601D01*
X63000963Y-78603045D01*
X63109861Y-78566646D01*
X63211776Y-78515289D01*
X63304952Y-78449854D01*
X63387635Y-78371226D01*
X63458072Y-78280285D01*
X63514507Y-78177916D01*
X63555186Y-78065000D01*
X63558970Y-78049283D01*
X63567560Y-77995068D01*
X63573333Y-77929701D01*
X63576130Y-77859345D01*
X63575793Y-77790167D01*
X63572162Y-77728330D01*
X63565080Y-77680000D01*
X63534660Y-77575666D01*
X63483708Y-77463352D01*
X63417140Y-77362850D01*
X63335868Y-77275118D01*
X63240800Y-77201115D01*
X63132846Y-77141799D01*
X63012914Y-77098129D01*
X63001092Y-77094884D01*
X62960461Y-77085674D01*
X62918336Y-77079881D01*
X62868566Y-77076849D01*
X62805000Y-77075920D01*
X62797787Y-77075922D01*
X62715001Y-77078333D01*
X62644573Y-77086208D01*
X62579758Y-77101060D01*
X62513815Y-77124399D01*
X62440000Y-77157737D01*
X62396891Y-77179716D01*
X62361417Y-77201013D01*
X62328548Y-77225439D01*
X62292985Y-77256932D01*
X62249431Y-77299431D01*
X62207131Y-77342773D01*
X62175589Y-77378365D01*
X62151135Y-77411235D01*
X62129831Y-77446680D01*
X62107737Y-77490000D01*
X62104938Y-77495815D01*
X62057314Y-77617241D01*
X62029499Y-77740071D01*
X62021535Y-77863703D01*
X61803989Y-77863703D01*
X61803168Y-77795892D01*
X61805233Y-77763092D01*
X61825426Y-77621254D01*
X61863471Y-77488425D01*
X61919364Y-77364615D01*
X61993100Y-77249836D01*
X62084675Y-77144100D01*
X62114556Y-77114973D01*
X62207685Y-77036796D01*
X62306249Y-76973682D01*
X62414618Y-76923102D01*
X62537165Y-76882531D01*
X62541095Y-76881442D01*
X62579674Y-76871339D01*
X62613475Y-76864227D01*
X62647454Y-76859593D01*
X62686565Y-76856930D01*
X62735762Y-76855726D01*
X62800000Y-76855472D01*
X62805000Y-76855536D01*
G37*
D12*
%TO.C,TP6*%
X87700000Y-58800000D02*
G75*
G02*
X86300000Y-58800000I-700000J0D01*
G01*
X86300000Y-58800000D02*
G75*
G02*
X87700000Y-58800000I700000J0D01*
G01*
%TO.C,TP8*%
X66950000Y-68800000D02*
G75*
G02*
X65050000Y-68800000I-950000J0D01*
G01*
X65050000Y-68800000D02*
G75*
G02*
X66950000Y-68800000I950000J0D01*
G01*
%TO.C,TP2*%
X69950000Y-49800000D02*
G75*
G02*
X68050000Y-49800000I-950000J0D01*
G01*
X68050000Y-49800000D02*
G75*
G02*
X69950000Y-49800000I950000J0D01*
G01*
%TO.C,TP10*%
X74950000Y-83000000D02*
G75*
G02*
X73050000Y-83000000I-950000J0D01*
G01*
X73050000Y-83000000D02*
G75*
G02*
X74950000Y-83000000I950000J0D01*
G01*
%TO.C,TP7*%
X69950000Y-56800000D02*
G75*
G02*
X68050000Y-56800000I-950000J0D01*
G01*
X68050000Y-56800000D02*
G75*
G02*
X69950000Y-56800000I950000J0D01*
G01*
%TO.C,TP4*%
X87700000Y-52800000D02*
G75*
G02*
X86300000Y-52800000I-700000J0D01*
G01*
X86300000Y-52800000D02*
G75*
G02*
X87700000Y-52800000I700000J0D01*
G01*
%TO.C,TP1*%
X66950000Y-49800000D02*
G75*
G02*
X65050000Y-49800000I-950000J0D01*
G01*
X65050000Y-49800000D02*
G75*
G02*
X66950000Y-49800000I950000J0D01*
G01*
D13*
%TO.C,LOG1*%
G36*
X71603857Y-58595945D02*
G01*
X71507676Y-58595945D01*
X71507676Y-58507779D01*
X71603857Y-58507779D01*
X71603857Y-58595945D01*
G37*
G36*
X72389342Y-58515794D02*
G01*
X72229039Y-58515794D01*
X72229039Y-58355491D01*
X72389342Y-58355491D01*
X72389342Y-58515794D01*
G37*
G36*
X72846205Y-58107021D02*
G01*
X72645826Y-58107021D01*
X72645826Y-57898628D01*
X72846205Y-57898628D01*
X72846205Y-58107021D01*
G37*
G36*
X72846205Y-58732203D02*
G01*
X72669872Y-58732203D01*
X72669872Y-58555870D01*
X72846205Y-58555870D01*
X72846205Y-58732203D01*
G37*
G36*
X72902311Y-59237157D02*
G01*
X72830175Y-59237157D01*
X72830175Y-59173036D01*
X72902311Y-59173036D01*
X72902311Y-59237157D01*
G37*
G36*
X73375205Y-58331446D02*
G01*
X73142765Y-58331446D01*
X73142765Y-58099006D01*
X73375205Y-58099006D01*
X73375205Y-58331446D01*
G37*
G36*
X73295053Y-58916551D02*
G01*
X73158796Y-58916551D01*
X73158796Y-58772279D01*
X73295053Y-58772279D01*
X73295053Y-58916551D01*
G37*
G36*
X73695811Y-57842522D02*
G01*
X73415280Y-57842522D01*
X73415280Y-57561992D01*
X73695811Y-57561992D01*
X73695811Y-57842522D01*
G37*
G36*
X73904204Y-58539839D02*
G01*
X73623674Y-58539839D01*
X73623674Y-58259309D01*
X73904204Y-58259309D01*
X73904204Y-58539839D01*
G37*
G36*
X74681674Y-58860445D02*
G01*
X74409159Y-58860445D01*
X74409159Y-58587930D01*
X74681674Y-58587930D01*
X74681674Y-58860445D01*
G37*
G36*
X74681674Y-60303172D02*
G01*
X74409159Y-60303172D01*
X74409159Y-59157006D01*
X74681674Y-59157006D01*
X74681674Y-60303172D01*
G37*
G36*
X74954189Y-58307400D02*
G01*
X74777855Y-58307400D01*
X74777855Y-58131067D01*
X74954189Y-58131067D01*
X74954189Y-58307400D01*
G37*
G36*
X77903763Y-60303172D02*
G01*
X77631248Y-60303172D01*
X77631248Y-58587930D01*
X77903763Y-58587930D01*
X77903763Y-60303172D01*
G37*
G36*
X72517584Y-59165021D02*
G01*
X72356701Y-59165021D01*
X72361289Y-59008725D01*
X72439436Y-59006431D01*
X72517584Y-59004137D01*
X72517584Y-59165021D01*
G37*
G36*
X74433204Y-58083355D02*
G01*
X74294943Y-58081162D01*
X74156682Y-58078968D01*
X74154488Y-57940707D01*
X74152295Y-57802446D01*
X74433204Y-57802446D01*
X74433204Y-58083355D01*
G37*
G36*
X72032668Y-58792317D02*
G01*
X72035084Y-58843571D01*
X72035726Y-58868564D01*
X72035154Y-58892368D01*
X72033332Y-58905688D01*
X72025986Y-58911649D01*
X72006375Y-58915383D01*
X71972806Y-58916551D01*
X71916448Y-58916551D01*
X71916448Y-58787607D01*
X72032668Y-58792317D01*
G37*
G36*
X75401446Y-58563041D02*
G01*
X75402072Y-58588032D01*
X75401452Y-58611991D01*
X75399558Y-58625511D01*
X75398310Y-58627742D01*
X75389038Y-58632772D01*
X75369557Y-58634848D01*
X75337028Y-58634371D01*
X75278802Y-58632014D01*
X75278802Y-58511786D01*
X75399029Y-58511786D01*
X75401446Y-58563041D01*
G37*
G36*
X73875495Y-59143679D02*
G01*
X73946844Y-59167738D01*
X74011791Y-59204756D01*
X74068172Y-59254206D01*
X74100241Y-59295500D01*
X74130875Y-59355874D01*
X74148404Y-59421043D01*
X74152070Y-59487901D01*
X74141117Y-59553341D01*
X74138319Y-59562555D01*
X74121224Y-59605747D01*
X74098040Y-59644260D01*
X74067173Y-59679450D01*
X74027030Y-59712675D01*
X73976016Y-59745293D01*
X73912538Y-59778662D01*
X73835003Y-59814139D01*
X73821484Y-59820067D01*
X73780328Y-59838729D01*
X73742996Y-59856512D01*
X73713140Y-59871642D01*
X73694415Y-59882349D01*
X73679162Y-59893937D01*
X73655111Y-59919000D01*
X73638158Y-59945573D01*
X73631719Y-59968937D01*
X73631759Y-59971014D01*
X73640228Y-59999674D01*
X73661751Y-60027908D01*
X73693851Y-60052387D01*
X73706432Y-60059424D01*
X73729324Y-60069009D01*
X73754181Y-60073488D01*
X73787985Y-60074502D01*
X73828832Y-60071496D01*
X73868379Y-60060740D01*
X73907577Y-60040366D01*
X73951035Y-60008507D01*
X73985843Y-59980274D01*
X74091300Y-60031113D01*
X74107720Y-60039036D01*
X74143215Y-60056225D01*
X74172155Y-60070322D01*
X74191909Y-60080045D01*
X74199847Y-60084107D01*
X74200318Y-60087935D01*
X74192724Y-60102067D01*
X74176057Y-60124312D01*
X74151799Y-60152754D01*
X74121432Y-60185477D01*
X74072722Y-60230885D01*
X74008306Y-60275382D01*
X73937816Y-60306977D01*
X73858010Y-60327415D01*
X73834659Y-60330119D01*
X73799341Y-60331486D01*
X73763939Y-60330576D01*
X73692022Y-60320549D01*
X73620772Y-60297209D01*
X73555806Y-60259990D01*
X73494872Y-60207868D01*
X73471120Y-60182132D01*
X73428133Y-60120806D01*
X73400503Y-60055892D01*
X73388409Y-59987902D01*
X73392033Y-59917344D01*
X73399469Y-59881521D01*
X73417553Y-59829982D01*
X73444508Y-59783187D01*
X73481510Y-59740047D01*
X73529736Y-59699471D01*
X73590363Y-59660367D01*
X73664565Y-59621646D01*
X73753521Y-59582217D01*
X73777987Y-59571501D01*
X73828865Y-59544693D01*
X73867726Y-59517127D01*
X73892615Y-59490098D01*
X73898499Y-59479750D01*
X73901458Y-59463585D01*
X73896244Y-59441709D01*
X73894523Y-59436893D01*
X73880915Y-59414507D01*
X73859081Y-59399861D01*
X73826632Y-59391868D01*
X73781182Y-59389445D01*
X73756302Y-59389887D01*
X73727875Y-59392972D01*
X73703088Y-59400473D01*
X73674583Y-59414094D01*
X73651865Y-59426647D01*
X73622862Y-59444178D01*
X73600998Y-59459070D01*
X73574315Y-59479395D01*
X73552907Y-59459989D01*
X73540819Y-59449092D01*
X73518595Y-59429146D01*
X73490676Y-59404146D01*
X73460415Y-59377096D01*
X73389331Y-59313610D01*
X73424193Y-59282672D01*
X73439819Y-59269518D01*
X73488430Y-59234421D01*
X73543562Y-59201032D01*
X73599402Y-59172694D01*
X73650137Y-59152748D01*
X73722257Y-59136539D01*
X73799911Y-59133104D01*
X73875495Y-59143679D01*
G37*
G36*
X79333311Y-59604651D02*
G01*
X79344954Y-59696708D01*
X79343727Y-59790088D01*
X79329450Y-59881890D01*
X79301943Y-59969215D01*
X79278583Y-60019195D01*
X79228853Y-60096754D01*
X79167281Y-60165644D01*
X79095626Y-60224509D01*
X79015646Y-60271992D01*
X78929102Y-60306734D01*
X78837752Y-60327379D01*
X78831878Y-60328119D01*
X78797892Y-60330540D01*
X78757179Y-60331330D01*
X78717300Y-60330306D01*
X78702558Y-60329395D01*
X78601025Y-60315926D01*
X78508789Y-60289990D01*
X78424428Y-60250948D01*
X78346518Y-60198161D01*
X78273638Y-60130990D01*
X78256227Y-60112293D01*
X78235639Y-60089026D01*
X78221566Y-60071646D01*
X78216353Y-60062940D01*
X78217028Y-60061721D01*
X78226632Y-60052414D01*
X78245516Y-60036322D01*
X78270988Y-60015547D01*
X78300356Y-59992196D01*
X78330928Y-59968371D01*
X78360013Y-59946178D01*
X78384919Y-59927721D01*
X78402956Y-59915103D01*
X78411430Y-59910429D01*
X78413556Y-59911766D01*
X78424991Y-59921668D01*
X78443706Y-59939113D01*
X78466971Y-59961587D01*
X78482746Y-59976420D01*
X78543913Y-60022410D01*
X78609758Y-60053895D01*
X78682450Y-60071986D01*
X78700314Y-60074294D01*
X78773768Y-60074855D01*
X78843934Y-60061618D01*
X78908956Y-60035721D01*
X78966975Y-59998299D01*
X79016134Y-59950493D01*
X79054573Y-59893439D01*
X79080436Y-59828274D01*
X79088712Y-59798217D01*
X78157977Y-59798217D01*
X78162550Y-59712055D01*
X78172772Y-59619038D01*
X78186148Y-59565778D01*
X78463917Y-59565778D01*
X78758647Y-59565778D01*
X78825277Y-59565642D01*
X78886526Y-59565266D01*
X78940618Y-59564680D01*
X78985779Y-59563915D01*
X79020235Y-59563000D01*
X79042209Y-59561965D01*
X79049929Y-59560841D01*
X79048081Y-59555249D01*
X79037831Y-59538887D01*
X79021334Y-59517164D01*
X79001723Y-59493902D01*
X78982130Y-59472925D01*
X78965689Y-59458055D01*
X78950591Y-59447673D01*
X78921690Y-59430552D01*
X78891513Y-59415035D01*
X78870664Y-59405923D01*
X78850233Y-59399388D01*
X78827616Y-59395631D01*
X78798200Y-59393912D01*
X78757376Y-59393490D01*
X78748455Y-59393495D01*
X78710919Y-59393985D01*
X78683752Y-59395866D01*
X78662217Y-59399971D01*
X78641582Y-59407135D01*
X78617111Y-59418192D01*
X78591986Y-59431860D01*
X78547315Y-59464026D01*
X78507687Y-59502004D01*
X78478396Y-59541105D01*
X78463917Y-59565778D01*
X78186148Y-59565778D01*
X78194878Y-59531014D01*
X78229546Y-59450739D01*
X78277701Y-59376096D01*
X78340267Y-59304965D01*
X78408046Y-59245027D01*
X78484333Y-59195213D01*
X78565128Y-59160280D01*
X78651661Y-59139703D01*
X78745163Y-59132960D01*
X78766135Y-59133187D01*
X78852921Y-59140004D01*
X78930875Y-59157069D01*
X79003626Y-59185404D01*
X79074799Y-59226035D01*
X79097656Y-59242329D01*
X79145721Y-59283242D01*
X79193286Y-59331355D01*
X79235758Y-59381838D01*
X79268546Y-59429860D01*
X79272134Y-59436101D01*
X79308978Y-59516815D01*
X79321174Y-59560841D01*
X79333311Y-59604651D01*
G37*
G36*
X76063530Y-59187063D02*
G01*
X76056590Y-59196133D01*
X76039740Y-59217949D01*
X76015354Y-59249404D01*
X75984755Y-59288794D01*
X75949266Y-59334416D01*
X75910213Y-59384564D01*
X75868919Y-59437536D01*
X75835229Y-59480734D01*
X75797153Y-59529565D01*
X75763024Y-59573343D01*
X75734025Y-59610551D01*
X75711338Y-59639670D01*
X75696146Y-59659185D01*
X75689632Y-59667578D01*
X75689525Y-59669708D01*
X75695324Y-59681889D01*
X75709728Y-59704517D01*
X75732982Y-59737930D01*
X75765328Y-59782466D01*
X75807010Y-59838463D01*
X75858273Y-59906259D01*
X75919359Y-59986192D01*
X75923799Y-59991979D01*
X75970655Y-60053135D01*
X76014312Y-60110270D01*
X76053831Y-60162144D01*
X76088272Y-60207516D01*
X76116695Y-60245145D01*
X76138161Y-60273792D01*
X76151729Y-60292216D01*
X76156461Y-60299176D01*
X76156047Y-60299461D01*
X76145100Y-60300640D01*
X76121053Y-60301659D01*
X76086290Y-60302459D01*
X76043195Y-60302982D01*
X75994154Y-60303168D01*
X75831847Y-60303165D01*
X75675798Y-60102707D01*
X75654962Y-60076021D01*
X75618193Y-60029338D01*
X75585140Y-59987894D01*
X75557019Y-59953180D01*
X75535042Y-59926688D01*
X75520423Y-59909909D01*
X75514376Y-59904336D01*
X75513737Y-59904851D01*
X75505459Y-59914377D01*
X75489019Y-59934630D01*
X75465687Y-59964003D01*
X75436732Y-60000889D01*
X75403426Y-60043680D01*
X75367038Y-60090770D01*
X75359455Y-60100612D01*
X75322961Y-60147839D01*
X75289372Y-60191087D01*
X75260059Y-60228607D01*
X75236391Y-60258651D01*
X75219737Y-60279470D01*
X75211468Y-60289316D01*
X75205733Y-60294010D01*
X75197097Y-60297584D01*
X75183511Y-60300016D01*
X75162760Y-60301456D01*
X75132628Y-60302055D01*
X75090901Y-60301966D01*
X75035364Y-60301339D01*
X74872865Y-60299164D01*
X75109839Y-59990581D01*
X75114080Y-59985058D01*
X75160945Y-59923937D01*
X75204612Y-59866831D01*
X75244142Y-59814981D01*
X75278592Y-59769627D01*
X75307024Y-59732010D01*
X75328495Y-59703371D01*
X75342067Y-59684951D01*
X75346797Y-59677990D01*
X75346212Y-59676925D01*
X75338309Y-59665840D01*
X75321987Y-59643926D01*
X75298286Y-59612550D01*
X75268246Y-59573079D01*
X75232906Y-59526880D01*
X75193306Y-59475321D01*
X75150485Y-59419770D01*
X75135363Y-59400174D01*
X75093535Y-59345826D01*
X75055290Y-59295928D01*
X75021666Y-59251848D01*
X74993705Y-59214957D01*
X74972444Y-59186625D01*
X74958926Y-59168222D01*
X74954189Y-59161119D01*
X74954846Y-59160732D01*
X74966652Y-59159599D01*
X74991449Y-59158811D01*
X75026878Y-59158402D01*
X75070584Y-59158403D01*
X75120208Y-59158847D01*
X75286228Y-59161013D01*
X75396983Y-59305286D01*
X75413895Y-59327249D01*
X75444492Y-59366619D01*
X75471206Y-59400524D01*
X75492582Y-59427143D01*
X75507164Y-59444650D01*
X75513497Y-59451223D01*
X75516291Y-59449219D01*
X75527866Y-59436729D01*
X75546881Y-59414317D01*
X75571900Y-59383723D01*
X75601488Y-59346686D01*
X75634209Y-59304946D01*
X75749161Y-59157006D01*
X76086227Y-59157006D01*
X76063530Y-59187063D01*
G37*
G36*
X77373495Y-59574831D02*
G01*
X77379562Y-59597519D01*
X77383362Y-59620439D01*
X77385412Y-59647542D01*
X77386223Y-59682775D01*
X77386309Y-59730089D01*
X77386280Y-59742078D01*
X77385877Y-59786612D01*
X77384622Y-59820206D01*
X77381963Y-59847015D01*
X77377352Y-59871191D01*
X77370239Y-59896886D01*
X77360074Y-59928255D01*
X77324545Y-60012438D01*
X77274749Y-60092517D01*
X77213487Y-60163159D01*
X77142198Y-60223161D01*
X77062322Y-60271321D01*
X76975297Y-60306435D01*
X76882564Y-60327300D01*
X76862864Y-60329476D01*
X76806413Y-60331380D01*
X76743501Y-60328701D01*
X76680329Y-60321823D01*
X76623100Y-60311135D01*
X76556835Y-60292049D01*
X76484966Y-60261685D01*
X76418685Y-60221414D01*
X76354938Y-60169327D01*
X76290673Y-60103520D01*
X76252561Y-60060893D01*
X76352593Y-59985661D01*
X76373037Y-59970336D01*
X76405015Y-59946592D01*
X76430982Y-59927597D01*
X76448683Y-59914995D01*
X76455863Y-59910429D01*
X76457963Y-59911768D01*
X76469348Y-59921672D01*
X76488027Y-59939116D01*
X76511275Y-59961587D01*
X76527585Y-59976796D01*
X76591200Y-60023390D01*
X76659893Y-60055686D01*
X76732003Y-60073403D01*
X76805870Y-60076260D01*
X76879835Y-60063976D01*
X76952239Y-60036270D01*
X76980400Y-60020212D01*
X77030780Y-59980537D01*
X77073130Y-59932468D01*
X77104805Y-59879284D01*
X77123161Y-59824267D01*
X77128297Y-59798217D01*
X76202281Y-59798217D01*
X76206838Y-59712055D01*
X76209033Y-59678628D01*
X76216193Y-59619101D01*
X76228318Y-59565970D01*
X76230247Y-59560507D01*
X76509127Y-59560507D01*
X76509131Y-59560535D01*
X76517185Y-59561734D01*
X76539454Y-59562836D01*
X76574162Y-59563810D01*
X76619535Y-59564623D01*
X76673797Y-59565244D01*
X76735173Y-59565639D01*
X76801886Y-59565778D01*
X77094644Y-59565778D01*
X77081764Y-59540870D01*
X77062022Y-59511540D01*
X77028320Y-59476485D01*
X76987361Y-59444308D01*
X76943554Y-59418896D01*
X76937063Y-59415840D01*
X76913382Y-59405497D01*
X76892780Y-59398943D01*
X76870479Y-59395322D01*
X76841705Y-59393777D01*
X76801680Y-59393453D01*
X76754233Y-59394554D01*
X76711679Y-59399204D01*
X76676189Y-59408715D01*
X76643110Y-59424384D01*
X76607790Y-59447508D01*
X76591430Y-59461088D01*
X76569889Y-59482175D01*
X76547855Y-59506134D01*
X76528362Y-59529491D01*
X76514441Y-59548774D01*
X76509127Y-59560507D01*
X76230247Y-59560507D01*
X76247054Y-59512903D01*
X76274048Y-59453566D01*
X76287366Y-59427320D01*
X76305374Y-59396206D01*
X76325228Y-59368531D01*
X76350362Y-59339661D01*
X76384209Y-59304965D01*
X76384291Y-59304883D01*
X76457180Y-59241175D01*
X76532945Y-59192792D01*
X76613131Y-59159084D01*
X76699283Y-59139403D01*
X76792943Y-59133099D01*
X76864448Y-59136078D01*
X76931794Y-59146363D01*
X76995735Y-59165296D01*
X77062172Y-59194218D01*
X77088272Y-59207535D01*
X77119416Y-59225641D01*
X77147068Y-59245560D01*
X77175868Y-59270747D01*
X77210452Y-59304656D01*
X77242164Y-59337835D01*
X77281694Y-59384735D01*
X77312734Y-59430843D01*
X77338333Y-59480898D01*
X77361537Y-59539639D01*
X77364650Y-59548427D01*
X77370462Y-59565778D01*
X77373495Y-59574831D01*
G37*
G36*
X80204611Y-59061524D02*
G01*
X80225793Y-59112284D01*
X80264348Y-59204647D01*
X80301011Y-59292442D01*
X80335305Y-59374534D01*
X80366756Y-59449785D01*
X80394888Y-59517060D01*
X80419226Y-59575222D01*
X80439295Y-59623134D01*
X80454620Y-59659660D01*
X80464725Y-59683664D01*
X80469134Y-59694009D01*
X80478097Y-59714035D01*
X80488382Y-59694009D01*
X80489912Y-59690705D01*
X80497408Y-59673513D01*
X80510379Y-59643236D01*
X80528341Y-59601014D01*
X80550814Y-59547989D01*
X80577315Y-59485300D01*
X80607362Y-59414089D01*
X80640473Y-59335496D01*
X80676166Y-59250662D01*
X80713960Y-59160729D01*
X80753371Y-59066835D01*
X80774245Y-59017116D01*
X80812602Y-58925959D01*
X80848983Y-58839760D01*
X80882922Y-58759610D01*
X80913951Y-58686604D01*
X80941602Y-58621833D01*
X80965410Y-58566391D01*
X80984907Y-58521369D01*
X80999626Y-58487861D01*
X81009100Y-58466960D01*
X81012862Y-58459757D01*
X81014120Y-58463022D01*
X81019232Y-58480237D01*
X81027972Y-58511386D01*
X81040085Y-58555516D01*
X81055317Y-58611673D01*
X81073412Y-58678904D01*
X81094114Y-58756256D01*
X81117170Y-58842774D01*
X81142325Y-58937506D01*
X81169322Y-59039497D01*
X81197908Y-59147795D01*
X81227827Y-59261445D01*
X81258824Y-59379495D01*
X81500000Y-60299164D01*
X81367625Y-60301368D01*
X81355519Y-60301548D01*
X81304061Y-60301698D01*
X81265282Y-60300688D01*
X81240290Y-60298568D01*
X81230190Y-60295385D01*
X81229661Y-60294019D01*
X81225536Y-60280087D01*
X81217861Y-60252401D01*
X81206986Y-60212279D01*
X81193263Y-60161039D01*
X81177041Y-60100000D01*
X81158672Y-60030481D01*
X81138506Y-59953798D01*
X81116895Y-59871272D01*
X81094188Y-59784220D01*
X81086291Y-59753910D01*
X81063939Y-59668384D01*
X81042806Y-59587907D01*
X81023242Y-59513789D01*
X81005597Y-59447338D01*
X80990220Y-59389862D01*
X80977461Y-59342671D01*
X80967669Y-59307072D01*
X80961194Y-59284376D01*
X80958386Y-59275889D01*
X80958189Y-59275932D01*
X80953488Y-59284471D01*
X80943184Y-59306516D01*
X80927763Y-59340945D01*
X80907708Y-59386639D01*
X80883502Y-59442476D01*
X80855629Y-59507338D01*
X80824574Y-59580102D01*
X80790819Y-59659650D01*
X80754849Y-59744860D01*
X80717147Y-59834613D01*
X80711178Y-59848853D01*
X80673719Y-59937960D01*
X80638072Y-60022343D01*
X80604718Y-60100883D01*
X80574143Y-60172460D01*
X80546829Y-60235954D01*
X80523258Y-60290247D01*
X80503915Y-60334218D01*
X80489283Y-60366749D01*
X80479845Y-60386719D01*
X80476085Y-60393009D01*
X80476068Y-60392987D01*
X80472154Y-60384565D01*
X80462538Y-60362549D01*
X80447714Y-60328099D01*
X80428175Y-60282379D01*
X80404414Y-60226548D01*
X80376926Y-60161770D01*
X80346204Y-60089205D01*
X80312742Y-60010016D01*
X80277032Y-59925364D01*
X80239570Y-59836411D01*
X80238427Y-59833693D01*
X80201044Y-59745012D01*
X80165426Y-59660794D01*
X80132063Y-59582187D01*
X80101448Y-59510338D01*
X80074073Y-59446393D01*
X80050431Y-59391498D01*
X80031014Y-59346802D01*
X80016314Y-59313451D01*
X80006823Y-59292591D01*
X80003034Y-59285369D01*
X80002495Y-59286320D01*
X79998394Y-59299020D01*
X79990766Y-59325497D01*
X79979956Y-59364460D01*
X79966313Y-59414621D01*
X79950183Y-59474687D01*
X79931913Y-59543368D01*
X79911852Y-59619374D01*
X79890345Y-59701414D01*
X79867741Y-59788199D01*
X79859931Y-59818249D01*
X79837611Y-59903832D01*
X79816487Y-59984390D01*
X79796909Y-60058609D01*
X79779229Y-60125180D01*
X79763798Y-60182788D01*
X79750967Y-60230122D01*
X79741086Y-60265871D01*
X79734506Y-60288721D01*
X79731579Y-60297360D01*
X79726472Y-60298771D01*
X79707443Y-60300366D01*
X79677126Y-60301385D01*
X79638315Y-60301746D01*
X79593800Y-60301368D01*
X79461594Y-60299164D01*
X79696127Y-59405475D01*
X79709315Y-59355228D01*
X79739638Y-59239740D01*
X79768830Y-59128620D01*
X79796625Y-59022880D01*
X79822754Y-58923534D01*
X79846953Y-58831593D01*
X79868953Y-58748071D01*
X79888489Y-58673980D01*
X79905292Y-58610332D01*
X79919098Y-58558140D01*
X79929638Y-58518417D01*
X79936646Y-58492175D01*
X79939855Y-58480426D01*
X79949049Y-58449066D01*
X80204611Y-59061524D01*
G37*
D12*
%TO.C,TP3*%
X87700000Y-54800000D02*
G75*
G02*
X86300000Y-54800000I-700000J0D01*
G01*
X86300000Y-54800000D02*
G75*
G02*
X87700000Y-54800000I700000J0D01*
G01*
%TO.C,TP12*%
X75700000Y-56800000D02*
G75*
G02*
X74300000Y-56800000I-700000J0D01*
G01*
X74300000Y-56800000D02*
G75*
G02*
X75700000Y-56800000I700000J0D01*
G01*
%TO.C,TP5*%
X87700000Y-56800000D02*
G75*
G02*
X86300000Y-56800000I-700000J0D01*
G01*
X86300000Y-56800000D02*
G75*
G02*
X87700000Y-56800000I700000J0D01*
G01*
%TD*%
M02*
